<?xml version="1.0" encoding="UTF-8"?>
<svg id="katman_2" data-name="katman 2" xmlns="http://www.w3.org/2000/svg" viewBox="0 0 47.36 14.17">
  <defs>
    <style>
      .cls-1 {
        fill: #ce0e2d;
      }

      .cls-2 {
        fill: #4a4f54;
      }

      .cls-3 {
        fill: #ff5100;
      }
    </style>
  </defs>
  <g id="katman_1" data-name="katman 1">
    <g>
      <path class="cls-2" d="M21.92,9.88v-1.05c-.31-.08-.53-.11-.66-.11-1.32,0-2.12.54-2.12,1.94v3.51h1.38v-3.55h0c.02-.57.38-.85.83-.85.26,0,.57.1.57.1"/>
      <path class="cls-2" d="M10.84,14.17h-2.36v-7.4h2.37c1.45,0,2.14.93,2.14,1.83,0,.64-.31,1.23-.92,1.53h0c.82.2,1.41.92,1.41,1.8,0,1.06-.77,2.23-2.64,2.23M10.51,7.9h-.67v1.94h.81c.48,0,.97-.39.97-.98s-.36-.96-1.11-.96M10.77,10.97h-.92v2.05h.87c.91,0,1.36-.41,1.36-1.08,0-.58-.47-.97-1.31-.97"/>
      <path class="cls-2" d="M7.78,14.17c-.09,0-.19,0-.28,0-1.32,0-2.12-.54-2.12-1.94v-5.46h1.37v5.5h0c.02.61.46.86,1.01.86,0,0,0,0,.01,0v1.03h0Z"/>
      <polygon class="cls-2" points="26.92 6.78 28.29 6.78 28.29 10.95 30.33 8.73 31.96 8.73 30.06 10.78 32.12 14.17 30.5 14.17 29.1 11.82 28.29 12.68 28.29 14.17 26.92 14.17 26.92 6.78 26.92 6.78"/>
      <path class="cls-2" d="M35.13,10.68l-.94.03c-1.36.05-2.23.64-2.23,1.75s.77,1.71,1.75,1.71c.71,0,1.2-.27,1.54-.59l.23.48h1.14c-.08-.25-.11-.64-.11-1.41v-2.11c0-1.4-.8-1.94-2.12-1.94-.69,0-1.08.1-1.36.15v1.03s.42-.2,1.07-.15c.51.04,1.02.3,1.03.87v.17h0ZM35.14,12.77c-.18.16-.48.33-.95.33-.56,0-.87-.3-.87-.74s.35-.69,1.06-.72c.23-.01.76-.02.76-.02v1.15h0Z"/>
      <path class="cls-2" d="M24.73,10.68l-.94.04c-1.36.04-2.23.64-2.23,1.75,0,1.05.77,1.71,1.75,1.71.71,0,1.19-.27,1.54-.59l.22.48h1.14c-.08-.25-.11-.64-.11-1.41v-2.11c0-1.4-.8-1.94-2.12-1.94-.69,0-1.08.1-1.36.15v1.03s.42-.2,1.07-.15c.51.04,1.02.3,1.04.87v.17h0ZM24.73,12.77c-.18.16-.48.33-.95.33-.56,0-.87-.3-.87-.74s.35-.69,1.06-.72c.23-.01.76-.02.76-.02v1.15h0Z"/>
      <path class="cls-2" d="M16.94,10.68l-.94.03c-1.36.04-2.23.64-2.23,1.75,0,1.05.77,1.71,1.75,1.71.71,0,1.19-.27,1.54-.59l.23.48h1.14c-.08-.25-.11-.64-.11-1.41v-2.11c0-1.4-.8-1.94-2.12-1.94-.69,0-1.08.1-1.36.15v1.03s.42-.2,1.07-.15c.51.04,1.02.3,1.03.87v.17h0ZM16.94,12.77c-.18.16-.48.33-.95.33-.56,0-.87-.3-.87-.74s.35-.68,1.06-.72c.23-.01.76-.02.76-.02v1.16h0Z"/>
      <path class="cls-2" d="M3.17,10.68l-.94.03c-1.36.04-2.23.64-2.23,1.75,0,1.05.77,1.71,1.75,1.71.71,0,1.19-.27,1.54-.59l.23.48h1.14c-.08-.25-.11-.64-.11-1.41v-2.11c0-1.4-.8-1.94-2.12-1.94-.69,0-1.08.1-1.36.15v1.03s.42-.2,1.07-.15c.51.04,1.02.3,1.03.87v.17h0ZM3.17,12.77c-.18.16-.48.33-.95.33-.56,0-.87-.3-.87-.74s.35-.68,1.06-.72c.23-.01.76-.02.76-.02v1.16h0Z"/>
      <path class="cls-1" d="M46.8,8.82l-1.82-2.95v4.85c0,.5-.4,1.08-1.07,1.08-.57,0-1.08-.45-1.09-1.12,0-.14.07-.33.11-.46l1.71-4.91-.77-1.25-2.89,4.85h0c-.34.54-.52,1.17-.51,1.85,0,1.8,1.55,3.4,3.46,3.39,1.91,0,3.45-1.64,3.44-3.43,0-.7-.2-1.37-.56-1.92"/>
      <path class="cls-3" d="M36.55,5.35l1.82,2.95V3.45c0-.5.4-1.08,1.07-1.08.57,0,1.08.45,1.09,1.12,0,.14-.07.33-.11.46l-1.71,4.91.77,1.25,2.9-4.85h0c.34-.54.52-1.18.51-1.86C42.88,1.58,41.33,0,39.43,0c-1.91.01-3.45,1.64-3.44,3.43,0,.71.2,1.37.56,1.92"/>
    </g>
  </g>
</svg>