<?xml version="1.0" encoding="UTF-8"?>
<svg id="katman_2" data-name="katman 2" xmlns="http://www.w3.org/2000/svg" xmlns:xlink="http://www.w3.org/1999/xlink" viewBox="0 0 60.65 14.17">
  <defs>
    <style>
      .cls-1 {
        fill: none;
      }

      .cls-2 {
        fill: #b68400;
      }

      .cls-3 {
        fill: #006548;
      }

      .cls-4 {
        fill: #fff;
      }

      .cls-5 {
        clip-path: url(#clippath);
      }
    </style>
    <clipPath id="clippath">
      <path class="cls-1" d="M.34,7.09c0,3.73,3.02,6.75,6.75,6.75s6.75-3.02,6.75-6.75S10.81.34,7.09.34.34,3.36.34,7.09"/>
    </clipPath>
  </defs>
  <g id="katman_1" data-name="katman 1">
    <g>
      <g>
        <g>
          <path class="cls-4" d="M14.17,7.09c0,3.91-3.17,7.09-7.09,7.09S0,11,0,7.09,3.17,0,7.09,0s7.09,3.17,7.09,7.09"/>
          <path class="cls-3" d="M.34,7.09C.34,3.36,3.36.34,7.09.34s6.75,3.02,6.75,6.75-3.02,6.75-6.75,6.75S.34,10.81.34,7.09"/>
        </g>
        <g class="cls-5">
          <path class="cls-2" d="M6.77,13.14l-.68.42-.45-1.09,1.13.66ZM5.68,10.16l1.09.67-.64.44-.45-1.11ZM5.65,7.82l1.14.69-.67.48-.47-1.17ZM7.46,9.7l1.12-.69-.43,1.14-.68-.44ZM5.67,11.32l2.09,1.27-.63.41-1.09-.61-.37-1.07ZM6.48,11.4l2.07-1.25-.33,1.01-1.08.73-.66-.48ZM5.67,9.04l2.11,1.21-.7.47-1.05-.64-.36-1.05ZM6.45,9.11l2.1-1.26-.38,1.08-1.02.62-.7-.44ZM6.39,7.9h1.4l-.67.53-.74-.53ZM7.46,11.96l1.12-.69-.43,1.14-.68-.44ZM7.09,7.1s-1.13-3.26-1.34-3.91c-.09-.27-.13-.5.05-.72l1.3-1.7,1.3,1.7c.17.22.13.45.04.72-.22.65-1.34,3.91-1.34,3.91M13.48,7.48h-5.99s2.73-1.4,2.73-1.4c1.52-.78,2.03-.13,2.58.56l.68.84ZM7.35,7.18l1.88-3.37c.24-.44.87-.66,1.42-.33l2.11,1.27h-1.06c-.47,0-.84.18-1.18.4l-3.18,2.03ZM.7,7.48l.68-.84c.56-.69,1.06-1.34,2.58-.56l2.73,1.4H.7ZM6.82,7.18l-3.18-2.03c-.34-.22-.71-.39-1.18-.4h-1.06s2.11-1.27,2.11-1.27c.55-.33,1.17-.11,1.42.33l1.88,3.37ZM6.36,13.79l2.19-1.3-.42,1.26c-.34.05-.68.08-1.03.08-.25,0-.5-.01-.74-.04"/>
        </g>
      </g>
      <g>
        <path class="cls-3" d="M48.2,3.11l.62-.62-.62-.62-.62.62.62.62ZM49.04,2.49l.62-.62.62.62-.62.62-.62-.62ZM46.72,2.49h-4.04v1.03h1.43v4.46h1.19V3.52h1.43v-1.03ZM54.41,4.56h-1.45v1.08h1.45v-1.08ZM54.4,7.98l-.94-1.31h-.5v1.31h-1.19V3.52h3.83v3.15h-.76l.94,1.31h-1.38ZM56.52,7.98h1.19v-1.75h.9c.5,0,.78,0,.78.51v1.24h1.19v-1.26c0-.88-.13-1.34-1.17-1.48l1.23-1.72h-1.39l-1.2,1.68h-.36v-1.68h-1.19v4.46ZM49.67,6.41v-2.89h1.19v2.97c0,1.19-.56,1.52-1.87,1.52-1.78,0-1.97-.45-1.97-1.52v-2.97h1.19v2.95c0,.51.28.51.78.51s.68-.04.68-.56M36.35,5.23c-.5,0-.78,0-.78-.51v-1.2h-1.19v1.22c0,.92.14,1.39,1.33,1.49v1.74h1.19v-1.74c.92-.1,1.32-.49,1.32-1.5v-1.22h-1.19v1.14c0,.52-.17.56-.68.56M33.63,4.5h-2.03v.76h1.9v.97h-1.9v.77h2.07v.97h-3.26V3.52h3.21v.97ZM23.55,7h-1.46v-3.48h-1.19v4.46h3.84V3.52h-1.19v3.48ZM42.38,4.56h-1.14v3.42h-1.19v-3.42h-1.14v-1.03h3.47v1.03ZM15.92,7.98h1.19v-2.26h.9c.5,0,.78,0,.78.51v1.75h1.19v-1.78c0-.89-.13-1.35-1.19-1.48l1.27-2.23h-1.38l-1.24,2.19h-.33v-2.19h-1.19v5.49ZM26.85,3.52v1.81c0,.62.15,1.01.56,1.44l.17.18.18-.18c.4-.43.55-.83.55-1.44v-1.81h1.19v1.81c0,1.56-.8,2.16-1.26,2.64h-1.32c-.46-.48-1.26-1.08-1.26-2.64v-1.81h1.19Z"/>
        <path d="M54.63,12.28h.47l-.56-.95.52-.91h-.47l-.5.91.54.95ZM53.61,12.28h.42v-1.87h-.42v1.87ZM52.35,10.41h.42v1.87h-.42v-1.87ZM51.6,12.28v-.37h-.74v-1.49h-.42v1.87h1.16ZM49.19,10.41h.42v1.87h-.42v-1.87ZM47.62,11.03s0-.08.01-.11c0-.03.02-.06.04-.08.02-.02.05-.04.08-.05.03-.01.08-.02.13-.02.07,0,.14,0,.23.01.09,0,.17.02.25.03l.06-.37c-.09-.02-.18-.04-.27-.05-.09,0-.18-.01-.27-.01-.12,0-.22.01-.31.04-.09.03-.16.07-.21.12-.06.05-.1.11-.12.18-.03.07-.04.15-.04.23v.78c0,.08.01.16.04.23.03.07.07.13.12.18.06.05.13.09.21.12.09.03.19.04.31.04.1,0,.19,0,.27-.01.09,0,.18-.02.27-.05l-.06-.37c-.08.01-.17.03-.25.03-.09,0-.16.01-.23.01-.05,0-.09,0-.13-.02-.03-.01-.06-.03-.08-.05-.02-.02-.03-.05-.04-.08,0-.03-.01-.07-.01-.11v-.64ZM45.48,11.57h.43l-.21-.78-.22.78ZM46.55,12.28h-.44l-.1-.36h-.62l-.1.36h-.44l.57-1.87h.56l.57,1.87ZM43.71,12.28h.47l-.56-.95.52-.91h-.47l-.5.91.54.95ZM42.69,12.28h.42v-1.87h-.42v1.87ZM40.73,11.05v1.23h-.4v-1.87h.52l.61,1.29v-1.29h.4v1.87h-.52l-.61-1.23ZM38.75,10.79l.21.78h-.43l.22-.78ZM39.03,10.41h-.56l-.57,1.87h.44l.1-.36h.62l.1.36h.44l-.57-1.87ZM36.84,11.66c0-.05-.02-.09-.05-.12-.03-.03-.07-.04-.13-.04h-.32v.43h.26c.07,0,.12-.01.17-.03.05-.02.07-.06.07-.13v-.11ZM36.78,10.89s-.01-.07-.04-.1c-.03-.02-.07-.04-.13-.04h-.26v.43h.26c.06,0,.1-.01.13-.04.03-.03.04-.06.04-.09v-.16ZM37.26,11.84c0,.13-.04.24-.13.32-.09.08-.22.12-.41.12h-.8v-1.87h.74c.1,0,.18,0,.25.03.07.02.12.05.17.08.04.04.07.08.09.13.02.05.03.11.03.17v.19c0,.07-.02.12-.05.17-.03.05-.09.09-.16.12.08.02.14.06.2.12.05.06.08.14.08.22v.18ZM32.89,12.04h.38l.33-.8.03,1.04h.41l-.08-1.87h-.42l-.45,1.19-.45-1.19h-.42l-.08,1.87h.41l.03-1.04.33.8ZM30.35,11.57h.43l-.21-.78-.22.78ZM31.41,12.28h-.44l-.1-.36h-.62l-.1.36h-.44l.57-1.87h.56l.57,1.87ZM29.05,12.28v-.37h-.74v-1.49h-.42v1.87h1.16ZM26.86,9.85s-.02.09-.04.13c-.02.04-.05.08-.09.11-.04.03-.08.06-.13.08-.05.02-.11.03-.17.03s-.12-.01-.17-.03c-.05-.02-.09-.05-.13-.08-.04-.03-.07-.07-.09-.11-.02-.04-.04-.08-.04-.13l.19-.09c.02.06.04.1.08.14.04.04.09.06.16.06s.12-.02.16-.06c.04-.04.07-.09.08-.14l.19.09ZM27.08,12.22c-.1.03-.21.05-.32.07-.11.01-.22.02-.33.02-.11,0-.21-.01-.3-.04-.08-.03-.16-.07-.21-.12-.06-.05-.1-.11-.13-.18-.03-.07-.04-.15-.04-.23v-.78c0-.09.01-.16.04-.23.03-.07.07-.13.13-.18.06-.05.13-.09.21-.12.08-.03.18-.04.3-.04.11,0,.21,0,.32.02.1.01.2.03.28.04l-.05.37s-.09-.01-.14-.02c-.05,0-.1-.01-.15-.02-.05,0-.1,0-.14,0-.05,0-.09,0-.12,0-.05,0-.1,0-.13.02-.03.01-.06.03-.08.05-.02.02-.03.05-.04.08,0,.03-.01.07-.01.1v.64s0,.07.01.1c0,.03.02.06.04.08.02.02.05.04.08.06.03.01.08.02.13.02.04,0,.08,0,.12,0,.03,0,.08,0,.13-.01v-.57h.4v.88ZM24.25,10.79l.21.78h-.43l.22-.78ZM24.53,10.41h-.56l-.57,1.87h.44l.1-.36h.62l.1.36h.44l-.57-1.87ZM22.75,11.76c0,.09,0,.17-.03.24-.02.07-.05.13-.1.17-.05.05-.12.08-.21.1-.09.02-.2.03-.34.03-.11,0-.22-.01-.32-.03-.11-.02-.2-.05-.28-.09l.07-.32c.09.03.17.05.26.06.09.02.18.03.28.03.05,0,.1,0,.13,0,.03,0,.06-.02.08-.03.02-.02.03-.04.04-.06,0-.02,0-.06,0-.1s0-.07,0-.1c0-.03-.02-.05-.04-.06-.02-.02-.05-.03-.09-.05-.04-.01-.1-.03-.18-.05-.11-.02-.2-.05-.27-.08-.07-.03-.12-.06-.16-.1-.04-.04-.06-.1-.07-.16-.01-.07-.02-.15-.02-.25,0-.09,0-.17.03-.24.02-.07.05-.12.1-.16.05-.04.11-.07.2-.09.08-.02.19-.03.32-.03.08,0,.17,0,.27.01.09,0,.2.02.3.05l-.04.35c-.11-.02-.2-.03-.28-.04-.08,0-.16-.01-.24-.01-.05,0-.08,0-.11,0-.03,0-.05.01-.07.03-.02.01-.03.03-.04.05,0,.02,0,.05,0,.08,0,.05,0,.08,0,.11,0,.02.02.05.04.06.02.02.05.03.09.04.04.01.1.03.17.04.13.03.22.06.29.09.07.03.12.07.16.11.04.04.06.09.06.16,0,.06.01.14.01.23"/>
      </g>
    </g>
  </g>
</svg>