<?xml version="1.0" encoding="UTF-8"?>
<svg id="uuid-fb3d9132-bd84-4f52-aab6-ae4ccdc6f5ac" data-name="katman 2" xmlns="http://www.w3.org/2000/svg" viewBox="0 0 414.85 308.42">
  <g id="uuid-97115465-980d-4fa3-96da-26946d31a371" data-name="katman 1">
    <g>
      <path d="M296.27,86.35c-.27-2.54-1.86-4.62-4.03-5.62,1.69-1.68,2.48-4.17,1.86-6.66-.62-2.47-2.49-4.31-4.77-5,1.45-1.9,1.88-4.48.92-6.85-.96-2.37-3.07-3.92-5.42-4.29,1.16-2.09,1.23-4.7-.05-6.91-1.27-2.21-3.59-3.46-5.96-3.5.85-2.22.56-4.82-1.01-6.84-1.57-2.02-4.03-2.92-6.38-2.63.53-2.32-.11-4.85-1.96-6.63-1.83-1.77-4.4-2.33-6.69-1.71.21-2.37-.78-4.8-2.85-6.3-2.08-1.5-4.68-1.69-6.88-.77-.12-2.38-1.44-4.64-3.71-5.83-2.24-1.2-4.86-1.03-6.9.2-.45-2.34-2.07-4.39-4.48-5.27-2.4-.88-4.96-.34-6.82,1.15-.77-2.25-2.67-4.06-5.17-4.59-2.5-.53-4.96.34-6.59,2.09-.77-1.51-2.06-2.72-3.67-3.36.58-1.61,1.53-2.56,1.53-2.56-3.01-1.62-5.06-.05-5.06-.05-.31-2.35-2.17-4.43-4.77-4.43s-4.45,2.08-4.76,4.43c0,0-2.06-1.57-5.08.05,0,0,.95.95,1.53,2.55-1.61.63-2.91,1.85-3.67,3.36-1.63-1.75-4.09-2.62-6.59-2.09-2.5.53-4.4,2.34-5.16,4.59-1.85-1.5-4.42-2.03-6.82-1.15-2.39.87-4.02,2.93-4.47,5.27-2.05-1.23-4.66-1.39-6.91-.2-2.26,1.2-3.58,3.46-3.7,5.84-2.19-.94-4.8-.73-6.87.77-2.06,1.5-3.06,3.92-2.85,6.3-2.3-.62-4.86-.06-6.7,1.71-1.84,1.78-2.49,4.32-1.94,6.63-2.37-.29-4.82.62-6.4,2.63-1.57,2.01-1.86,4.61-1,6.84-2.38.03-4.69,1.29-5.96,3.5-1.28,2.21-1.21,4.83-.05,6.91-2.35.37-4.46,1.92-5.42,4.29-.95,2.37-.51,4.95.92,6.85-2.28.69-4.15,2.52-4.77,5-.62,2.47.18,4.98,1.86,6.66-2.16,1-3.76,3.07-4.02,5.62-.26,2.47.81,4.77,2.61,6.21v2.52c0,2,1.62,3.61,3.61,3.61h48.68c2.61-16.79,12.97-30.1,26.23-33.88v-.02c7.17-1.72,7.7-7.09,7.7-7.09,0,0,.53,5.38,7.69,7.09h0c13.28,3.78,23.65,17.1,26.27,33.9h48.66c1.99,0,3.62-1.62,3.62-3.61v-2.52c1.81-1.44,2.86-3.75,2.61-6.21ZM291,89.21l-1.62,3.35v1.87h-45.07c-4.28-16.93-14.97-29.94-28.25-33.94v-.02c-8.06-2.04-8.66-8.46-8.66-8.46,0,0-.6,6.42-8.66,8.46v.03c-13.25,4.02-23.94,17.01-28.21,33.93h-45.08v-1.87l-1.61-3.35c-.74-.58-1.12-1.49-1.02-2.42.11-.96.69-1.77,1.58-2.19l1.21-6.89c-.69-.69-.97-1.66-.73-2.61.23-.93.93-1.66,1.87-1.95l2.17-6.66c-.6-.78-.73-1.78-.37-2.68.36-.89,1.16-1.52,2.12-1.67l3.08-6.29c-.48-.86-.48-1.87,0-2.7.49-.83,1.36-1.34,2.33-1.36l3.92-5.81c-.35-.91-.21-1.91.38-2.68.52-.65,1.31-1.04,2.16-1.04.11,0,.23.01.34.02l4.69-5.21c-.23-.96.05-1.92.75-2.59.5-.49,1.17-.76,1.89-.76.24,0,.49.03.72.09l5.37-4.49c-.09-.98.33-1.9,1.11-2.47.58-.42,1.18-.52,1.59-.52.37,0,.75.08,1.09.23l5.94-3.71c.06-.98.59-1.83,1.44-2.29.39-.21.82-.32,1.27-.32.5,0,1,.14,1.44.4l6.39-2.85c.19-.97.84-1.73,1.75-2.07.3-.1.61-.16.93-.16.62,0,1.24.23,1.73.62l6.74-1.92c.32-.93,1.07-1.61,2.01-1.8.19-.04.38-.06.57-.06.75,0,1.48.33,2,.89l6.94-.98c.31-.61.81-1.07,1.43-1.32l1.91-4.22,4.3-1.8c.03-.25.23-.71.53-.71s.5.46.54.71l4.3,1.8,1.91,4.23c.61.24,1.12.71,1.43,1.31l6.93.98c.52-.56,1.26-.89,2.01-.89.19,0,.38.02.57.07.94.2,1.69.88,2.01,1.8l6.74,1.92c.49-.4,1.11-.62,1.73-.62.32,0,.63.06.93.17.91.33,1.56,1.1,1.75,2.06l6.39,2.85c.44-.26.93-.4,1.44-.4.44,0,.87.1,1.26.32.85.45,1.39,1.3,1.44,2.28l5.94,3.71c.34-.15.72-.23,1.09-.23.4,0,1.01.09,1.6.52.77.58,1.19,1.49,1.11,2.46l5.36,4.5c.23-.06.48-.09.72-.09.71,0,1.39.26,1.89.76.69.67.97,1.64.76,2.59l4.68,5.21c.11-.01.23-.02.34-.02.85,0,1.63.38,2.16,1.04.59.76.74,1.77.39,2.68l3.91,5.81c.98.02,1.86.52,2.34,1.37.48.83.49,1.84,0,2.7l3.08,6.29c.96.15,1.76.78,2.11,1.68.36.89.23,1.89-.36,2.67l2.16,6.66c.93.29,1.63,1.01,1.86,1.95.23.94-.04,1.91-.73,2.61l1.21,6.89c.89.42,1.48,1.24,1.58,2.2.1.93-.29,1.83-1.03,2.42Z" fill="#fff"/>
      <g>
        <path d="M18.2,213.59h10.45v20.1h.2c.61-1.97,1.22-4,1.97-6.11l5.02-13.99h11.54l-9.85,20.1,9.91,25.67h-11.47l-5.49-17.59-1.83,3.46v14.13h-10.45v-45.76Z" fill="#fff"/>
        <path d="M71.41,239.94h-9.97v10.31h11.2v9.11h-21.73v-45.76h20.97v9.1h-10.45v8.55h9.97v8.7Z" fill="#fff"/>
        <path d="M77.85,248.89c1.97,1.08,5.3,1.77,7.94,1.77,3.94,0,5.7-1.77,5.7-4.07,0-2.85-1.9-4.15-5.9-6.52-7.4-4.41-8.62-9.43-8.62-12.82,0-7.54,4.89-14.05,15.47-14.05,3.12,0,6.1.81,7.53,1.62l-1.49,9.03c-1.36-.81-3.33-1.56-5.97-1.56-3.52,0-5.23,1.83-5.23,3.93,0,1.97.95,3.26,6.11,6.18,6.31,3.53,8.41,8.34,8.41,13.03,0,8.62-6.45,14.32-16.09,14.32-3.94,0-7.6-.88-9.23-1.77l1.36-9.09Z" fill="#fff"/>
        <path d="M111.38,223.37h-7.94v-9.78h26.47v9.78h-8.01v35.98h-10.53v-35.98Z" fill="#fff"/>
        <path d="M140.43,250.31l-1.56,9.04h-10.18l9.71-45.76h12.76l8.34,45.76h-10.19l-1.48-9.04h-7.4ZM147.01,242.24l-1.15-8.69c-.33-2.58-.95-7.53-1.36-10.38h-.14c-.47,2.85-1.15,7.93-1.56,10.38l-1.36,8.69h5.56Z" fill="#fff"/>
        <path d="M164.19,259.35v-45.76h9.56l6.45,16.43c1.15,2.91,3.33,8.69,4.48,12.22h.14c-.27-3.74-1.02-12.63-1.02-21.25v-7.4h9.16v45.76h-9.57l-6.17-15.42c-1.43-3.53-3.53-9.57-4.34-12.96h-.14c.21,3.94.61,11.54.61,20.5v7.88h-9.16Z" fill="#fff"/>
        <path d="M221.21,239.94h-9.98v10.31h11.2v9.11h-21.72v-45.76h20.97v9.1h-10.45v8.55h9.98v8.7Z" fill="#fff"/>
        <path d="M228.67,214.27c2.71-.54,6.45-.88,10.05-.88,5.77,0,10.18.68,13.44,3.6,2.92,2.51,4.13,6.45,4.13,10.25,0,5.3-1.69,9.09-4.34,11.74-2.99,2.86-7.74,4.07-11.27,4.07h-1.56v16.3h-10.45v-45.08ZM239.12,234.56c.41.07.82.07,1.22.07,4.21,0,5.57-3.12,5.57-6.45,0-3.67-1.49-6.38-4.89-6.38-.68,0-1.43.14-1.9.34v12.42Z" fill="#fff"/>
        <path d="M267.01,250.31l-1.56,9.04h-10.18l9.7-45.76h12.77l8.35,45.76h-10.19l-1.5-9.04h-7.4ZM273.6,242.24l-1.16-8.69c-.34-2.58-.95-7.53-1.35-10.38h-.14c-.47,2.85-1.15,7.93-1.56,10.38l-1.36,8.69h5.57Z" fill="#fff"/>
        <path d="M289.42,253.23l13.98-30.27v-.2h-12.63v-9.17h24.44v7.87l-13.16,28.51v.21h13.09v9.17h-25.72v-6.12Z" fill="#fff"/>
        <path d="M328.65,250.31l-1.56,9.04h-10.19l9.72-45.76h12.76l8.35,45.76h-10.19l-1.49-9.04h-7.4ZM335.23,242.24l-1.15-8.69c-.33-2.58-.95-7.53-1.36-10.38h-.14c-.47,2.85-1.16,7.93-1.56,10.38l-1.35,8.69h5.56Z" fill="#fff"/>
        <path d="M352.4,214.27c3.05-.54,6.92-.88,10.65-.88,5.03,0,9.85.61,13.03,3.46,2.98,2.64,3.8,5.7,3.8,9.77,0,4.48-2.24,9.09-6.92,11.27v.13c2.99,1.37,4.48,4.08,5.29,8.56.81,4.54,2.17,10.99,3.06,12.76h-11.01c-.53-1.23-1.62-5.98-2.23-10.8-.68-5.43-1.9-6.72-4.21-6.72h-1.02v17.52h-10.45v-45.08ZM362.85,233.75h1.36c3.39,0,5.09-2.92,5.09-6.24s-1.29-5.84-4.55-5.97c-.67,0-1.49.06-1.89.27v11.95Z" fill="#fff"/>
        <path d="M396.65,213.59v45.76h-10.51v-45.76h10.51Z" fill="#fff"/>
      </g>
      <g>
        <path d="M93.74,293.69c0,6.88-2.34,9.51-5.29,9.51s-5.08-3.23-5.08-9.4,2.2-9.34,5.37-9.34,5,3.4,5,9.23ZM85.18,282.02c0-.7.52-1.24,1.17-1.24.71,0,1.17.54,1.17,1.24,0,.76-.46,1.28-1.2,1.28-.65,0-1.14-.52-1.14-1.28ZM85.53,293.83c0,3.77.74,7.53,3.07,7.53s2.97-4,2.97-7.58-.63-7.47-2.99-7.47-3.04,3.8-3.04,7.52ZM89.55,282.02c0-.7.52-1.24,1.17-1.24.71,0,1.17.54,1.17,1.24,0,.76-.46,1.28-1.2,1.28-.66,0-1.14-.52-1.14-1.28Z" fill="#fff"/>
        <path d="M105.22,302.53c-.76.32-2.1.62-3.23.62-1.6,0-3.09-.44-4.31-1.77-1.34-1.41-2.24-3.93-2.2-7.31.03-7.14,3.67-9.55,6.9-9.55,1.14,0,2.03.21,2.57.51l-.46,1.79c-.49-.24-1.11-.43-2.1-.43-2.28,0-4.75,1.82-4.75,7.49s2.15,7.47,4.34,7.47c.71,0,1.12-.11,1.28-.22v-5.97h-2.37v-1.73h4.32v9.09ZM99.82,281.07c.14.73.77,1.17,1.65,1.17s1.53-.36,1.69-1.17h1.22c0,1.55-1.09,2.6-2.88,2.6s-2.9-.97-2.9-2.6h1.22Z" fill="#fff"/>
        <path d="M108.11,284.96c.86-.25,1.95-.35,2.98-.35,1.82,0,3.18.38,4.13,1.31.89.92,1.27,2.14,1.27,3.58,0,2.34-1.09,3.86-2.93,4.73v.05c1.36.41,2.07,1.71,2.44,4.09.44,2.5.79,4.05,1.06,4.62h-2.12c-.28-.54-.63-2.28-.98-4.51-.41-2.52-1.19-3.44-2.98-3.44h-.82v7.95h-2.06v-18.03ZM110.17,293.4h.9c1.97,0,3.31-1.47,3.31-3.67s-.87-3.42-3.1-3.44c-.43,0-.84.03-1.11.11v7.01Z" fill="#fff"/>
        <path d="M125.87,294.3h-4.6v6.87h5.22v1.82h-7.31v-18.3h6.98v1.82h-4.89v6.03h4.6v1.76Z" fill="#fff"/>
        <path d="M128.83,302.98v-18.3h1.96l3.37,8.59c.76,1.97,1.71,4.39,2.34,6.37h.05c-.17-2.87-.24-5.24-.24-8.41v-6.55h1.87v18.3h-1.95l-3.48-8.8c-.77-1.85-1.55-3.94-2.2-6.22h-.05c.15,2.44.21,4.78.21,8.69v6.32h-1.87Z" fill="#fff"/>
        <path d="M149.44,302.66c-.57.31-1.5.49-2.64.49-3.55,0-6.12-2.88-6.12-9.09,0-7.23,3.58-9.53,6.49-9.53,1.08,0,1.9.21,2.25.46l-.46,1.77c-.44-.19-.87-.38-1.81-.38-1.97,0-4.27,1.9-4.27,7.49s2.06,7.44,4.32,7.44c.78,0,1.47-.19,1.9-.38l.35,1.74Z" fill="#fff"/>
        <path d="M151.42,282.04c0-.71.54-1.22,1.22-1.22s1.2.52,1.2,1.22c0,.65-.52,1.2-1.22,1.2-.66,0-1.2-.55-1.2-1.2ZM153.65,284.68v18.3h-2.09v-18.3h2.09Z" fill="#fff"/>
        <path d="M162.94,302.98v-7.74l-4.04-10.56h2.22l1.63,4.59c.43,1.28.95,2.72,1.36,4.13h.05c.36-1.41.84-2.79,1.33-4.21l1.55-4.51h2.17l-4.18,10.48v7.82h-2.1Z" fill="#fff"/>
        <path d="M177.66,294.3h-4.59v6.87h5.22v1.82h-7.31v-18.3h6.98v1.82h-4.89v6.03h4.59v1.76Z" fill="#fff"/>
        <path d="M182.74,286.55h-3.34v-1.87h8.77v1.87h-3.34v16.43h-2.09v-16.43Z" fill="#fff"/>
        <path d="M190.07,282.04c0-.71.54-1.22,1.23-1.22s1.19.52,1.19,1.22c0,.65-.52,1.2-1.22,1.2-.66,0-1.2-.55-1.2-1.2ZM192.3,284.68v18.3h-2.09v-18.3h2.09Z" fill="#fff"/>
        <path d="M195.21,300.57c.59.41,1.71.73,2.6.73,1.93,0,3.07-1.25,3.07-3.1,0-1.68-.97-2.7-2.41-3.8-1.47-1-3.45-2.72-3.45-5.07,0-2.78,1.93-4.81,4.84-4.81,1.14,0,2.12.35,2.55.68l-.49,1.79c-.46-.33-1.22-.62-2.17-.62-1.82,0-2.66,1.35-2.66,2.6,0,1.82.95,2.53,2.68,3.78,2.21,1.55,3.18,3.24,3.18,5.27,0,2.55-1.44,4.32-3.51,4.92l-.76,1.41c.92.14,1.79.9,1.79,1.93,0,1.55-1.28,2.15-2.47,2.15-.68,0-1.33-.22-1.82-.49l.43-1.15c.41.27.84.42,1.36.42s.98-.2.98-.85c0-.73-.87-1.06-1.87-1.17l.95-2.04h-.22c-1.24,0-2.54-.4-3.07-.78l.47-1.79Z" fill="#fff"/>
        <path d="M207.56,286.55h-3.34v-1.87h8.78v1.87h-3.34v16.43h-2.09v-16.43Z" fill="#fff"/>
        <path d="M214.89,282.04c0-.71.55-1.22,1.23-1.22s1.2.52,1.2,1.22c0,.65-.53,1.2-1.23,1.2-.65,0-1.19-.55-1.19-1.2ZM217.12,284.68v18.3h-2.09v-18.3h2.09Z" fill="#fff"/>
        <path d="M220.46,284.96c.87-.25,1.95-.35,2.99-.35,1.81,0,3.17.38,4.13,1.31.89.92,1.28,2.14,1.28,3.58,0,2.34-1.09,3.86-2.94,4.73v.05c1.36.41,2.06,1.71,2.45,4.09.43,2.5.78,4.05,1.06,4.62h-2.12c-.27-.54-.62-2.28-.98-4.51-.4-2.52-1.19-3.44-2.98-3.44h-.82v7.95h-2.06v-18.03ZM222.52,293.4h.89c1.99,0,3.32-1.47,3.32-3.67s-.87-3.42-3.1-3.44c-.44,0-.84.03-1.11.11v7.01Z" fill="#fff"/>
        <path d="M242.62,295.11c-.14-2.43-.27-5.11-.2-7.18h-.1c-.41,2.05-.9,4.21-1.47,6.36l-2.22,8.58h-1.36l-2.11-8.23c-.62-2.34-1.15-4.59-1.53-6.71h-.08c.03,2.15-.11,4.7-.22,7.3l-.35,7.74h-1.88l1.09-18.3h2.28l2.12,8.37c.62,2.41,1.08,4.21,1.46,6.3h.08c.35-2.09.76-3.83,1.36-6.3l2.06-8.37h2.34l1.06,18.3h-1.95l-.38-7.87Z" fill="#fff"/>
        <path d="M254.49,294.3h-4.59v6.87h5.21v1.82h-7.3v-18.3h6.98v1.82h-4.89v6.03h4.59v1.76Z" fill="#fff"/>
        <path d="M261.71,284.96c.79-.25,1.77-.35,2.8-.35,1.93,0,3.28.49,4.29,1.38,1.41,1.23,2.47,3.59,2.47,7.42,0,4.18-1.03,6.46-2.2,7.74-1.2,1.33-2.94,1.95-5.06,1.95-.84,0-1.7-.05-2.31-.19v-17.95ZM263.78,301.3c.3.06.6.06.79.06,2.31,0,4.54-1.68,4.54-7.91,0-4.62-1.41-7.14-4.34-7.14-.33,0-.71.03-.98.11v14.88Z" fill="#fff"/>
        <path d="M280.45,294.3h-4.59v6.87h5.21v1.82h-7.3v-18.3h6.98v1.82h-4.88v6.03h4.59v1.76Z" fill="#fff"/>
        <path d="M283.42,284.96c.87-.25,1.95-.35,2.98-.35,1.82,0,3.18.38,4.13,1.31.9.92,1.28,2.14,1.28,3.58,0,2.34-1.08,3.86-2.94,4.73v.05c1.37.41,2.06,1.71,2.44,4.09.44,2.5.79,4.05,1.06,4.62h-2.12c-.27-.54-.62-2.28-.97-4.51-.41-2.52-1.2-3.44-2.99-3.44h-.82v7.95h-2.05v-18.03ZM285.47,293.4h.91c1.98,0,3.31-1.47,3.31-3.67s-.87-3.42-3.09-3.44c-.43,0-.84.03-1.12.11v7.01Z" fill="#fff"/>
        <path d="M294.52,302.98v-18.3h1.95l3.37,8.59c.76,1.97,1.71,4.39,2.33,6.37h.06c-.16-2.87-.25-5.24-.25-8.41v-6.55h1.87v18.3h-1.95l-3.48-8.8c-.76-1.85-1.55-3.94-2.2-6.22h-.05c.15,2.44.21,4.78.21,8.69v6.32h-1.87Z" fill="#fff"/>
        <path d="M313.81,294.3h-4.59v6.87h5.21v1.82h-7.31v-18.3h6.98v1.82h-4.89v6.03h4.59v1.76Z" fill="#fff"/>
        <path d="M325.73,302.53c-.76.32-2.09.62-3.23.62-1.61,0-3.09-.44-4.32-1.77-1.33-1.41-2.22-3.93-2.2-7.31.02-7.14,3.67-9.55,6.9-9.55,1.14,0,2.03.21,2.58.51l-.45,1.79c-.5-.24-1.12-.43-2.1-.43-2.28,0-4.75,1.82-4.75,7.49s2.14,7.47,4.34,7.47c.71,0,1.11-.11,1.28-.22v-5.97h-2.36v-1.73h4.31v9.09ZM320.32,281.07c.13.73.76,1.17,1.66,1.17s1.52-.36,1.68-1.17h1.22c0,1.55-1.08,2.6-2.87,2.6s-2.91-.97-2.91-2.6h1.22Z" fill="#fff"/>
        <path d="M328.45,282.04c0-.71.55-1.22,1.22-1.22s1.19.52,1.19,1.22c0,.65-.51,1.2-1.22,1.2-.64,0-1.19-.55-1.19-1.2ZM330.68,284.68v18.3h-2.09v-18.3h2.09Z" fill="#fff"/>
      </g>
      <g>
        <path d="M199.42,187.51h-.02l-1.38.74-.24-1.05,1.8-1h1.17v8.22h-1.33v-6.92Z" fill="#fff"/>
        <path d="M203.17,193.39c.26,0,.43-.02.68-.06.37-.09.75-.28,1.04-.57.4-.4.73-1.08.87-1.97h-.03c-.27.34-.69.6-1.24.6-1.05,0-1.87-.95-1.87-2.46s.84-2.83,2.28-2.83,2.21,1.44,2.21,3.34c0,1.76-.51,3.05-1.23,3.89-.5.59-1.21,1-1.98,1.14-.25.06-.49.06-.71.06v-1.14ZM204.79,187.1c-.44,0-.86.55-.86,1.73.01.98.34,1.6.92,1.6.34,0,.66-.24.81-.55.06-.16.08-.31.08-.72,0-1.38-.39-2.05-.93-2.05h-.01Z" fill="#fff"/>
        <path d="M210.38,194.43v-2.1h-2.78v-.92l2.68-5.2h1.3v5.03h.85v1.08h-.85v2.1h-1.2ZM210.38,191.24v-1.97c0-.49.03-.98.08-1.47h-.04c-.22.54-.4.92-.63,1.4l-1,2.01v.03h1.59Z" fill="#fff"/>
        <path d="M217.01,187.38h-2.2l-.25,1.8c.08-.01.18-.01.28-.01.39.01,1.09.19,1.55.62.44.43.69,1.05.69,1.89,0,1.62-1.04,2.86-2.69,2.86-.55,0-1.14-.14-1.48-.35l.23-1.08c.28.15.73.31,1.17.31.82,0,1.44-.56,1.44-1.62,0-1.21-.81-1.65-1.82-1.65-.25,0-.44.01-.6.04l.48-3.98h3.19v1.17Z" fill="#fff"/>
      </g>
      <g>
        <path d="M196.88,94.96s-11.56,12.82,4.06,19.26c.18-5.12,4.45-10.42,8.4-9.97,0,0-2.8,4.61-2.35,8.5.34,1.56,1.33,1.96,5.48,1.54,4.15-.41,7.97-3.58,9.29-8.9,1.32-5.32-1.54-10.66-4.26-12.63,1.69,5.42,1.3,12.71-5.29,14.5,2.02-4.48,4.01-10.03.54-16.24-3.48-6.2-4.39-8.42-2.84-12.49-3.66,2.21-16.99,11.91-8.09,26.46-2.06-.1-6.18-1.6-4.95-10.01Z" fill="#fff"/>
        <path d="M207.08,106.07s-2.59.4-4.08,4.78c-.52,1.69-.71,3.23,1.12,3.2,1.81-.03,1.97-1.1,1.81-3.7-.15-2.61,1.15-4.28,1.15-4.28Z" fill="#fff"/>
      </g>
      <path d="M205.25,153.14c0,.41,0,.81,0,1.22v.27h-.18v-.23c0-.46,0-.93,0-1.4,0-.16,0-.32,0-.48v-.15c-.12-.12-.25-.24-.38-.36h0s-.01-.2-.01-.2h0c.18.14.36.3.53.46.02,0,.02.05.02.07,0,.06,0,.12,0,.17,0,.21,0,.42,0,.62Z" fill="#fff"/>
      <path d="M210.21,151v.09c-.2.12-.39.25-.57.38-.09.06-.17.12-.26.19-.27.21-.54.43-.78.67,0,.07,0,.13,0,.2,0,.17,0,.34,0,.51,0,.45,0,.91,0,1.36,0,.08,0,.16,0,.24h-.05c0-.08,0-.17,0-.25,0-.44,0-.88,0-1.32,0-.18,0-.36,0-.54,0-.07,0-.13,0-.2v-.02c.26-.26.53-.5.82-.72,0,0,.02-.01.03-.02.25-.2.52-.38.79-.56Z" fill="#fff"/>
      <path d="M206.86,151.7h0s-.05-.07-.08-.1l-.18-.21c-.12-.14-.26-.27-.39-.4h0s-.02-.02-.02-.02c0,0-.01-.01-.02-.02-.21-.19-.44-.37-.67-.55-.04-.03-.08-.06-.12-.09-.16-.12-.33-.24-.5-.36-.11-.08-.22-.15-.34-.22v-.07s0-.05,0-.05h0s-1.71-22.76-1.71-22.76h-2.24l-2.48-4.15-4.14-.46v-5.07h26.97v5.07l-4.14.46-2.48,4.15h-2.25l-1.67,22.05v.03s0,.05,0,.05v.06c-.11.06-.23.12-.34.18-.08.05-.17.09-.25.14-.45.26-.89.53-1.31.84-.06.05-.12.09-.18.14-.11.08-.21.17-.31.25-.07.06-.14.12-.21.18-.09.08-.17.16-.25.24-.06.06-.12.11-.17.17-.08.08-.16.17-.24.26-.07.08-.15.17-.22.26h0s-.02,0-.02,0" fill="#fff"/>
      <g>
        <g>
          <path d="M249.87,100.13h-8.77c-.31,2.38,2.09,3.26,2.09,3.26h13.36s2.4-.89,2.09-3.26h-8.77Z" fill="#fff"/>
          <path d="M249.87,104.42h-6.86c-.25,1.86,1.63,2.55,1.63,2.55h10.47s1.88-.7,1.64-2.55h-6.87Z" fill="#fff"/>
          <rect x="245.62" y="108" width="8.5" height="90.65" fill="#fff"/>
        </g>
        <g>
          <path d="M283.15,100.13h-8.77c-.31,2.38,2.09,3.26,2.09,3.26h13.36s2.4-.89,2.09-3.26h-8.77Z" fill="#fff"/>
          <path d="M283.15,104.42h-6.87c-.24,1.86,1.64,2.55,1.64,2.55h10.46s1.88-.7,1.63-2.55h-6.86Z" fill="#fff"/>
          <rect x="278.89" y="108" width="8.5" height="90.65" fill="#fff"/>
        </g>
        <g>
          <path d="M131.71,100.13h-8.77c-.31,2.38,2.08,3.26,2.08,3.26h13.38s2.38-.89,2.08-3.26h-8.77Z" fill="#fff"/>
          <path d="M131.71,104.42h-6.87c-.25,1.86,1.63,2.55,1.63,2.55h10.46s1.88-.7,1.63-2.55h-6.86Z" fill="#fff"/>
          <rect x="127.45" y="108" width="8.5" height="90.65" fill="#fff"/>
        </g>
        <g>
          <path d="M164.42,100.13h-8.77c-.31,2.38,2.09,3.26,2.09,3.26h13.37s2.4-.89,2.09-3.26h-8.77Z" fill="#fff"/>
          <path d="M164.42,104.42h-6.87c-.24,1.86,1.64,2.55,1.64,2.55h10.46s1.88-.7,1.64-2.55h-6.86Z" fill="#fff"/>
          <rect x="160.17" y="108" width="8.5" height="90.65" fill="#fff"/>
        </g>
      </g>
      <g>
        <path d="M138.59,77.08l1.74-3.8,7.34,3.36.03-.08c-.62-.55-1.25-1.12-1.9-1.74l-4.27-4.17,1.92-4.2,5.7,6.95,11.02.68-1.92,4.18-7.34-.94.96,1.24,5.16,2.37-1.74,3.8-16.71-7.66Z" fill="#fff"/>
        <path d="M158.54,62.37l-2.15,3.37,3.49,2.23,2.42-3.78,3.08,1.97-4.68,7.33-15.48-9.91,4.51-7.07,3.09,1.97-2.26,3.52,2.9,1.85,2.16-3.37,2.94,1.88Z" fill="#fff"/>
        <path d="M163.05,62.28c.85-.31,1.93-1.14,2.61-1.94,1.03-1.2.96-2.2.25-2.81-.87-.74-1.76-.5-3.52.08-3.28,1.09-5.12.14-6.15-.75-2.29-1.98-3-5.17-.23-8.38.82-.95,1.85-1.64,2.47-1.86l2.35,2.82c-.6.2-1.34.59-2.03,1.4-.93,1.08-.81,2.07-.17,2.62.59.52,1.24.57,3.48-.23,2.72-.98,4.73-.36,6.16.87,2.63,2.27,2.67,5.73.15,8.64-1.03,1.2-2.26,2.08-2.95,2.34l-2.41-2.8Z" fill="#fff"/>
        <path d="M165.63,44.64l-2.45,2.03-2.52-3.01,8.14-6.79,2.52,3.01-2.46,2.06,9.26,11.11-3.24,2.7-9.25-11.1Z" fill="#fff"/>
        <path d="M181.76,46.18l1.22,3.47-3.55,1.99-5.57-17.94,4.47-2.49,11.88,14.42-3.57,1.99-2.28-2.88-2.59,1.44ZM182.49,42.07l-2.11-2.83c-.62-.84-1.81-2.46-2.51-3.37l-.05.02c.4,1.09,1.15,3.02,1.49,3.95l1.22,3.31,1.95-1.08Z" fill="#fff"/>
        <path d="M190.88,45.35l-4.53-17.81,3.72-.95,4.12,5.76c.74,1.02,2.15,3.05,2.94,4.32h.06c-.47-1.44-1.65-4.83-2.49-8.19l-.74-2.88,3.56-.9,4.53,17.82-3.72.94-3.92-5.39c-.9-1.23-2.31-3.39-2.97-4.62h-.05c.47,1.53,1.39,4.45,2.27,7.94l.78,3.07-3.55.9Z" fill="#fff"/>
        <path d="M212.3,34.86l-4-.09-.09,4.15,4.49.1-.08,3.65-8.7-.18.41-18.38,8.39.18-.08,3.65-4.19-.09-.07,3.44,3.99.08-.07,3.49Z" fill="#fff"/>
        <path d="M218.77,25.3c1.1.07,2.59.32,3.97.69,2.23.59,3.86,1.31,4.83,2.79.87,1.28.93,2.93.54,4.41-.55,2.05-1.59,3.35-2.9,4.11-1.45.8-3.42.78-4.78.41-.19-.05-.4-.11-.61-.16l-1.69,6.32-4.04-1.08,4.67-17.49ZM220.71,34.25c.15.07.31.11.47.16,1.62.43,2.47-.64,2.81-1.93.39-1.42.09-2.63-1.22-2.98-.26-.07-.57-.1-.76-.07l-1.3,4.82Z" fill="#fff"/>
        <path d="M229.34,44.14l-2.26,2.9-3.59-1.92,12.07-14.4,4.51,2.41-5.7,17.8-3.59-1.92,1.18-3.48-2.62-1.39ZM233.2,42.5l1.24-3.29c.36-.98,1.08-2.86,1.48-3.94l-.04-.02c-.71.92-1.91,2.6-2.52,3.39l-2.12,2.82,1.97,1.04Z" fill="#fff"/>
        <path d="M236.23,49.37l12.12-5.67.05-.07-3.86-3.26,2.37-2.81,7.47,6.31-2.04,2.41-11.42,5.35-.06.06,4.01,3.39-2.37,2.81-7.86-6.65,1.59-1.87Z" fill="#fff"/>
        <path d="M248.29,59.07l-3.19,1.84-2.61-3.13,16.62-8.78,3.27,3.93-12,14.34-2.6-3.13,2.4-2.78-1.89-2.28ZM252.47,59.02l2.39-2.59c.71-.77,2.09-2.23,2.86-3.09l-.04-.04c-1,.58-2.75,1.69-3.6,2.19l-3.03,1.81,1.42,1.72Z" fill="#fff"/>
        <path d="M266.6,59.09c.81.95,1.7,2.22,2.47,3.51,1.01,1.74,1.77,3.53,1.43,5.21-.31,1.57-1.2,2.47-2.62,3.3-1.55.91-3.6,1.07-5.3-.1l-.04.03c.13,1.31-.51,2.38-1.9,3.57-1.41,1.2-3.37,2.98-3.81,3.64l-2.22-3.8c.31-.43,1.74-1.77,3.29-2.96,1.74-1.34,1.94-2.02,1.47-2.82l-.21-.35-6.07,3.55-2.12-3.61,15.63-9.15ZM261.96,66.66l.27.47c.69,1.18,2.04,1.17,3.2.49,1.15-.67,1.76-1.63,1.15-2.78-.14-.23-.33-.5-.48-.6l-4.15,2.42Z" fill="#fff"/>
        <path d="M275.75,76.09l-16.84,7.38-1.69-3.87,16.83-7.37,1.69,3.86Z" fill="#fff"/>
      </g>
      <path d="M93.4,198.66c9.5-.29,19.01-.41,28.51-.61l28.5-.35c19-.23,38-.26,57.01-.3,19.01.03,38,.07,57.01.29l28.51.36c9.5.21,19,.33,28.51.61-9.51.28-19.01.4-28.51.61l-28.51.35c-19.01.23-38.01.25-57.01.29-19.01-.03-38.01-.06-57.01-.29l-28.5-.36c-9.5-.21-19.01-.33-28.51-.61Z" fill="#fff"/>
      <polygon points="0 272.78 51.85 272.28 103.71 272 207.42 271.77 311.14 272 362.99 272.28 414.85 272.78 362.99 273.27 311.14 273.55 207.42 273.78 103.71 273.54 51.85 273.26 0 272.78" fill="#fff"/>
      <path d="M410.25,217.31c0,2.78-2.22,5.03-5.04,5.03s-5.03-2.25-5.03-5.03,2.23-5.02,5.06-5.02,5.01,2.21,5.01,5.02ZM401.4,217.31c0,2.2,1.64,3.97,3.85,3.97,2.16.02,3.79-1.77,3.79-3.95s-1.63-4.01-3.84-4.01-3.8,1.8-3.8,3.99ZM404.41,219.91h-1.05v-5.01c.41-.06,1.02-.16,1.8-.16.9,0,1.31.16,1.67.42.28.18.51.57.51,1.06,0,.56-.5.99-1.06,1.18v.06c.52.15.73.55.9,1.23.16.73.24,1.06.38,1.22h-1.14c-.17-.19-.25-.61-.39-1.22-.09-.52-.42-.77-1.06-.77h-.56v1.98ZM404.44,217.08h.56c.65,0,1.16-.2,1.16-.71,0-.48-.29-.76-1.07-.76-.29,0-.5.02-.65.07v1.41Z" fill="#fff"/>
      <g>
        <path d="M173.98,189.09v-.14c-.09-.91.92-2.84.96-2.92.46-1.29,5.44-3.65,5.65-3.75,1.3-.67,2.18-2.32,2.19-2.34.37-.79,1.17-1.12,1.21-1.13,1.13-.42,1.47-.77,1.48-.77,2.08-2.01,2.3-3.03,2.24-3.45-.03-.23-.15-.35-.2-.4l-1.97.77c-.54.24-1.24-.64-1.44-.93l-4.62,2.26h-.04c-.7-.2-1.18-.52-1.43-.96-.29-.52-.16-1.01-.15-1.03l.61-2.21,7.63-4.08,17.79,7.88-29.89,13.18ZM187.52,173.97l.04.02s.29.15.35.57c.08.57-.25,1.66-2.29,3.64-.01.01-.36.38-1.55.82,0,0-.76.31-1.1,1.03-.04.07-.92,1.72-2.28,2.43-.05.03-5.12,2.43-5.55,3.65-.01.03-.92,1.76-.96,2.67l29.2-12.88-17.27-7.65-7.47,4-.59,2.12s-.12.44.14.88c.22.38.65.67,1.27.84l4.71-2.31.05.07c.21.31.85,1.1,1.25.93l2.07-.81Z" fill="#fff"/>
        <path d="M203.62,175.91l-29.55,13.03c-.07-.89.96-2.86.96-2.86.46-1.27,5.6-3.7,5.6-3.7,1.35-.7,2.24-2.38,2.24-2.38.36-.77,1.15-1.08,1.15-1.08,1.18-.43,1.51-.79,1.51-.79,3.41-3.29,1.97-4.04,1.97-4.04l-2.02.79c-.55.24-1.37-.96-1.37-.96l-4.66,2.28c-1.9-.5-1.51-1.85-1.51-1.85l.6-2.16,7.55-4.04,17.53,7.77Z" fill="#fff"/>
        <path d="M239.72,189.02l-29.91-13.18,17.83-7.88,7.63,4.08.61,2.21s.34,1.45-1.61,1.98h-.04s-4.64-2.25-4.64-2.25c-.2.28-.89,1.16-1.42.92l-1.96-.79c-.06.05-.18.18-.21.43-.07.53.27,1.57,2.21,3.45,0,0,.37.35,1.5.77.04.01.84.34,1.21,1.16,0,.01.89,1.63,2.19,2.31.21.1,5.21,2.48,5.65,3.76.04.07,1.06,2,.97,2.91v.14ZM210.32,175.84l29.22,12.88c-.02-.9-.95-2.64-.96-2.66-.42-1.21-5.5-3.63-5.56-3.66-1.36-.71-2.25-2.33-2.28-2.4-.34-.75-1.09-1.06-1.1-1.06-1.18-.43-1.56-.8-1.57-.82-2.02-1.95-2.35-3.05-2.27-3.63.06-.43.34-.59.35-.6l.04-.02,2.06.84c.37.17,1.02-.63,1.22-.92l.05-.07,4.73,2.31c1.71-.48,1.44-1.67,1.43-1.72l-.59-2.12-7.47-4-17.32,7.65Z" fill="#fff"/>
        <path d="M239.64,188.87l-29.57-13.03,17.58-7.77,7.55,4.04.6,2.16s.34,1.35-1.54,1.85l-4.69-2.28s-.82,1.2-1.35.96l-2.02-.82s-1.44.79,1.95,4.06c0,0,.36.36,1.54.79,0,0,.79.31,1.15,1.11,0,0,.89,1.66,2.24,2.36,0,0,5.17,2.45,5.6,3.7,0,0,1.06,1.97.96,2.86Z" fill="#fff"/>
        <g>
          <path d="M206.79,171.77s0,0,0,0c-.06-.09-.12-.17-.19-.26-.06-.09-.13-.17-.19-.25-.06-.08-.13-.16-.2-.24,0,0,0-.01-.01-.01-.06-.07-.12-.15-.19-.22,0-.01-.02-.02-.03-.03-.06-.07-.13-.14-.19-.21-.07-.08-.15-.15-.22-.23-.21-.21-.43-.41-.66-.61-.08-.07-.16-.14-.25-.21-.05-.04-.1-.09-.16-.13-.04-.03-.08-.07-.12-.1-.08-.07-.17-.13-.25-.19-.17-.12-.33-.25-.5-.36-.09-.06-.17-.12-.26-.18-.09-.06-.18-.12-.28-.19-1.44-.94-3.03-1.66-4.66-2.24-1.61-.62-3.32-.94-4.98-1.49-1.66-.53-3.29-1.15-4.76-2.16-.7-.48-1.4-1.08-1.83-1.85-.21-.41-.38-.87-.26-1.32l.15-1.27.53-5.19.71-6.51.04.02.06.03-.65,6.45-.53,5.19c-.02.87-.38,1.76.12,2.5.41.74,1.08,1.32,1.78,1.8,1.42.96,3.05,1.61,4.69,2.14,1.66.51,3.37.87,5,1.52,1.61.6,3.22,1.37,4.64,2.33,1.31.85,2.54,1.88,3.45,3.15.02.03.04.06.07.09.01.02.03.04.04.06.03.05.07.1.1.15,0,0,0,0,0,.01Z" fill="#fff"/>
          <path d="M227.43,160.84c-.49.78-1.2,1.36-1.93,1.86-1.51,1-3.18,1.62-4.88,2.16-1.71.51-3.43.88-5.11,1.49-1.66.59-3.28,1.33-4.77,2.27-1.48.96-2.91,2.08-3.85,3.58h-.03c-.97-1.5-2.39-2.63-3.86-3.59-1.5-.95-3.12-1.69-4.79-2.29-.83-.29-1.67-.55-2.52-.77-.85-.23-1.73-.44-2.57-.69-1.7-.55-3.38-1.16-4.88-2.16-.74-.5-1.45-1.08-1.93-1.86-.23-.38-.43-.83-.37-1.32l.14-1.31.57-5.28.76-6.91.05.03.04.02-.71,6.89-.53,5.28-.13,1.3c-.07.43.11.84.33,1.22.46.73,1.16,1.31,1.88,1.8,1.46.97,3.16,1.59,4.83,2.12,1.69.5,3.43.89,5.11,1.53,1.66.61,3.26,1.37,4.76,2.36,1.47.97,2.86,2.11,3.84,3.61,0,0,0,0,0,0,.03-.05.07-.1.1-.15.01-.02.03-.05.05-.07.05-.07.09-.14.14-.2,0,0,0,0,0,0,.04-.06.09-.12.13-.18.92-1.21,2.13-2.18,3.38-3.03,1.49-.97,3.1-1.73,4.77-2.35.84-.32,1.67-.58,2.56-.82.84-.23,1.71-.44,2.55-.7,1.69-.53,3.35-1.16,4.84-2.12.72-.5,1.42-1.07,1.86-1.8.23-.38.4-.79.35-1.2l-.15-1.31-.52-5.28c-.23-2.31-.45-4.61-.69-6.9l.04-.02.04-.02c.24,2.31.49,4.61.74,6.92l.57,5.28.14,1.31c.09.5-.12.94-.34,1.32Z" fill="#fff"/>
          <path d="M228.48,159.97c-.04.48-.27.91-.53,1.27-.54.75-1.29,1.31-2.04,1.79-1.56.94-3.29,1.55-5.01,2.07-1.72.5-3.48.85-5.18,1.46-1.69.59-3.34,1.32-4.86,2.26-1.51.94-2.96,2.07-3.96,3.56-.01,0-.01,0-.02,0h0s0,0,0,0h0s0,0,0,0h0c-1-1.51-2.48-2.63-3.97-3.57-1.54-.94-3.19-1.69-4.88-2.26-.84-.3-1.71-.56-2.57-.79-.88-.22-1.77-.42-2.62-.67-1.72-.52-3.43-1.13-4.99-2.07-.75-.48-1.49-1.04-2.05-1.78-.26-.37-.49-.8-.52-1.28.04-.49.1-.9.14-1.34l.59-5.38.86-7.54.04.02.05.02-.79,7.51-.56,5.36c-.06.44-.12.91-.13,1.34.02.42.23.82.48,1.18.53.71,1.25,1.26,2.01,1.72,1.54.92,3.23,1.53,4.95,2.03,1.72.51,3.49.87,5.18,1.51,1.7.61,3.33,1.37,4.86,2.34,1.49.96,2.95,2.11,3.95,3.61h0c.99-1.5,2.42-2.65,3.92-3.61,1.53-.97,3.17-1.73,4.87-2.35.84-.3,1.7-.59,2.58-.81.88-.22,1.74-.42,2.62-.69,1.71-.5,3.41-1.11,4.94-2.03.75-.46,1.48-1.01,1.99-1.72.26-.36.48-.76.51-1.18-.03-.43-.09-.89-.15-1.34l-.53-5.36c-.27-2.51-.53-5.02-.81-7.52l.05-.03.03-.02c.27,2.52.55,5.03.83,7.55l.62,5.36c.04.45.1.86.14,1.35Z" fill="#fff"/>
          <path d="M238.48,190.7h-.02s-31.43-13.29-31.43-13.29l-31.47,13.29h-.02c-.57-.02-.94-.18-1.12-.47-.23-.39-.02-.85,0-.87l.02-.03.03-.02,27.64-11.99,3.05-1.37-25.79-11.61v-.07s2.21-19.99,2.21-19.99l1.45-.75,2.82,1.52v.07s-1.54,16.82-1.54,16.82l20.73,9.06c.26.13.42.37.42.66,0,.77.64,1.4,1.42,1.4s1.4-.63,1.4-1.4c0-.28.16-.53.42-.66l20.76-9.06-1.57-16.88,2.83-1.52,1.45.75,2.21,20.06-25.67,11.55,2.53,1.06,28.42,12.34.02.03s.23.49-.01.88c-.18.3-.56.46-1.14.48h-.02ZM174.58,189.48c-.04.1-.13.4.01.64.14.22.45.35.93.37l31.51-13.3,31.49,13.3c.49-.02.81-.15.95-.38.15-.25.06-.55.02-.66l-28.34-12.3-2.96-1.25,25.96-11.68-2.18-19.81-1.26-.65-2.62,1.41,1.57,16.89-20.89,9.11c-.18.09-.3.27-.3.47,0,.88-.72,1.6-1.6,1.6s-1.62-.72-1.62-1.6c0-.21-.11-.39-.3-.48l-20.87-9.11v-.07s1.54-16.82,1.54-16.82l-2.61-1.4-1.26.65-2.18,19.81,26.07,11.73-3.46,1.56-27.6,11.97Z" fill="#fff"/>
          <path d="M195.94,146.59s0,0,0,0l-.4-.17-.4-.18s0,0,0,0h-.03s0-.01,0-.02l-6.07-2.64-.1-.05-.08-.03c.05.06.1.11.15.17.29.31.68.58,1.04.79.34.21.7.41,1.06.58,0,0,0,0,.01,0,.44.21.89.39,1.33.55.01,0,.03.01.04.01,1,.37,2.02.64,3.04.89h.02c.14.04.27.07.41.1h0ZM205.23,152.52c0-.06,0-.12,0-.17,0-.02,0-.07-.02-.07-.17-.16-.34-.32-.52-.46-.89-.75-1.9-1.32-2.95-1.82-1.27-.55-2.57-.99-3.92-1.35-.16-.04-.31-.08-.47-.11l.52.23h.02c1.29.34,2.58.79,3.8,1.35.77.36,1.52.78,2.21,1.27,0,0,0,0,0,0h.03s.39.18.39.18c0,.05.02.1.03.15,0,0,0,0,0,.01.12.09.23.19.34.29.13.11.26.23.38.36v.15c0,.16,0,.32,0,.48h.01c.04.06.09.1.14.14,0-.21,0-.42,0-.62ZM209.39,151.58c-.29.23-.56.46-.82.72v.02c0,.07,0,.13,0,.2,0,.18,0,.36,0,.54.01,0,.02-.02.03-.03,0-.17,0-.34,0-.51,0-.07,0-.13,0-.2.25-.24.51-.47.78-.67,0-.02.01-.05.01-.07ZM215.88,148.62c-1.32.38-2.62.82-3.89,1.39-.61.29-1.21.62-1.78.98-.27.17-.54.36-.79.56l.22-.09c.18-.13.37-.26.57-.38.59-.37,1.21-.68,1.86-.97,1.18-.56,2.46-.98,3.73-1.33l.74-.32c-.21.05-.43.11-.64.16ZM215.88,148.62c-1.32.38-2.62.82-3.89,1.39-.61.29-1.21.62-1.78.98-.27.17-.54.36-.79.56l.22-.09c.18-.13.37-.26.57-.38.59-.37,1.21-.68,1.86-.97,1.18-.56,2.46-.98,3.73-1.33l.74-.32c-.21.05-.43.11-.64.16ZM215.88,148.62c-1.32.38-2.62.82-3.89,1.39-.61.29-1.21.62-1.78.98-.27.17-.54.36-.79.56l.22-.09c.18-.13.37-.26.57-.38.59-.37,1.21-.68,1.86-.97,1.18-.56,2.46-.98,3.73-1.33l.74-.32c-.21.05-.43.11-.64.16ZM209.39,151.58c-.29.23-.56.46-.82.72v.02c0,.07,0,.13,0,.2,0,.18,0,.36,0,.54.01,0,.02-.02.03-.03,0-.17,0-.34,0-.51,0-.07,0-.13,0-.2.25-.24.51-.47.78-.67,0-.02.01-.05.01-.07ZM215.88,148.62c-1.32.38-2.62.82-3.89,1.39-.61.29-1.21.62-1.78.98-.27.17-.54.36-.79.56l.22-.09c.18-.13.37-.26.57-.38.59-.37,1.21-.68,1.86-.97,1.18-.56,2.46-.98,3.73-1.33l.74-.32c-.21.05-.43.11-.64.16ZM225.49,144.03s0-.05,0-.08c0-.02,0-.03,0-.05-.02-.16-.03-.32-.05-.47.07-.08.14-.17.2-.26l-.09.04h0s-.13.06-.13.06h0s-.02.01-.02.01l-.05.02s0,.03,0,.04c0,.03,0,.06.01.09,0,.02,0,.05,0,.07.02.14.03.28.05.43,0,.02,0,.05,0,.08,0,.02,0,.05,0,.08,0,.02,0,.04,0,.06.02.14.03.28.04.42l.04-.02h.03c-.01-.16-.03-.3-.04-.45,0-.02,0-.04,0-.06ZM230.79,162.34l-1.65-17.85-.18-1.91c0-.21-.12-.37-.29-.48-.15-.08-.36-.1-.54-.02l-1.55.68-.04.02h-.02s-.04.03-.04.03l-.08.03h0l-.39.17-.04.02-.04.02c.02.16.03.31.05.47,0,.03,0,.06.01.08,0,.02,0,.05,0,.07h0s0,.01-.01.01h.01c.02.2.04.42.07.63l.04-.02.04-.02c-.02-.21-.05-.42-.07-.63,0-.02,0-.04,0-.06.18-.2.34-.43.43-.69.02.18.04.36.06.54.03.21.05.42.07.63l.06-.02h.03s1.12-.5,1.12-.5l.15,1.58,1.57,16.89-20.82,9.08c-.22.11-.36.32-.36.57,0,.82-.67,1.5-1.5,1.5s-1.52-.68-1.52-1.5c0-.25-.13-.46-.36-.57l-20.8-9.08,1.54-16.89.14-1.58,1.16.5h.03s.04.03.04.03l.07-.64.07-.63c.08.29.25.54.44.76v.08s-.08.64-.08.64l.04.02.04.02.07-.64v-.03s.01-.06.01-.06v-.05s.06-.49.06-.49l-.04-.02-.03-.02-.43-.19-.04-.02h-.03s0-.01,0-.01h-.03s-.03-.03-.03-.03l-1.58-.69c-.18-.08-.39-.07-.55.02-.18.11-.28.27-.29.48l-.18,1.91-1.66,17.85c-.01.26.13.5.38.6l20.88,9.12c.21,1.31,1.33,2.31,2.7,2.31s2.49-1,2.68-2.31l20.89-9.12c.24-.1.39-.35.36-.6ZM224.81,143.52l-.18.08h0l-5.98,2.61s0,0,0,0c0,0,0,0,0,0l-.45.2s0,0,0,0h-.03s-.4.18-.4.18c0,0,.01,0,.01,0,1.19-.27,2.37-.57,3.5-.98.12-.04.23-.09.35-.13,0,0,0,0,.01,0,.53-.2,1.06-.43,1.56-.7.17-.09.35-.19.52-.3.38-.22.72-.51,1.06-.82.05-.06.1-.12.15-.18l-.09.04ZM215.88,148.62c-1.32.38-2.62.82-3.89,1.39-.61.29-1.21.62-1.78.98-.27.17-.54.36-.79.56l.22-.09c.18-.13.37-.26.57-.38.59-.37,1.21-.68,1.86-.97,1.18-.56,2.46-.98,3.73-1.33l.74-.32c-.21.05-.43.11-.64.16ZM209.39,151.58c-.29.23-.56.46-.82.72v.02c0,.07,0,.13,0,.2,0,.18,0,.36,0,.54.01,0,.02-.02.03-.03,0-.17,0-.34,0-.51,0-.07,0-.13,0-.2.25-.24.51-.47.78-.67,0-.02.01-.05.01-.07ZM215.88,148.62c-1.32.38-2.62.82-3.89,1.39-.61.29-1.21.62-1.78.98-.27.17-.54.36-.79.56l.22-.09c.18-.13.37-.26.57-.38.59-.37,1.21-.68,1.86-.97,1.18-.56,2.46-.98,3.73-1.33l.74-.32c-.21.05-.43.11-.64.16ZM209.39,151.58c-.29.23-.56.46-.82.72v.02c0,.07,0,.13,0,.2,0,.18,0,.36,0,.54.01,0,.02-.02.03-.03,0-.17,0-.34,0-.51,0-.07,0-.13,0-.2.25-.24.51-.47.78-.67,0-.02.01-.05.01-.07ZM215.88,148.62c-1.32.38-2.62.82-3.89,1.39-.61.29-1.21.62-1.78.98-.27.17-.54.36-.79.56l.22-.09c.18-.13.37-.26.57-.38.59-.37,1.21-.68,1.86-.97,1.18-.56,2.46-.98,3.73-1.33l.74-.32c-.21.05-.43.11-.64.16ZM215.88,148.62c-1.32.38-2.62.82-3.89,1.39-.61.29-1.21.62-1.78.98-.27.17-.54.36-.79.56l.22-.09c.18-.13.37-.26.57-.38.59-.37,1.21-.68,1.86-.97,1.18-.56,2.46-.98,3.73-1.33l.74-.32c-.21.05-.43.11-.64.16ZM209.39,151.58c-.29.23-.56.46-.82.72v.02c0,.07,0,.13,0,.2,0,.18,0,.36,0,.54.01,0,.02-.02.03-.03,0-.17,0-.34,0-.51,0-.07,0-.13,0-.2.25-.24.51-.47.78-.67,0-.02.01-.05.01-.07ZM188.34,143.28l-.06-.02-.09-.04-.07-.03c.05.07.11.15.17.21h0s-.06.5-.06.5v.07s-.01.05-.01.05v.06s-.06.46-.06.46h.03s.06.04.06.04l.04-.44v-.06s.01-.05.01-.05v-.1s.06-.45.06-.45h0s0-.05,0-.05v-.06s.01-.07.01-.07l-.06-.02Z" fill="#fff"/>
          <path d="M188.32,144.04v.05s-.01.06-.01.06c-.02-.01-.04-.03-.06-.04-.01,0-.02-.02-.03-.03v-.06s.01-.05.01-.05c.01,0,.02.02.03.02.02.01.03.03.05.04Z" fill="#fff"/>
          <path d="M206.89,172.37s-.01,0-.02,0h0s0,0,0,0h0s0,0,0,0c-1-1.5-2.48-2.62-3.97-3.56-1.54-.94-3.19-1.69-4.88-2.26-.84-.3-1.71-.56-2.57-.79-.88-.22-1.77-.42-2.62-.67-1.72-.52-3.43-1.13-4.99-2.07-.75-.48-1.49-1.04-2.05-1.78-.26-.37-.49-.8-.52-1.28.04-.49.1-.9.14-1.34l.59-5.38.86-7.54.19-1.67.07-.64.07-.63.03-.24s.01-.03.03-.03c.02,0,.04.02.04.03v.02s0,0,0,0c0,.09.02.19.05.28.07.23.21.44.38.63,0,.01.02.03.03.04.01.01.02.03.04.04v.05s-.01.06-.01.06c-.01-.01-.02-.03-.04-.04-.01-.01-.02-.03-.04-.04-.19-.22-.37-.47-.44-.76l-.07.63-.07.64-.18,1.69-.79,7.51-.56,5.36c-.06.44-.12.91-.13,1.34.02.42.23.82.48,1.18.53.71,1.25,1.26,2.01,1.72,1.54.92,3.23,1.53,4.95,2.03,1.72.51,3.49.87,5.18,1.51,1.7.61,3.33,1.37,4.86,2.34,1.49.96,2.95,2.11,3.95,3.61h0s0,.01,0,.01c0,0,0,.01.01.02Z" fill="#fff"/>
          <path d="M226.87,160.62c-.46.77-1.13,1.37-1.85,1.85-1.47,1.01-3.08,1.63-4.74,2.16-1.68.53-3.37.89-5,1.49-1.61.58-3.22,1.32-4.64,2.24-1.44.94-2.84,2.09-3.75,3.53-.01.01-.02.02-.02.02v-.04s0,0,.01,0c.01-.02.03-.05.04-.07.02-.03.03-.05.05-.08.03-.05.07-.11.11-.16.05-.07.1-.14.15-.21.03-.04.06-.08.09-.12.03-.04.07-.09.11-.14.87-1.1,1.97-2.03,3.14-2.81,1.47-.94,3.03-1.71,4.66-2.33,1.61-.65,3.34-.99,5-1.49,1.63-.53,3.25-1.18,4.69-2.14.7-.48,1.37-1.06,1.76-1.8.51-.75.17-1.64.15-2.5l-.51-5.19c-.24-2.15-.44-4.31-.66-6.47-.06-.6-.12-1.2-.19-1.8-.01-.14-.03-.28-.04-.42,0-.02,0-.04,0-.06.01-.01.03-.02.04-.03.01,0,.02-.01.03-.02,0,.02,0,.04,0,.06.01.15.03.29.04.44.06.6.12,1.2.19,1.8.09.88.18,1.76.28,2.64.04.43.09.86.13,1.29.03.32.07.63.1.95.06.54.11,1.08.17,1.63l.58,5.19.14,1.27c.1.46-.07.91-.26,1.32Z" fill="#fff"/>
          <path d="M219.07,165.47c-8.02,1.95-11.13,5.41-11.96,6.54-.04.06-.08.12-.12.18-.06.09-.1.15-.11.17,0,.01-.01.02-.01.02v-.03h0c.99-1.5,2.42-2.65,3.92-3.61,1.53-.97,3.17-1.73,4.87-2.35.84-.3,1.7-.59,2.58-.81.88-.22,1.74-.42,2.62-.69,1.71-.5,3.41-1.11,4.94-2.03.75-.46,1.48-1.01,1.99-1.72.26-.36.48-.76.51-1.18-.03-.43-.09-.89-.15-1.34l-.53-5.36c-.27-2.51-.53-5.02-.81-7.52-.06-.56-.12-1.12-.19-1.69-.02-.21-.04-.42-.07-.63-.02-.18-.04-.36-.06-.54-.09.26-.25.48-.43.69,0,.02,0,.04,0,.06.02.21.04.42.07.63.06.58.12,1.16.18,1.74.24,2.31.49,4.61.74,6.92l.57,5.28.14,1.31c.09.5-.12.94-.34,1.32-.49.78-1.2,1.36-1.93,1.86-1.51,1-3.18,1.62-4.88,2.16-1.71.51-3.43.88-5.11,1.49-1.66.59-3.28,1.33-4.77,2.27-1.48.96-2.91,2.08-3.85,3.58h-.02v-.04s0,0,0,0c.03-.05.07-.1.1-.15.01-.02.03-.05.05-.07.05-.07.09-.14.14-.2,0,0,0,0,0,0,.04-.06.09-.12.13-.18.92-1.21,2.13-2.18,3.38-3.03,1.49-.97,3.1-1.73,4.77-2.35.84-.32,1.67-.58,2.56-.82.84-.23,1.71-.44,2.55-.7,1.69-.53,3.35-1.16,4.84-2.12.72-.5,1.42-1.07,1.86-1.8.23-.38.4-.79.35-1.2l-.15-1.31-.52-5.28c-.23-2.31-.45-4.61-.69-6.9-.06-.58-.12-1.16-.18-1.74-.02-.21-.04-.42-.07-.63h-.01s0,0,.01,0h0s0-.05,0-.07c.01-.01.03-.03.04-.05.01-.01.03-.03.04-.04.26-.29.37-.54.42-.71,0,0,0,0,0,0,.04-.14.04-.24.04-.26l.02.18v.06s.07.63.07.63l.07.63.18,1.68,1.52,14.15s.35,3.26-9.3,5.61Z" fill="#fff"/>
          <path d="M225.5,144.09s-.02.01-.03.02h0s-.03.02-.04.03c0-.02,0-.04,0-.06,0-.03,0-.05,0-.08.01-.01.03-.02.04-.03.01,0,.02-.01.03-.02,0,.03,0,.05,0,.08,0,.02,0,.04,0,.06Z" fill="#fff"/>
          <path d="M228.48,159.97c-.04.48-.27.91-.53,1.27-.54.75-1.29,1.31-2.04,1.79-1.56.94-3.29,1.55-5.01,2.07-1.72.5-3.48.85-5.18,1.46-1.69.59-3.34,1.32-4.86,2.26-1.51.94-2.96,2.07-3.96,3.56-.01,0-.01,0-.02,0,0,0,0,0,0,0h0s0,0,0,0h0s0-.01,0-.02c0,0,0,0,0,0s0,0,0,0c.99-1.51,2.42-2.65,3.92-3.61,1.53-.97,3.17-1.73,4.87-2.35.84-.3,1.7-.59,2.58-.81.88-.22,1.74-.42,2.62-.69,1.71-.5,3.41-1.11,4.94-2.03.75-.46,1.48-1.01,1.99-1.72.26-.36.48-.76.51-1.18-.03-.43-.09-.89-.15-1.34l-.53-5.36c-.27-2.51-.53-5.02-.81-7.52-.06-.56-.12-1.12-.19-1.69-.02-.21-.04-.42-.07-.63-.02-.18-.04-.36-.06-.54-.09.26-.25.48-.43.69-.01.01-.02.03-.04.04-.01.01-.02.03-.04.04,0-.02,0-.05,0-.07,0-.03,0-.06-.01-.08.01-.01.03-.03.04-.05h0s.03-.03.04-.05c.15-.18.29-.38.35-.59h0c.03-.09.05-.19.05-.29h0s.01-.06.05-.06c.02-.01.04.01.06.05,0,.08.01.15.02.23.02.21.04.43.07.64.02.21.04.42.07.63.06.56.11,1.12.18,1.68.27,2.52.55,5.03.83,7.55l.62,5.36c.04.45.1.86.14,1.35Z" fill="#fff"/>
          <path d="M206.89,151.68l-.02.02h-.01s-.05-.07-.08-.1l-.18-.21c-.12-.14-.26-.27-.39-.4h0s-.02-.02-.02-.02c0,0-.01-.01-.02-.02-.21-.19-.44-.38-.67-.55-.04-.03-.08-.06-.12-.09-.16-.12-.33-.24-.5-.36-.11-.08-.22-.15-.34-.22-.25-.16-.52-.32-.79-.47-.09-.05-.18-.1-.27-.15-.13-.07-.26-.14-.39-.2-.17-.09-.33-.17-.5-.25-1.59-.74-3.29-1.27-5-1.68-.04,0-.08-.02-.12-.03,0,0,0,0,0,0,0,0,0,0-.01,0-.05-.01-.1-.03-.16-.04-.44-.1-.89-.2-1.34-.3,0,0,0,0,0,0-.13-.03-.27-.06-.4-.09h-.02c-1.02-.25-2.04-.53-3.04-.89-.01,0-.03-.01-.04-.01-.45-.16-.89-.34-1.33-.55.31.12.63.24.95.35.06.02.12.04.18.06,0,0,.02,0,.03.01.95.32,1.91.55,2.88.77,0,0,0,0,0,0,.72.17,1.45.32,2.18.49,1.77.42,3.52.99,5.17,1.76.69.34,1.38.7,2.03,1.12.02.01.04.03.06.04.05.03.1.06.14.1.06.04.13.08.19.13.06.04.12.09.18.13.02.01.03.02.04.03.06.04.11.08.16.12.02.02.04.03.06.05.43.33.83.69,1.19,1.1.01,0,.02.02.03.03.09.1.18.2.26.31,0,0,0,.01.01.02h.01s0,.01,0,.02c0,0,0,0,0,0t0,0Z" fill="#fff"/>
          <path d="M206.89,172.19h-.02s-.01.01-.01.01c-.97-1.5-2.39-2.63-3.86-3.59-1.5-.95-3.12-1.69-4.79-2.29-.83-.29-1.67-.55-2.52-.77-.85-.23-1.73-.44-2.57-.69-1.7-.55-3.38-1.16-4.88-2.16-.74-.5-1.45-1.08-1.93-1.86-.23-.38-.43-.83-.37-1.32l.14-1.31.57-5.28.76-6.91.19-1.73.07-.64v-.08s.01-.06.01-.06v-.05s.06-.44.06-.44l.07-.68s.01-.03.03-.03c.02,0,.04.01.04.03v.02c0,.34.18.64.41.9,0,.01.02.02.03.03,0,.01.02.02.03.03.02.02.03.04.05.06v.06s-.01.05-.01.05c-.02-.02-.03-.03-.05-.05h0s-.02-.02-.03-.03h0c-.06-.07-.12-.14-.17-.21-.12-.16-.22-.35-.28-.55l-.04.41-.05.49v.05s-.01.06-.01.06v.03s-.07.64-.07.64l-.18,1.75-.71,6.89-.53,5.28-.13,1.3c-.07.43.11.84.33,1.22.46.73,1.16,1.31,1.88,1.8,1.46.97,3.16,1.59,4.83,2.12,1.69.5,3.43.89,5.11,1.53,1.66.61,3.26,1.37,4.76,2.36,1.47.97,2.86,2.11,3.84,3.61,0,0,0,0,0,0s0,0,0,0c0,0,0,.01.01.02Z" fill="#fff"/>
          <path d="M221.61,145.48c-.11.04-.23.09-.35.13-1.14.41-2.32.71-3.5.98,0,0-.01,0-.01,0,0,0,0,0,0,0-.48.11-.97.21-1.45.32-.01,0-.02,0-.04,0-.05.01-.09.02-.14.03-1.68.41-3.37.94-4.98,1.68-.26.13-.53.26-.79.4-.11.06-.22.12-.33.18-.08.05-.17.09-.25.14-.45.26-.89.53-1.31.84-.06.05-.12.09-.18.14-.11.08-.21.17-.31.25-.07.06-.14.12-.21.18-.09.08-.17.16-.25.24-.06.06-.12.11-.17.17-.08.08-.16.17-.24.26-.07.08-.15.17-.22.26h0s-.02,0-.02,0h0s0-.02.01-.03h0s0-.01.01-.02c0,0,.01-.01.02-.02,0,0,0-.01.01-.02,0,0,0,0,0,0,0,0,0,0,0,0h0s0,0,0,0c0,0,0,0,0-.01,0,0,.01-.01.02-.02,0,0,.01-.01.02-.02,0,0,0,0,0,0,0,0,0,0,0,0h0s0,0,0,0h0s0,0,0,0h0s0,0,0-.01c0,0,0,0,0,0,.01-.01.02-.03.04-.04.37-.43,1.34-1.42,3.32-2.46.9-.48,2.01-.97,3.36-1.43.14-.05.28-.09.43-.14.07-.02.15-.05.22-.07.08-.02.15-.05.23-.07.08-.02.16-.05.24-.07.08-.02.16-.05.25-.07.09-.03.18-.05.26-.07.04-.01.09-.02.14-.04.67-.18,1.38-.35,2.15-.51.18-.04.36-.07.53-.11t0,0c.14-.03.27-.06.4-.09,0,0,.02,0,.02,0,.03,0,.05-.01.08-.02,1.15-.26,2.12-.54,2.93-.82Z" fill="#fff"/>
          <path d="M206.97,172.02c-.05.08-.08.13-.1.16,0,.01-.01.02-.01.02v-.03s0,0,0,0c.03-.05.07-.1.1-.15Z" fill="#fff"/>
          <path d="M218.67,165.29c-6.91,1.72-10.05,4.67-11.22,6.08-.05.06-.1.12-.15.18.92-1.21,2.13-2.18,3.38-3.03,1.49-.97,3.1-1.73,4.77-2.35.84-.32,1.67-.58,2.56-.82.84-.23,1.71-.44,2.55-.7,1.69-.53,3.35-1.16,4.84-2.12.72-.5,1.42-1.07,1.86-1.8.23-.38.4-.79.35-1.2l-.15-1.31-.52-5.28c-.23-2.31-.45-4.61-.69-6.9-.06-.58-.12-1.16-.18-1.74-.02-.21-.04-.42-.07-.63h-.01s0,0,.01,0h0s0-.05,0-.07c0-.03,0-.06-.01-.08-.02-.16-.03-.31-.05-.47-.01-.11-.03-.23-.04-.34-.05.17-.14.32-.24.47-.06.09-.13.17-.2.26.02.16.03.32.05.47,0,.02,0,.03,0,.05,0,.03,0,.05,0,.08,0,.02,0,.04,0,.06.01.15.03.29.04.44.06.6.12,1.2.19,1.8.09.88.18,1.76.28,2.64.04.43.09.86.13,1.29.03.32.07.63.1.95.06.54.11,1.08.17,1.63l.58,5.19.14,1.27c.1.46-.07.91-.26,1.32-.46.77-1.13,1.37-1.85,1.85-1.47,1.01-3.08,1.63-4.74,2.16-1.68.53-3.37.89-5,1.49-1.61.58-3.22,1.32-4.64,2.24-1.44.94-2.84,2.09-3.75,3.53-.01.01-.02.02-.02.02v-.04s0,0,.01,0c.01-.02.03-.05.04-.07.02-.03.03-.05.05-.08.03-.05.07-.11.11-.16.05-.07.1-.14.15-.21.03-.04.06-.08.09-.12.03-.04.07-.09.11-.14.87-1.1,1.97-2.03,3.14-2.81,1.47-.94,3.03-1.71,4.66-2.33,1.61-.65,3.34-.99,5-1.49,1.63-.53,3.25-1.18,4.69-2.14.7-.48,1.37-1.06,1.76-1.8.51-.75.17-1.64.15-2.5l-.51-5.19c-.24-2.15-.44-4.31-.66-6.47-.06-.6-.12-1.2-.19-1.8-.01-.14-.03-.28-.04-.42,0-.02,0-.04,0-.06,0-.03,0-.05,0-.08,0-.03,0-.05,0-.08-.01-.14-.03-.29-.05-.43,0-.02,0-.04,0-.07.02-.02.03-.03.05-.05h0s.02-.02.02-.03h0c.04-.05.08-.1.12-.15h0c.19-.26.28-.47.32-.62.04-.15.03-.24.03-.24l.02.21.05.46.05.44h0s0,.08,0,.08v.07s.01.03.01.03l.07.63.18,1.74,1.43,13.65s.34,3.25-9.03,5.61Z" fill="#fff"/>
          <path d="M223.18,144.78c-.5.27-1.02.49-1.56.7,0,0,0,0-.01,0-.11.04-.23.09-.35.13-1.14.41-2.32.71-3.5.98,0,0-.01,0-.01,0,0,0,0,0,0,0-.44.1-.88.19-1.32.29-.04.01-.09.02-.13.03-.01,0-.02,0-.04,0-.05.01-.09.02-.14.03-1.68.41-3.37.94-4.98,1.68-.26.13-.53.26-.79.4-.11.06-.22.12-.33.18-.08.05-.17.09-.25.14-.45.26-.89.53-1.31.84-.06.04-.12.09-.18.14-.11.08-.21.17-.31.25-.07.06-.14.12-.21.18-.09.08-.17.16-.25.24-.06.06-.12.11-.17.17-.08.08-.16.17-.24.26-.07.08-.15.17-.22.26h-.03s0-.02,0-.02h0s.01-.01.01-.01h0s0,0,0,0c.01-.01.02-.03.03-.04,0,0,0,0,0-.01,0,0,0,0,0,0h0s0,0,0,0c0,0,0,0,0,0h0s0,0,0,0c0,0,0,0,0-.01,0,0,.01-.01.02-.02,0,0,.01-.01.02-.02t0,0s0,0,0,0h0s0,0,0,0h0s0,0,0,0h0s0,0,0-.01c0,0,0,0,0,0,.01-.01.02-.03.03-.04,0,0,0,0,0,0,0-.01.02-.02.03-.04,0,0,0,0,0,0,.02-.02.03-.04.05-.06h0s.03-.04.05-.06c0,0,0-.01.01-.02,0,0,0,0,0,0,0,0,.01-.01.02-.02,0,0,.01-.01.02-.02,0,0,.01-.01.02-.02,0,0,0,0,0,0h0s0-.01,0-.01c0,0,.01-.01.02-.02,0,0,0,0,.01-.01l.03-.03s.04-.04.07-.07c.06-.06.13-.13.21-.2.03-.03.07-.06.1-.09.03-.03.06-.06.1-.09.03-.03.06-.06.1-.08.08-.07.16-.13.25-.2.68-.57,1.44-1.05,2.22-1.47.29-.15.57-.3.86-.44,1.66-.77,3.4-1.32,5.16-1.76.12-.03.24-.06.36-.09.06-.01.11-.03.17-.04.37-.09.75-.17,1.13-.26.2-.04.39-.09.59-.14,0,0,0,0,0,0t0,0s.03,0,.04-.01c1-.23,2-.48,2.98-.82.13-.05.26-.09.39-.14.38-.14.76-.29,1.12-.46Z" fill="#fff"/>
          <path d="M227.43,160.84c-.49.78-1.2,1.36-1.93,1.86-1.51,1-3.18,1.62-4.88,2.16-1.71.51-3.43.88-5.11,1.49-1.66.59-3.28,1.33-4.77,2.27-1.48.96-2.91,2.08-3.85,3.58h-.03s0-.02,0-.02c0,0,0,0,0,0,0,0,0,0,0,0,.03-.05.07-.1.1-.15.01-.02.03-.05.05-.07.05-.07.09-.14.14-.2,0,0,0,0,0,0,.04-.06.09-.12.13-.18.92-1.21,2.13-2.18,3.38-3.03,1.49-.97,3.1-1.73,4.77-2.35.84-.32,1.67-.58,2.56-.82.84-.23,1.71-.44,2.55-.7,1.69-.53,3.35-1.16,4.84-2.12.72-.5,1.42-1.07,1.86-1.8.23-.38.4-.79.35-1.2l-.15-1.31-.52-5.28c-.23-2.31-.45-4.61-.69-6.9-.06-.58-.12-1.16-.18-1.74-.02-.21-.04-.42-.07-.63h0s0-.06,0-.08c0-.03,0-.06-.01-.08-.02-.16-.03-.31-.05-.47-.01-.11-.03-.23-.04-.34-.05.17-.14.32-.24.47-.06.09-.13.17-.2.26,0,.01-.02.02-.02.03-.01.02-.03.03-.05.05,0-.02,0-.04,0-.07,0-.03,0-.06-.01-.09.02-.02.03-.03.05-.05,0,0,.01-.01.02-.02,0,0,0,0,0,0h0c.23-.26.41-.58.42-.91h0s0-.05.03-.05c.03,0,.06,0,.07.03h0c.02.23.04.45.07.68.01.14.03.28.04.42,0,.03,0,.06,0,.08,0,.02,0,.05,0,.07,0,.02,0,.04,0,.06.02.21.04.42.07.63.06.58.12,1.16.18,1.74.24,2.31.49,4.61.74,6.92l.57,5.28.14,1.31c.09.5-.12.94-.34,1.32Z" fill="#fff"/>
        </g>
        <path d="M206.69,171.61c.03.05.07.1.09.14h0s-.06-.09-.1-.14ZM206.86,171.87s-.03-.05-.05-.07c0,0,0-.01-.01-.02.03.06.06.09.06.1,0,0,0,0,0,0,0,0,0,0,0,0M205.23,153.14c0-.21,0-.42,0-.62,0-.06,0-.12,0-.17,0-.02,0-.07-.02-.07-.17-.16-.34-.32-.52-.46-.89-.75-1.9-1.32-2.95-1.82-1.27-.55-2.57-.99-3.92-1.35-.16-.04-.31-.08-.47-.11-1.18-.28-2.38-.49-3.55-.85-1.3-.38-2.62-.84-3.84-1.47-.01,0-.02,0-.03,0-.03,0-.04.01-.04.05l-.11,1.03-1.31,12.27v.02s0,.02.02.02c.36.74,1.03,1.23,1.68,1.66.65.41,1.37.77,2.09,1.08,1.44.6,2.98.96,4.47,1.37,2.98.82,5.89,2.07,8.39,3.94h.02l.07-7.67c0-1.8.01-3.58.01-5.36v-.27c0-.41,0-.81,0-1.22ZM205.07,154.4v.23c0,1.78.01,3.55.01,5.36l.05,7.61h0c-2.48-1.89-5.36-3.17-8.34-4.03-1.51-.43-3.01-.82-4.45-1.44-.7-.29-1.4-.63-2.07-1.03-.62-.41-1.27-.89-1.59-1.56l1.22-12.17.1-1h.01c1.22.6,2.47,1.04,3.76,1.4,1.35.38,2.72.6,4.02.98.03,0,.07.02.1.03,1.29.33,2.58.78,3.8,1.34.77.36,1.52.78,2.21,1.27,0,0,0,0,0,0,.16.11.3.23.45.34.12.09.23.19.34.29.13.11.26.23.38.36v.15c0,.16,0,.32,0,.48,0,.47,0,.93,0,1.4ZM206.79,171.76s0,0,0,0c0,0,0,0,0,0,0,0,0,0,0-.01Z" fill="#fff"/>
        <g>
          <path d="M206.79,171.76h0c-.06-.09-.12-.17-.18-.25-.06-.09-.13-.17-.19-.25-.06-.08-.13-.16-.2-.24,0,0,0-.01-.01-.01-.06-.07-.12-.15-.19-.22,0-.01-.02-.02-.03-.03-.06-.07-.13-.14-.19-.21-.07-.08-.15-.15-.22-.23-.21-.21-.43-.41-.66-.61-.08-.07-.16-.14-.25-.21-.05-.04-.1-.09-.16-.13-.04-.03-.08-.07-.12-.1-.08-.07-.17-.13-.25-.19-.17-.12-.33-.25-.5-.36-.09-.06-.17-.12-.26-.18-.09-.06-.18-.12-.28-.19-1.44-.94-3.03-1.66-4.66-2.24-1.61-.62-3.32-.94-4.98-1.49-1.66-.53-3.29-1.15-4.76-2.16-.7-.48-1.4-1.08-1.83-1.85-.21-.41-.38-.87-.26-1.32l.15-1.27.53-5.19.71-6.51.2-1.79.05-.46v-.06s.01-.05.01-.05v-.07s.06-.5.06-.5h0s0-.05,0-.05v-.07s.01-.02.01-.02l.08-.78v-.02s0-.02.02-.02l.05.02v.02c0,.4.28.78.56,1.09,0,0,.01.01.01.02.31.31.67.58,1.03.82.75.43,1.59.77,2.43,1.08.1.04.2.07.31.1.1.03.2.07.31.1.23.07.46.14.69.2.32.09.64.17.96.24.11.03.22.05.33.08t0,0c.83.19,1.67.36,2.5.55,1.73.43,3.41,1.01,5.03,1.76.2.1.39.2.59.31.09.05.19.1.28.16.09.05.18.1.27.16.25.14.5.29.74.45.2.13.39.26.58.4.02.01.03.02.04.03.06.04.11.08.16.12.02.02.04.03.06.05.13.1.26.21.39.33.05.05.1.09.15.14.06.05.12.11.17.16.01.01.03.02.04.04.01.01.03.03.04.04.02.02.05.05.08.07.07.07.13.14.2.21-.08-.07-.15-.14-.23-.21h0s-.02-.02-.02-.02c0,0-.01-.01-.02-.02-.21-.19-.44-.37-.67-.55-.04-.03-.08-.06-.12-.09-.16-.12-.33-.24-.5-.36-.11-.08-.22-.15-.34-.22-.25-.16-.52-.32-.79-.47-.09-.05-.18-.1-.27-.15-.13-.07-.26-.14-.39-.2-.17-.09-.33-.17-.5-.25-1.59-.74-3.29-1.27-5-1.68-.04,0-.08-.02-.12-.03,0,0,0,0,0,0,0,0,0,0-.01,0-.49-.11-.99-.22-1.49-.34h0c-.14-.03-.27-.06-.41-.1h-.02c-1.02-.25-2.04-.53-3.04-.89-.01,0-.03-.01-.04-.01-.45-.16-.89-.34-1.33-.55,0,0,0,0-.01,0-.36-.17-.72-.36-1.06-.58-.36-.21-.75-.48-1.04-.79-.05-.06-.1-.11-.15-.17-.18-.21-.33-.43-.41-.67l-.05.47v.07s-.01.06-.01.06v.05s0,0,0,0l-.05.45v.1s-.01.05-.01.05v.06s-.05.44-.05.44l-.18,1.8-.65,6.45-.53,5.19c-.02.87-.38,1.76.12,2.5.41.74,1.08,1.32,1.78,1.8,1.42.96,3.05,1.61,4.69,2.14,1.66.51,3.37.87,5,1.52,1.61.6,3.22,1.37,4.64,2.33,1.31.85,2.54,1.88,3.45,3.15.02.03.04.06.07.09.01.02.03.04.04.06.03.05.07.1.1.15Z" fill="#fff"/>
          <path d="M206.79,171.77s0,0,0,0c0,0,0,0,0,0,0,0,0,0,0,.01Z" fill="#fff"/>
          <path d="M206.86,171.87s-.04-.06-.06-.09c0,0,0,0,0,0,.02.03.05.06.07.1Z" fill="#fff"/>
          <path d="M206.89,171.9h-.02v-.02s0,0,0,0c0,0,0,0,.01,0,.01,0,.01.02.01.02Z" fill="#fff"/>
          <path d="M206.89,151.67h0s-.02.02-.02.02h0s0,0,0,0h0s0,0,0,0h0s-.08-.1-.08-.1l-.18-.21-.17-.19s.06.05.09.07c0,0,.01.01.02.02,0,0,.02.01.02.02.01,0,.02.02.03.03.02.02.05.04.07.07.05.05.1.11.14.16.02.02.04.05.06.08,0,0,0,.01.01.02h.01s0,.01,0,.01h0s0,.01,0,.01Z" fill="#fff"/>
          <path d="M205.25,153.14c0-.21,0-.42,0-.62,0-.06,0-.12,0-.17,0-.02,0-.07-.02-.07-.17-.17-.35-.33-.53-.48-.89-.74-1.89-1.31-2.93-1.81-1.27-.55-2.57-.99-3.92-1.35-.16-.04-.31-.08-.47-.11-1.18-.28-2.38-.49-3.55-.85-1.3-.38-2.62-.84-3.85-1.47h-.01s-.02,0-.03,0c-.02,0-.03.02-.03.05l-.11,1.03-1.31,12.27v.02s0,.02.02.02c.36.74,1.03,1.23,1.68,1.66.65.41,1.37.77,2.09,1.08,1.44.6,2.98.96,4.47,1.37,2.98.82,5.89,2.07,8.39,3.94h.02l.07-7.67c0-1.8.01-3.58.01-5.36v-.27c0-.41,0-.81,0-1.22ZM205.13,167.61c-2.48-1.9-5.35-3.17-8.33-4.03-1.51-.43-3.01-.82-4.45-1.44-.7-.29-1.4-.63-2.07-1.03-.62-.41-1.27-.89-1.59-1.56l1.22-12.17.1-1h0s-.07-.03-.1-.06l.1-.02v.07c1.23.6,2.48,1.03,3.77,1.4,1.35.38,2.72.6,4.02.98.02,0,.04.01.07.02.01,0,.02,0,.03,0,1.29.33,2.58.78,3.8,1.34.77.36,1.52.78,2.21,1.27,0,0,0,0,0,0,0,0,.01,0,.02.01.14.1.28.21.42.32,0,0,.01,0,.01.01.11.09.22.18.33.27.14.12.27.24.39.37v.15c0,.16,0,.32,0,.48h0c0,.47,0,.94,0,1.4v.23c0,1.78.01,3.55.01,5.36l.05,7.62s0,0-.01,0Z" fill="#fff"/>
        </g>
        <g>
          <path d="M226.87,160.62c-.46.77-1.13,1.37-1.85,1.85-1.47,1.01-3.08,1.63-4.74,2.16-1.68.53-3.37.89-5,1.49-1.61.58-3.22,1.32-4.64,2.24-1.44.94-2.84,2.09-3.75,3.53-.01.01-.02.02-.02.02h0s0-.02,0-.02c0,0,0,0,0,0h0s0-.01.01-.02c.01-.02.03-.05.04-.07.02-.03.03-.05.05-.08.03-.05.07-.11.11-.16.05-.07.1-.14.15-.21.03-.04.06-.08.09-.12.03-.04.07-.09.11-.14.87-1.1,1.97-2.03,3.14-2.81,1.47-.94,3.03-1.71,4.66-2.33,1.61-.65,3.34-.99,5-1.49,1.63-.53,3.25-1.18,4.69-2.14.7-.48,1.37-1.06,1.76-1.8.51-.75.17-1.64.15-2.5l-.51-5.19c-.24-2.15-.44-4.31-.66-6.47-.06-.6-.12-1.2-.19-1.8-.01-.14-.03-.28-.04-.42,0-.02,0-.04,0-.06,0-.03,0-.05,0-.08,0-.03,0-.05,0-.08-.01-.14-.03-.29-.05-.43,0-.02,0-.04,0-.07,0-.03,0-.06-.01-.09,0-.01,0-.03,0-.04-.02-.16-.03-.31-.05-.47-.07.24-.22.45-.38.66h0c-.05.06-.1.12-.15.18-.34.31-.67.6-1.06.82-.17.11-.34.2-.52.3-.5.27-1.02.49-1.56.7,0,0,0,0-.01,0-.11.04-.23.09-.35.13-1.14.41-2.32.71-3.5.98,0,0-.01,0-.01,0,0,0,0,0,0,0-.48.11-.97.21-1.45.32-.01,0-.02,0-.04,0-.05.01-.09.02-.14.03-1.68.41-3.37.94-4.98,1.68-.26.13-.53.26-.79.4-.11.06-.22.12-.33.18-.08.05-.17.09-.25.14-.45.26-.89.53-1.31.84-.06.04-.12.09-.18.14-.11.08-.21.17-.31.25-.07.06-.14.12-.21.18-.09.08-.17.16-.25.24-.06.06-.12.11-.17.17-.08.08-.16.17-.24.26-.07.08-.15.17-.22.26h0s-.02,0-.02,0v-.02h.01s.02-.04.03-.05c0,0,0,0,0-.01,0,0,0,0,0,0h0s0,0,0,0c0,0,0,0,0,0h0s0,0,0,0c0,0,0,0,0-.01,0,0,.01-.01.02-.02,0,0,.01-.01.02-.02t0,0s0,0,0,0h0s0,0,0,0h0s0,0,0,0h0s0,0,0-.01c0,0,0,0,0,0,.01-.01.02-.03.03-.04.01-.01.02-.03.04-.04,0,0,0,0,0,0,.02-.02.03-.04.05-.06h0s.03-.04.05-.06c0,0,0-.01.01-.02,0,0,0,0,0,0,0,0,.01-.01.02-.02,0,0,.01-.01.02-.02,0,0,.01-.01.02-.02,0,0,0,0,0,0h0s0,0,0-.01c0,0,.01-.02.02-.02,0,0,0,0,.01-.01.05-.05.09-.1.14-.15.14-.15.29-.29.44-.43.03-.03.06-.06.09-.08.07-.06.14-.12.21-.18.11-.09.22-.18.33-.26.07-.06.15-.11.22-.16.07-.05.15-.11.23-.16.08-.06.17-.11.26-.17s.17-.11.26-.16c.09-.05.17-.11.26-.16.09-.05.18-.1.27-.15.12-.07.24-.13.36-.2.24-.13.48-.26.73-.38,1.59-.75,3.29-1.3,5-1.73.22-.05.43-.1.65-.15.06-.01.11-.03.17-.04.37-.09.75-.17,1.13-.26.2-.04.39-.09.59-.14,0,0,0,0,0,0t0,0s.03,0,.04-.01c.86-.2,1.71-.43,2.56-.7.82-.34,1.63-.65,2.38-1.13.23-.13.45-.28.66-.44.03-.02.05-.04.08-.07.09-.08.18-.16.26-.25h0s.02-.02.03-.03c.31-.29.58-.67.6-1.08,0-.02,0-.07.05-.07.02,0,.02.02.02.05v.02c.03.26.05.51.08.77h0s0,.07.01.1h0s0,.05,0,.07c.02.16.03.32.05.47,0,.02,0,.03,0,.05,0,.03,0,.05,0,.08,0,.02,0,.04,0,.06.01.15.03.29.04.44.06.6.12,1.2.19,1.8.09.88.18,1.76.28,2.64.04.43.09.86.13,1.29.03.32.07.63.1.95.06.54.11,1.08.17,1.63l.58,5.19.14,1.27c.1.46-.07.91-.26,1.32Z" fill="#fff"/>
          <path d="M209.64,151.46l-.22.09s-.02.01-.03.02c-.29.23-.56.46-.82.72v.02c0,.07,0,.13,0,.2h.03c0-.07,0-.13,0-.2.25-.24.51-.47.78-.67.08-.07.17-.13.26-.19ZM223.95,147.28c-.03-.35-.07-.7-.11-1.04v-.02s-.05-.05-.12-.02c-1.2.65-2.5,1.08-3.82,1.44-1.09.34-2.23.55-3.37.82-.21.05-.43.11-.64.16-1.32.38-2.62.82-3.89,1.39-.61.29-1.21.62-1.78.98-.27.17-.54.36-.79.56,0,0-.02.01-.03.02-.29.23-.56.46-.82.72v.02c0,.07,0,.13,0,.2,0,.18,0,.36,0,.54,0,.44,0,.88,0,1.32,0,.08,0,.17,0,.25-.03,4.33-.08,8.68-.08,13.03,0,0,0,.02.02.05.02.05.1.05.15.02,2.45-1.9,5.36-3.15,8.32-4.02,1.51-.41,3.05-.79,4.47-1.42.72-.31,1.42-.65,2.09-1.06.65-.43,1.3-.91,1.66-1.63v-.05c-.44-4.08-.82-8.18-1.24-12.28ZM223.45,161.15c-.65.41-1.35.75-2.07,1.04-1.44.6-2.93.96-4.45,1.37-2.93.82-5.8,2.07-8.27,3.89v.21l-.17-.1s.12-.07.17-.12c.02-4.28-.03-8.56-.06-12.82,0-.08,0-.16,0-.24,0-.45,0-.91,0-1.36,0-.17,0-.34,0-.51,0-.07,0-.13,0-.2.25-.24.51-.47.78-.67.08-.07.17-.13.26-.19.18-.13.37-.26.57-.38.59-.37,1.21-.68,1.86-.97,1.18-.56,2.46-.98,3.73-1.33.05-.01.09-.03.14-.04,1.32-.34,2.67-.53,4.02-.94,1.3-.36,2.57-.82,3.77-1.42v-.1l.1.05s-.07.02-.1.05c.03.32.07.64.1.97.43,4.04.89,8.14,1.27,12.21-.34.7-.99,1.18-1.63,1.59Z" fill="#fff"/>
        </g>
      </g>
    </g>
  </g>
</svg>