<?xml version="1.0" encoding="UTF-8"?>
<svg id="uuid-323dd29d-52ca-4354-8063-05b2e3b4a4fc" data-name="katman 2" xmlns="http://www.w3.org/2000/svg" xmlns:xlink="http://www.w3.org/1999/xlink" viewBox="0 0 373.77 280.96">
  <defs>
    <linearGradient id="uuid-5c4b89f2-66f2-422e-a524-257f48d205e9" data-name="Adsız degrade 22" x1="160.65" y1="176.59" x2="172.44" y2="156.17" gradientUnits="userSpaceOnUse">
      <stop offset=".71" stop-color="#bbbbba"/>
      <stop offset=".77" stop-color="#a5a5a4"/>
      <stop offset=".88" stop-color="#6f6f6e"/>
      <stop offset="1" stop-color="#333"/>
    </linearGradient>
    <linearGradient id="uuid-bc6cdf5e-e4a0-439f-9d43-76912d3d43b6" data-name="Adsız degrade 22" x1="-2179.44" y1="176.53" x2="-2167.65" y2="156.11" gradientTransform="translate(-1970.89) rotate(-180) scale(1 -1)" xlink:href="#uuid-5c4b89f2-66f2-422e-a524-257f48d205e9"/>
  </defs>
  <g id="uuid-dbbf7438-0802-452a-a100-c86cf63e5a6a" data-name="katman 1">
    <g>
      <g>
        <path d="M81.28,267.25c0,6.4-2.2,8.85-4.93,8.85s-4.73-3.01-4.73-8.75,2.02-8.7,5.01-8.7,4.66,3.16,4.66,8.6ZM74.38,257.56c-.61,0-1.06-.45-1.06-1.16s.48-1.19,1.09-1.19c.66,0,1.09.51,1.09,1.19s-.43,1.16-1.09,1.16h-.03ZM73.64,267.38c0,3.52.68,7.01,2.83,7.01s2.78-3.72,2.78-7.06-.58-6.96-2.81-6.96-2.81,3.54-2.81,7.01ZM78.48,257.56c-.61,0-1.09-.45-1.09-1.16s.48-1.19,1.11-1.19,1.09.51,1.09,1.19-.43,1.16-1.09,1.16h-.03Z" fill="#e10b17"/>
        <path d="M92.01,275.47c-.73.3-1.95.58-3.04.58-1.49,0-2.88-.4-4.02-1.67-1.24-1.31-2.07-3.67-2.05-6.78.03-6.63,3.42-8.9,6.43-8.9,1.06,0,1.9.2,2.43.48l-.43,1.67c-.46-.23-1.06-.4-1.97-.4-2.12,0-4.43,1.69-4.43,6.98s2,6.96,4.05,6.96c.66,0,1.04-.13,1.19-.2v-5.57h-2.2v-1.62h4.05v8.47ZM86.92,255.49c.13.68.71,1.09,1.54,1.09s1.42-.35,1.57-1.09h1.14c0,1.44-1.01,2.43-2.68,2.43s-2.71-.91-2.71-2.43h1.14Z" fill="#e10b17"/>
        <path d="M94.64,259.1c.83-.23,1.85-.33,2.81-.33,1.69,0,2.96.35,3.85,1.21.83.86,1.19,2,1.19,3.34,0,2.18-1.01,3.59-2.73,4.38v.05c1.26.38,1.92,1.59,2.3,3.82.38,2.35.73,3.79.96,4.33h-1.97c-.25-.51-.58-2.12-.91-4.22-.38-2.33-1.11-3.21-2.78-3.21h-.76v7.44h-1.95v-16.8ZM96.59,266.97h.81c1.87,0,3.11-1.37,3.11-3.41s-.81-3.19-2.91-3.21c-.38,0-.76.03-1.01.1v6.53Z" fill="#e10b17"/>
        <path d="M111.21,267.81h-4.28v6.4h4.86v1.69h-6.81v-17.05h6.5v1.69h-4.55v5.62h4.28v1.64Z" fill="#e10b17"/>
        <path d="M113.94,275.9v-17.05h1.85l3.14,7.99c.71,1.82,1.59,4.1,2.18,5.95h.05c-.15-2.68-.23-4.88-.23-7.84v-6.1h1.75v17.05h-1.85l-3.24-8.2c-.68-1.72-1.42-3.67-2.02-5.79h-.05c.15,2.28.2,4.45.2,8.1v5.89h-1.77Z" fill="#e10b17"/>
        <path d="M133.14,275.6c-.53.28-1.37.45-2.43.45-3.34,0-5.72-2.68-5.72-8.47,0-6.73,3.34-8.88,6.02-8.88,1.04,0,1.77.2,2.12.43l-.43,1.64c-.4-.18-.83-.35-1.72-.35-1.82,0-3.95,1.77-3.95,6.98s1.92,6.93,4,6.93c.73,0,1.39-.18,1.8-.38l.3,1.64Z" fill="#e10b17"/>
        <path d="M136.13,257.51c-.61,0-1.11-.51-1.11-1.14s.51-1.11,1.14-1.11,1.11.48,1.11,1.11-.48,1.14-1.11,1.14h-.03ZM137.09,258.85v17.05h-1.95v-17.05h1.95Z" fill="#e10b17"/>
        <path d="M145.74,275.9v-7.21l-3.74-9.84h2.05l1.52,4.28c.43,1.19.89,2.53,1.26,3.84h.05c.35-1.32.78-2.61,1.24-3.92l1.44-4.2h2.05l-3.92,9.76v7.29h-1.95Z" fill="#e10b17"/>
        <path d="M159.45,267.81h-4.28v6.4h4.86v1.69h-6.81v-17.05h6.5v1.69h-4.55v5.62h4.28v1.64Z" fill="#e10b17"/>
        <path d="M164.18,260.6h-3.11v-1.75h8.17v1.75h-3.11v15.31h-1.95v-15.31Z" fill="#e10b17"/>
        <path d="M172.12,257.51c-.61,0-1.11-.51-1.11-1.14s.51-1.11,1.14-1.11,1.11.48,1.11,1.11-.48,1.14-1.11,1.14h-.03ZM173.09,258.85v17.05h-1.95v-17.05h1.95Z" fill="#e10b17"/>
        <path d="M175.79,273.65c.58.38,1.59.68,2.45.68,1.77,0,2.83-1.16,2.83-2.88,0-1.57-.91-2.53-2.25-3.54-1.34-.94-3.21-2.53-3.21-4.73,0-2.58,1.8-4.48,4.5-4.48,1.06,0,2,.33,2.4.63l-.48,1.67c-.43-.3-1.14-.58-2.02-.58-1.67,0-2.45,1.26-2.45,2.43,0,1.69.89,2.35,2.5,3.52,2.05,1.44,2.96,3.01,2.96,4.91,0,2.38-1.34,4.02-3.29,4.58l-.68,1.32c.86.13,1.64.83,1.64,1.8,0,1.44-1.19,2-2.3,2-.61,0-1.24-.2-1.67-.46l.38-1.06c.4.25.78.38,1.26.38.46,0,.94-.18.94-.78,0-.68-.83-.99-1.75-1.09l.86-1.9h-.18c-1.16,0-2.4-.38-2.88-.73l.43-1.67Z" fill="#e10b17"/>
        <path d="M187.3,260.6h-3.11v-1.75h8.17v1.75h-3.11v15.31h-1.95v-15.31Z" fill="#e10b17"/>
        <path d="M195.24,257.51c-.61,0-1.11-.51-1.11-1.14s.51-1.11,1.14-1.11,1.11.48,1.11,1.11-.48,1.14-1.11,1.14h-.03ZM196.21,258.85v17.05h-1.95v-17.05h1.95Z" fill="#e10b17"/>
        <path d="M199.29,259.1c.83-.23,1.85-.33,2.81-.33,1.69,0,2.96.35,3.85,1.21.83.86,1.19,2,1.19,3.34,0,2.18-1.01,3.59-2.73,4.38v.05c1.26.38,1.92,1.59,2.3,3.82.38,2.35.73,3.79.96,4.33h-1.97c-.25-.51-.58-2.12-.91-4.22-.38-2.33-1.11-3.21-2.78-3.21h-.76v7.44h-1.95v-16.8ZM201.24,266.97h.81c1.87,0,3.11-1.37,3.11-3.41s-.81-3.19-2.91-3.21c-.38,0-.76.03-1.01.1v6.53Z" fill="#e10b17"/>
        <path d="M219.96,268.57c-.13-2.25-.25-4.76-.18-6.68h-.1c-.38,1.9-.83,3.92-1.37,5.92l-2.1,7.99h-1.24l-2-7.67c-.56-2.18-1.06-4.28-1.39-6.25h-.08c0,2-.1,4.38-.2,6.81l-.33,7.21h-1.75l1.01-17.05h2.1l2,7.79c.58,2.25,1.01,3.92,1.37,5.87h.08c.33-1.95.71-3.57,1.26-5.87l1.92-7.79h2.18l.99,17.05h-1.82l-.35-7.34Z" fill="#e10b17"/>
        <path d="M231.02,267.81h-4.28v6.4h4.86v1.69h-6.81v-17.05h6.5v1.69h-4.55v5.62h4.28v1.64Z" fill="#e10b17"/>
        <path d="M237.72,259.1c.76-.23,1.64-.33,2.63-.33,1.8,0,3.06.45,4,1.29,1.32,1.14,2.3,3.34,2.3,6.91,0,3.9-.96,6.02-2.05,7.18-1.11,1.26-2.73,1.85-4.71,1.85-.78,0-1.59-.05-2.18-.18v-16.72ZM239.67,274.31c.28.05.56.05.73.05,2.15,0,4.22-1.54,4.22-7.34,0-4.3-1.32-6.65-4.05-6.65-.3,0-.66.03-.91.1v13.84Z" fill="#e10b17"/>
        <path d="M255.2,267.81h-4.28v6.4h4.86v1.69h-6.81v-17.05h6.5v1.69h-4.55v5.62h4.28v1.64Z" fill="#e10b17"/>
        <path d="M257.93,259.1c.83-.23,1.85-.33,2.81-.33,1.69,0,2.96.35,3.85,1.21.83.86,1.19,2,1.19,3.34,0,2.18-1.01,3.59-2.73,4.38v.05c1.26.38,1.92,1.59,2.3,3.82.38,2.35.73,3.79.96,4.33h-1.97c-.25-.51-.58-2.12-.91-4.22-.38-2.33-1.11-3.21-2.78-3.21h-.76v7.44h-1.95v-16.8ZM259.88,266.97h.81c1.87,0,3.11-1.37,3.11-3.41s-.81-3.19-2.91-3.21c-.38,0-.76.03-1.01.1v6.53Z" fill="#e10b17"/>
        <path d="M268.28,275.9v-17.05h1.85l3.14,7.99c.71,1.82,1.59,4.1,2.18,5.95h.05c-.15-2.68-.23-4.88-.23-7.84v-6.1h1.75v17.05h-1.85l-3.24-8.2c-.68-1.72-1.42-3.67-2.02-5.79h-.05c.15,2.28.2,4.45.2,8.1v5.89h-1.77Z" fill="#e10b17"/>
        <path d="M286.26,267.81h-4.28v6.4h4.86v1.69h-6.81v-17.05h6.5v1.69h-4.55v5.62h4.28v1.64Z" fill="#e10b17"/>
        <path d="M297.39,275.47c-.73.3-1.95.58-3.04.58-1.49,0-2.88-.4-4.02-1.67-1.24-1.31-2.07-3.67-2.05-6.78.03-6.63,3.42-8.9,6.43-8.9,1.06,0,1.9.2,2.43.48l-.43,1.67c-.46-.23-1.06-.4-1.97-.4-2.12,0-4.43,1.69-4.43,6.98s2,6.96,4.05,6.96c.66,0,1.04-.13,1.19-.2v-5.57h-2.2v-1.62h4.05v8.47ZM292.31,255.49c.13.68.71,1.09,1.54,1.09s1.42-.35,1.57-1.09h1.14c0,1.44-1.01,2.43-2.68,2.43s-2.71-.91-2.71-2.43h1.14Z" fill="#e10b17"/>
        <path d="M301.01,257.51c-.61,0-1.11-.51-1.11-1.14s.51-1.11,1.14-1.11,1.11.48,1.11,1.11-.48,1.14-1.11,1.14h-.03ZM301.97,258.85v17.05h-1.95v-17.05h1.95Z" fill="#e10b17"/>
      </g>
      <g>
        <g>
          <path d="M183.56,108.85l.52,22.29.52-22.29c-.18,0-.34,0-.52,0s-.35,0-.52,0Z" fill="#4d4d4d"/>
          <path d="M190.39,130.7l-2.58-22.15c-.35.06-.69.11-1.04.15l3.62,22Z" fill="#4d4d4d"/>
          <path d="M196.57,129.39l-5.64-21.57c-.33.1-.67.2-1.01.29l6.64,21.28Z" fill="#4d4d4d"/>
          <path d="M202.52,127.23l-8.59-20.58c-.32.15-.63.3-.96.43l9.54,20.15Z" fill="#4d4d4d"/>
          <path d="M208.1,124.26l-11.37-19.2c-.29.2-.58.38-.88.56l12.25,18.64Z" fill="#4d4d4d"/>
          <path d="M213.22,120.53l-13.94-17.42c-.26.23-.52.45-.8.67l14.74,16.75Z" fill="#4d4d4d"/>
          <path d="M217.76,116.14l-16.23-15.32c-.22.27-.45.52-.69.78l16.92,14.54Z" fill="#4d4d4d"/>
          <path d="M221.65,111.16l-18.21-12.92c-.19.3-.38.58-.58.87l18.79,12.05Z" fill="#4d4d4d"/>
          <path d="M224.82,105.68l-19.83-10.25c-.14.32-.3.63-.46.94l20.29,9.32Z" fill="#4d4d4d"/>
          <path d="M227.19,99.82l-21.07-7.39c-.1.33-.2.66-.32,1l21.39,6.4Z" fill="#4d4d4d"/>
          <path d="M228.72,93.69l-21.9-4.4c-.06.35-.12.69-.18,1.03l22.09,3.36Z" fill="#4d4d4d"/>
          <path d="M229.38,87.4l-22.32-1.31c0,.36-.02.7-.03,1.05l22.35.26Z" fill="#4d4d4d"/>
          <path d="M229.16,81.08l-22.29,1.82c.04.34.08.69.11,1.04l22.18-2.86Z" fill="#4d4d4d"/>
          <path d="M228.06,74.85l-21.81,4.9c.09.34.17.67.24,1.01l21.57-5.92Z" fill="#4d4d4d"/>
          <path d="M226.1,68.84l-20.93,7.88c.14.32.27.64.4.97l20.53-8.86Z" fill="#4d4d4d"/>
          <path d="M223.33,63.15l-19.64,10.74c.19.29.36.6.53.91l19.1-11.65Z" fill="#4d4d4d"/>
          <path d="M219.8,57.92l-17.96,13.36c.22.27.44.55.65.82l17.31-14.19Z" fill="#4d4d4d"/>
          <path d="M200.39,69.68l15.18-16.46-15.93,15.74c.26.24.5.48.75.72Z" fill="#4d4d4d"/>
          <path d="M210.73,49.15l-13.59,17.81c.28.2.57.4.85.61l12.74-18.42Z" fill="#4d4d4d"/>
          <path d="M205.36,45.79l-10.98,19.53c.31.16.62.32.93.5l10.04-20.03Z" fill="#4d4d4d"/>
          <path d="M199.58,43.22l-8.15,20.87c.33.11.66.23.98.36l7.17-21.23Z" fill="#4d4d4d"/>
          <path d="M193.51,41.48l-5.17,21.8c.35.06.69.13,1.02.22l4.15-22.02Z" fill="#4d4d4d"/>
          <path d="M187.24,40.6l-2.08,22.3c.35.02.7.05,1.05.07l1.04-22.38Z" fill="#4d4d4d"/>
          <path d="M180.92,40.6l1.04,22.38c.35-.03.7-.05,1.05-.07l-2.09-22.3Z" fill="#4d4d4d"/>
          <path d="M174.66,41.48l4.14,22.02c.34-.08.69-.15,1.03-.22l-5.18-21.8Z" fill="#4d4d4d"/>
          <path d="M168.58,43.22l7.16,21.23c.32-.12.66-.25.99-.36l-8.15-20.87Z" fill="#4d4d4d"/>
          <path d="M162.8,45.79l10.05,20.03c.3-.18.61-.34.92-.5l-10.98-19.53Z" fill="#4d4d4d"/>
          <path d="M157.44,49.15l12.74,18.42c.27-.21.56-.42.85-.61l-13.59-17.81Z" fill="#4d4d4d"/>
          <path d="M168.52,68.96l-15.93-15.74,15.18,16.47c.25-.26.5-.5.75-.73Z" fill="#4d4d4d"/>
          <path d="M148.36,57.92l17.31,14.19c.21-.28.43-.55.65-.82l-17.96-13.36Z" fill="#4d4d4d"/>
          <path d="M144.83,63.15l19.12,11.65c.17-.31.34-.61.52-.9l-19.64-10.74Z" fill="#4d4d4d"/>
          <path d="M142.05,68.84l20.53,8.86c.13-.33.26-.65.4-.98l-20.93-7.88Z" fill="#4d4d4d"/>
          <path d="M140.11,74.85l21.57,5.92c.08-.33.16-.68.25-1.01l-21.81-4.9Z" fill="#4d4d4d"/>
          <path d="M139,81.09l22.18,2.85c.02-.35.06-.7.11-1.04l-22.29-1.81Z" fill="#4d4d4d"/>
          <path d="M138.78,87.4l22.35-.26c-.02-.35-.03-.69-.03-1.04l-22.32,1.3Z" fill="#4d4d4d"/>
          <path d="M139.44,93.69l22.09-3.36c-.06-.34-.12-.69-.18-1.03l-21.9,4.4Z" fill="#4d4d4d"/>
          <path d="M140.97,99.82l21.4-6.4c-.11-.33-.23-.67-.32-1l-21.08,7.39Z" fill="#4d4d4d"/>
          <path d="M143.35,105.68l20.29-9.32c-.16-.31-.31-.62-.46-.94l-19.83,10.25Z" fill="#4d4d4d"/>
          <path d="M146.51,111.16l18.79-12.05c-.2-.28-.39-.57-.58-.86l-18.21,12.91Z" fill="#4d4d4d"/>
          <path d="M150.4,116.15l16.93-14.54c-.23-.26-.47-.51-.69-.78l-16.23,15.32Z" fill="#4d4d4d"/>
          <path d="M154.94,120.54l14.74-16.75c-.26-.22-.54-.44-.8-.67l-13.94,17.43Z" fill="#4d4d4d"/>
          <path d="M160.06,124.26l12.26-18.64c-.29-.18-.59-.36-.89-.56l-11.37,19.2Z" fill="#4d4d4d"/>
          <path d="M165.64,127.23l9.55-20.15c-.32-.14-.64-.28-.96-.43l-8.59,20.58Z" fill="#4d4d4d"/>
          <path d="M171.59,129.39l6.64-21.28c-.33-.09-.67-.18-1.01-.29l-5.64,21.57Z" fill="#4d4d4d"/>
          <path d="M177.78,130.7l3.62-22c-.35-.04-.69-.09-1.04-.15l-2.58,22.15Z" fill="#4d4d4d"/>
        </g>
        <polygon points="0 248.63 46.72 248.18 93.44 247.93 186.88 247.73 280.33 247.93 327.04 248.18 373.77 248.63 327.04 249.07 280.33 249.32 186.88 249.53 93.44 249.32 46.72 249.07 0 248.63" fill="#1d1e1c"/>
        <g>
          <path d="M13.6,194.32h9.41v18.11h.18c.55-1.77,1.1-3.6,1.78-5.5l4.53-12.6h10.4l-8.87,18.11,8.93,23.12h-10.34l-4.95-15.85-1.65,3.11v12.73h-9.41v-41.23Z" fill="#1d1e1c"/>
          <path d="M61.53,218.06h-8.99v9.29h10.09v8.2h-19.58v-41.23h18.9v8.2h-9.41v7.7h8.99v7.84Z" fill="#1d1e1c"/>
          <path d="M67.34,226.12c1.78.98,4.77,1.59,7.16,1.59,3.55,0,5.14-1.59,5.14-3.67,0-2.57-1.71-3.74-5.32-5.88-6.67-3.97-7.76-8.5-7.76-11.55,0-6.79,4.4-12.66,13.94-12.66,2.81,0,5.5.73,6.79,1.46l-1.35,8.13c-1.22-.73-3-1.4-5.38-1.4-3.18,0-4.71,1.65-4.71,3.54,0,1.77.85,2.94,5.51,5.57,5.68,3.18,7.58,7.52,7.58,11.74,0,7.77-5.81,12.9-14.5,12.9-3.55,0-6.85-.79-8.32-1.59l1.22-8.19Z" fill="#1d1e1c"/>
          <path d="M97.55,203.13h-7.15v-8.81h23.85v8.81h-7.22v32.42h-9.48v-32.42Z" fill="#1d1e1c"/>
          <path d="M123.72,227.41l-1.41,8.14h-9.17l8.74-41.23h11.5l7.52,41.23h-9.18l-1.34-8.14h-6.67ZM129.65,220.13l-1.04-7.83c-.3-2.32-.85-6.79-1.22-9.35h-.12c-.42,2.56-1.04,7.15-1.4,9.35l-1.22,7.83h5.01Z" fill="#1d1e1c"/>
          <path d="M145.13,235.55v-41.23h8.62l5.82,14.81c1.04,2.62,3,7.83,4.03,11.01h.13c-.25-3.37-.92-11.38-.92-19.15v-6.67h8.26v41.23h-8.63l-5.56-13.89c-1.29-3.18-3.18-8.62-3.91-11.68h-.13c.19,3.55.55,10.4.55,18.47v7.1h-8.25Z" fill="#1d1e1c"/>
          <path d="M196.5,218.06h-9v9.29h10.09v8.2h-19.57v-41.23h18.89v8.2h-9.41v7.7h9v7.84Z" fill="#1d1e1c"/>
          <path d="M203.22,194.93c2.45-.49,5.82-.79,9.05-.79,5.2,0,9.17.61,12.11,3.24,2.63,2.26,3.73,5.81,3.73,9.24,0,4.77-1.52,8.19-3.91,10.57-2.69,2.57-6.97,3.67-10.15,3.67h-1.4v14.69h-9.42v-40.62ZM212.64,213.22c.37.06.74.06,1.1.06,3.8,0,5.02-2.81,5.02-5.81,0-3.3-1.35-5.75-4.4-5.75-.62,0-1.29.12-1.72.31v11.19Z" fill="#1d1e1c"/>
          <path d="M237.77,227.41l-1.4,8.14h-9.17l8.74-41.23h11.5l7.52,41.23h-9.18l-1.35-8.14h-6.67ZM243.71,220.13l-1.04-7.83c-.3-2.32-.85-6.79-1.22-9.35h-.13c-.42,2.56-1.03,7.15-1.41,9.35l-1.22,7.83h5.02Z" fill="#1d1e1c"/>
          <path d="M257.95,230.04l12.6-27.27v-.18h-11.38v-8.26h22.02v7.09l-11.86,25.69v.19h11.8v8.26h-23.17v-5.51Z" fill="#1d1e1c"/>
          <path d="M293.3,227.41l-1.41,8.14h-9.18l8.75-41.23h11.5l7.52,41.23h-9.18l-1.34-8.14h-6.66ZM299.22,220.13l-1.03-7.83c-.3-2.32-.85-6.79-1.22-9.35h-.12c-.43,2.56-1.04,7.15-1.4,9.35l-1.22,7.83h5.01Z" fill="#1d1e1c"/>
          <path d="M314.7,194.93c2.75-.49,6.24-.79,9.6-.79,4.53,0,8.87.55,11.74,3.12,2.69,2.38,3.43,5.14,3.43,8.8,0,4.03-2.02,8.19-6.24,10.15v.12c2.69,1.23,4.03,3.67,4.77,7.71.73,4.09,1.96,9.9,2.76,11.5h-9.92c-.48-1.11-1.46-5.39-2.01-9.73-.62-4.9-1.72-6.05-3.79-6.05h-.92v15.78h-9.42v-40.62ZM324.12,212.48h1.22c3.06,0,4.59-2.63,4.59-5.62s-1.16-5.26-4.1-5.38c-.61,0-1.34.06-1.71.24v10.76Z" fill="#1d1e1c"/>
          <path d="M354.57,194.32v41.23h-9.47v-41.23h9.47Z" fill="#1d1e1c"/>
          <path d="M366.82,197.68c0,2.51-2,4.53-4.54,4.53s-4.53-2.03-4.53-4.53,2.01-4.52,4.56-4.52,4.51,1.99,4.51,4.52ZM358.84,197.68c0,1.99,1.48,3.58,3.47,3.58,1.94.02,3.41-1.59,3.41-3.56s-1.47-3.61-3.46-3.61-3.42,1.62-3.42,3.59ZM361.56,200.01h-.95v-4.52c.37-.05.92-.14,1.62-.14.81,0,1.18.14,1.51.38.26.17.46.52.46.96,0,.51-.45.89-.96,1.06v.05c.47.14.66.49.81,1.11.15.66.22.95.34,1.09h-1.03c-.15-.17-.23-.55-.35-1.09-.08-.47-.38-.69-.95-.69h-.5v1.79ZM361.59,197.47h.5c.58,0,1.05-.18,1.05-.64,0-.43-.26-.69-.96-.69-.26,0-.45.02-.59.06v1.27Z" fill="#1d1e1c"/>
        </g>
        <g>
          <path d="M176.84,169.69h-.02l-1.25.67-.22-.95,1.63-.9h1.06v7.44h-1.2v-6.26Z" fill="#706f6e"/>
          <path d="M180.23,175.01c.23,0,.39-.02.61-.06.33-.08.68-.25.94-.52.37-.36.66-.98.79-1.78h-.03c-.25.31-.62.54-1.12.54-.95,0-1.7-.86-1.7-2.22s.76-2.56,2.06-2.56,2,1.3,2,3.02c0,1.59-.46,2.76-1.12,3.52-.45.54-1.09.91-1.79,1.03-.23.05-.44.05-.65.05v-1.03ZM181.7,169.32c-.4,0-.78.5-.78,1.56.01.89.31,1.45.84,1.45.31,0,.6-.22.73-.5.05-.14.07-.28.07-.65,0-1.25-.35-1.86-.84-1.86h-.01Z" fill="#706f6e"/>
          <path d="M186.76,175.95v-1.9h-2.52v-.83l2.43-4.7h1.18v4.55h.77v.98h-.77v1.9h-1.09ZM186.76,173.07v-1.79c0-.44.03-.89.07-1.33h-.04c-.2.49-.36.84-.57,1.27l-.9,1.82v.03h1.44Z" fill="#706f6e"/>
          <path d="M192.76,169.57h-1.99l-.23,1.63c.08,0,.16,0,.26,0,.35,0,.99.17,1.4.56.4.39.63.95.63,1.71,0,1.46-.94,2.59-2.44,2.59-.49,0-1.04-.13-1.34-.31l.21-.98c.26.14.66.28,1.06.28.75,0,1.3-.51,1.3-1.46,0-1.09-.73-1.49-1.65-1.49-.23,0-.4.01-.55.04l.43-3.6h2.89v1.06Z" fill="#706f6e"/>
        </g>
        <g>
          <path d="M174.54,85.93s-10.46,11.6,3.67,17.43c.16-4.63,4.03-9.43,7.6-9.03,0,0-2.53,4.17-2.12,7.69.31,1.42,1.21,1.77,4.96,1.39,3.75-.37,7.21-3.24,8.41-8.06,1.19-4.81-1.39-9.64-3.85-11.43,1.53,4.91,1.17,11.5-4.79,13.12,1.82-4.06,3.63-9.08.49-14.69-3.15-5.61-3.97-7.62-2.57-11.31-3.31,2-15.38,10.78-7.32,23.95-1.86-.09-5.59-1.45-4.48-9.06Z" fill="#e10b17"/>
          <path d="M183.77,95.99s-2.35.36-3.69,4.33c-.47,1.53-.64,2.93,1.01,2.9,1.64-.03,1.78-1,1.64-3.35-.13-2.36,1.04-3.87,1.04-3.87Z" fill="#e10b17"/>
          <polygon points="184.12 106.04 184.04 106.04 171.88 106.04 171.88 110.63 175.63 111.04 177.88 114.8 179.91 114.8 181.8 139.94 184.04 139.94 184.12 139.94 186.35 139.94 188.26 114.8 190.29 114.8 192.54 111.04 196.29 110.63 196.29 106.04 184.12 106.04" fill="#1d1e1c"/>
        </g>
        <g>
          <path d="M264.48,78.14c-.24-2.3-1.69-4.18-3.64-5.08,1.53-1.52,2.24-3.78,1.69-6.03-.56-2.23-2.25-3.9-4.32-4.52,1.31-1.72,1.7-4.06.83-6.2-.86-2.14-2.78-3.55-4.9-3.88,1.05-1.89,1.11-4.25-.04-6.26-1.15-2-3.24-3.13-5.39-3.16.77-2.01.51-4.37-.92-6.19-1.42-1.82-3.64-2.64-5.78-2.38.48-2.1-.1-4.39-1.77-6-1.66-1.6-3.98-2.11-6.06-1.55.19-2.14-.71-4.34-2.58-5.7-1.88-1.36-4.24-1.53-6.22-.69-.11-2.15-1.31-4.2-3.36-5.28-2.03-1.08-4.39-.93-6.24.18-.41-2.12-1.88-3.97-4.05-4.77-2.17-.79-4.49-.31-6.17,1.04-.7-2.04-2.42-3.68-4.68-4.15-2.26-.48-4.49.31-5.96,1.89-.69-1.37-1.86-2.46-3.33-3.04.53-1.46,1.38-2.31,1.38-2.31-2.72-1.46-4.58-.04-4.58-.04-.28-2.12-1.97-4.01-4.32-4.01s-4.03,1.88-4.31,4.01c0,0-1.87-1.42-4.6.04,0,0,.86.86,1.39,2.31-1.46.57-2.63,1.68-3.33,3.04-1.47-1.58-3.7-2.37-5.97-1.89-2.26.48-3.98,2.11-4.67,4.15-1.68-1.36-4-1.84-6.17-1.04-2.17.79-3.64,2.65-4.05,4.77-1.85-1.11-4.22-1.26-6.26-.18-2.04,1.09-3.24,3.13-3.35,5.28-1.98-.85-4.35-.66-6.22.69-1.87,1.36-2.77,3.55-2.58,5.7-2.08-.56-4.4-.05-6.06,1.55-1.66,1.61-2.25,3.91-1.76,6-2.14-.26-4.37.56-5.79,2.38-1.42,1.82-1.68,4.17-.91,6.19-2.15.03-4.24,1.16-5.39,3.16-1.16,2-1.09,4.37-.05,6.26-2.13.33-4.03,1.74-4.9,3.88-.86,2.14-.46,4.48.83,6.2-2.06.63-3.76,2.28-4.32,4.52-.56,2.24.16,4.5,1.68,6.03-1.96.9-3.4,2.78-3.64,5.08-.23,2.23.73,4.32,2.36,5.62v2.28c0,1.81,1.47,3.27,3.27,3.27h44.05c2.36-15.19,11.73-27.24,23.74-30.66v-.02c6.49-1.55,6.97-6.42,6.97-6.42,0,0,.48,4.86,6.96,6.42h0c12.02,3.42,21.4,15.47,23.78,30.68h44.04c1.8,0,3.27-1.46,3.27-3.27v-2.28c1.64-1.3,2.59-3.39,2.36-5.62Z"/>
          <path d="M259.21,76.56l-1.1-6.24c.63-.63.87-1.5.66-2.36-.21-.84-.84-1.5-1.69-1.76l-1.96-6.03c.53-.7.65-1.61.32-2.41-.32-.82-1.04-1.39-1.91-1.52l-2.79-5.7c.44-.77.43-1.69,0-2.44-.44-.76-1.22-1.22-2.11-1.24l-3.54-5.25c.31-.82.19-1.73-.35-2.42-.47-.59-1.19-.94-1.95-.94-.1,0-.21,0-.31.02l-4.24-4.71c.2-.86-.06-1.74-.69-2.35-.46-.45-1.08-.69-1.71-.69-.22,0-.45.03-.65.08l-4.85-4.07c.07-.88-.3-1.71-1-2.23-.53-.38-1.08-.47-1.45-.47-.33,0-.68.07-.99.21l-5.38-3.36c-.05-.89-.53-1.66-1.3-2.07-.35-.19-.75-.29-1.14-.29-.45,0-.9.12-1.3.36l-5.79-2.58c-.17-.87-.76-1.57-1.58-1.87-.27-.09-.55-.15-.84-.15-.56,0-1.13.2-1.57.56l-6.1-1.74c-.28-.84-.96-1.45-1.82-1.63-.17-.04-.34-.06-.51-.06-.68,0-1.34.3-1.82.81l-6.27-.88c-.28-.55-.74-.97-1.3-1.19l-1.73-3.82-3.89-1.62c-.03-.23-.21-.64-.49-.64s-.45.41-.48.64l-3.89,1.62-1.73,3.82c-.56.23-1.02.65-1.3,1.2l-6.28.88c-.47-.51-1.13-.8-1.81-.8-.17,0-.35.02-.52.06-.85.18-1.53.79-1.82,1.63l-6.1,1.74c-.45-.36-1.01-.56-1.57-.56-.29,0-.57.06-.84.14-.82.31-1.41,1-1.58,1.87l-5.78,2.58c-.39-.23-.85-.36-1.3-.36-.4,0-.79.1-1.15.29-.77.41-1.25,1.18-1.3,2.07l-5.37,3.36c-.31-.14-.65-.21-.99-.21-.37,0-.91.09-1.44.47-.71.52-1.08,1.35-1,2.24l-4.86,4.07c-.21-.05-.44-.08-.65-.08-.65,0-1.26.24-1.71.69-.64.61-.89,1.48-.68,2.35l-4.25,4.71c-.1-.01-.21-.02-.31-.02-.77,0-1.48.35-1.96.94-.53.69-.66,1.59-.35,2.42l-3.55,5.25c-.88.01-1.67.47-2.11,1.23-.44.76-.44,1.67,0,2.45l-2.78,5.69c-.87.14-1.59.71-1.92,1.51-.32.82-.21,1.72.33,2.43l-1.96,6.03c-.85.26-1.48.92-1.69,1.76-.21.85.04,1.73.66,2.36l-1.1,6.24c-.81.38-1.33,1.12-1.43,1.98-.09.84.26,1.66.93,2.19l1.46,3.03v1.69h40.79c3.86-15.31,13.53-27.07,25.53-30.7v-.03c7.3-1.85,7.84-7.65,7.84-7.65,0,0,.55,5.81,7.84,7.65v.02c12.01,3.62,21.69,15.39,25.56,30.71h40.78v-1.69l1.46-3.03c.67-.53,1.02-1.35.93-2.19-.09-.87-.62-1.61-1.43-1.99Z" fill="#fff"/>
          <path d="M258.67,77.73l-.73-.94-1.11-6.25.36-1.13c.31-.31.43-.72.33-1.13-.1-.41-.4-.72-.82-.85l-.85-.83-1.95-6.03.2-1.18c.26-.35.32-.77.16-1.16-.16-.4-.5-.66-.93-.73l-.95-.71-2.79-5.7.03-1.19c.21-.38.21-.81,0-1.17-.22-.37-.58-.58-1.02-.6l-1.05-.56-3.55-5.25-.13-1.19c.15-.4.09-.83-.17-1.16-.23-.29-.56-.45-.93-.45-.06,0-.09,0-.15,0l-1.12-.41-4.23-4.71-.3-1.15c.09-.42-.03-.84-.33-1.13-.22-.21-.51-.32-.82-.32-.11,0-.21.02-.33.04l-1.15-.25-4.85-4.08-.46-1.1c.04-.43-.14-.82-.48-1.07-.2-.15-.43-.22-.68-.22-.16,0-.33.03-.49.11l-1.18-.09-5.38-3.36-.6-1.02c-.03-.44-.26-.8-.62-1-.17-.09-.35-.14-.54-.14-.22,0-.44.06-.64.18l-1.19.08-5.79-2.58-.73-.93c-.09-.43-.37-.75-.76-.9-.13-.04-.27-.07-.4-.07-.26,0-.54.1-.76.28l-1.16.23-6.09-1.75-.87-.82c-.14-.41-.45-.7-.87-.79-.08-.01-.16-.02-.24-.02-.33,0-.63.14-.87.38l-1.13.4-6.27-.88-.97-.7c-.13-.27-.35-.48-.62-.58l-.7-.67-1.52-3.36-3.41-1.42-3.41,1.42-1.52,3.36-.7.67c-.26.1-.48.31-.62.58l-.97.7-6.27.88-1.13-.4c-.23-.25-.55-.38-.87-.38-.08,0-.16,0-.25.02-.41.09-.73.38-.87.79l-.87.82-6.08,1.75-1.17-.23c-.22-.18-.49-.28-.76-.28-.14,0-.27.02-.4.07-.39.15-.67.47-.75.9l-.74.93-5.8,2.58-1.19-.08c-.19-.12-.41-.18-.63-.18-.19,0-.38.05-.54.14-.37.19-.6.56-.62,1l-.61,1.02-5.38,3.36-1.18.09c-.15-.07-.33-.11-.49-.11-.18,0-.43.04-.68.22-.34.25-.51.64-.47,1.08l-.46,1.1-4.86,4.08-1.16.25c-.1-.02-.22-.04-.32-.04-.31,0-.61.12-.82.32-.3.3-.42.71-.32,1.13l-.3,1.15-4.24,4.71-1.12.41c-.05,0-.1,0-.14,0-.38,0-.72.17-.94.45-.26.33-.32.76-.17,1.16l-.13,1.19-3.55,5.25-1.04.56c-.43.01-.81.23-1.01.58-.21.37-.21.8,0,1.18l.03,1.19-2.78,5.7-.96.71c-.43.07-.78.33-.93.72-.16.4-.1.82.17,1.16l.2,1.18-1.96,6.03-.85.83c-.42.12-.71.43-.81.84-.11.41.01.83.32,1.13l.36,1.13-1.11,6.24-.72.95c-.4.19-.65.53-.69.95-.05.4.13.8.45,1.05l.36.45,1.45,3.02.13.57v.39h38.51c4.21-15.31,14.06-27.03,26.21-30.71v-.02c7.59-1.93,8.14-7.97,8.14-7.97,0,0,.57,6.04,8.15,7.97h0c12.16,3.68,22.03,15.4,26.24,30.72h38.51v-.39l.12-.55,1.46-3.04.35-.44c.33-.26.49-.65.45-1.05-.04-.42-.3-.77-.68-.95Z" fill="#e10b17"/>
          <path d="M121.79,69.75l1.57-3.44,6.64,3.04.03-.07c-.56-.5-1.13-1.01-1.72-1.57l-3.86-3.77,1.74-3.8,5.16,6.29,9.98.62-1.73,3.78-6.64-.85.87,1.13,4.67,2.14-1.58,3.44-15.12-6.93Z" fill="#fff"/>
          <path d="M139.85,56.45l-1.94,3.05,3.16,2.02,2.19-3.42,2.78,1.79-4.23,6.63-14.01-8.97,4.08-6.4,2.79,1.79-2.05,3.19,2.62,1.68,1.95-3.05,2.66,1.7Z" fill="#fff"/>
          <path d="M143.92,56.36c.77-.28,1.74-1.04,2.37-1.76.93-1.09.87-1.99.23-2.54-.78-.67-1.59-.45-3.19.07-2.96.98-4.64.12-5.57-.68-2.07-1.79-2.71-4.68-.2-7.58.75-.86,1.67-1.48,2.23-1.68l2.13,2.55c-.55.18-1.21.54-1.84,1.27-.84.97-.74,1.87-.15,2.37.54.47,1.12.51,3.15-.21,2.47-.89,4.28-.32,5.57.78,2.38,2.05,2.42,5.18.13,7.82-.93,1.09-2.04,1.88-2.67,2.12l-2.18-2.53Z" fill="#fff"/>
          <path d="M146.26,40.4l-2.21,1.83-2.28-2.72,7.37-6.14,2.28,2.73-2.23,1.86,8.38,10.05-2.93,2.44-8.37-10.05Z" fill="#fff"/>
          <path d="M160.86,41.79l1.1,3.14-3.22,1.8-5.04-16.24,4.04-2.26,10.75,13.05-3.23,1.8-2.06-2.61-2.34,1.31ZM161.52,38.07l-1.91-2.56c-.56-.76-1.64-2.22-2.27-3.05l-.04.02c.36.99,1.04,2.73,1.35,3.58l1.11,3,1.77-.98Z" fill="#fff"/>
          <path d="M169.11,41.04l-4.1-16.12,3.36-.86,3.73,5.21c.67.92,1.95,2.76,2.66,3.91h.05c-.43-1.3-1.49-4.37-2.26-7.41l-.67-2.61,3.22-.82,4.1,16.13-3.37.85-3.55-4.88c-.82-1.12-2.09-3.07-2.69-4.18h-.05c.42,1.38,1.25,4.02,2.05,7.18l.7,2.78-3.22.81Z" fill="#fff"/>
          <path d="M188.5,31.55l-3.62-.08-.08,3.75,4.06.09-.07,3.3-7.87-.17.37-16.63,7.59.17-.07,3.3-3.79-.08-.06,3.11,3.61.07-.06,3.16Z" fill="#fff"/>
          <path d="M194.35,22.89c1,.06,2.34.29,3.6.63,2.02.54,3.5,1.19,4.37,2.52.79,1.16.84,2.65.49,3.99-.5,1.86-1.44,3.04-2.62,3.72-1.31.72-3.09.71-4.32.38-.17-.04-.36-.1-.55-.15l-1.53,5.72-3.65-.98,4.23-15.83ZM196.1,31c.13.06.28.1.43.14,1.47.39,2.23-.58,2.54-1.75.35-1.28.08-2.38-1.1-2.69-.24-.06-.52-.09-.69-.06l-1.17,4.36Z" fill="#fff"/>
          <path d="M203.91,39.94l-2.04,2.63-3.25-1.74,10.92-13.03,4.08,2.18-5.16,16.1-3.25-1.74,1.07-3.15-2.37-1.25ZM207.4,38.46l1.12-2.98c.33-.89.98-2.58,1.34-3.56l-.04-.02c-.64.83-1.73,2.35-2.28,3.07l-1.91,2.55,1.78.95Z" fill="#fff"/>
          <path d="M210.14,44.68l10.97-5.13.05-.06-3.49-2.95,2.15-2.55,6.76,5.71-1.85,2.18-10.33,4.84-.05.06,3.63,3.07-2.15,2.54-7.12-6.02,1.44-1.7Z" fill="#fff"/>
          <path d="M221.07,53.46l-2.89,1.66-2.36-2.84,15.04-7.94,2.96,3.56-10.86,12.97-2.35-2.84,2.17-2.52-1.71-2.06ZM224.85,53.41l2.16-2.34c.65-.69,1.89-2.02,2.59-2.8l-.03-.04c-.91.53-2.49,1.53-3.26,1.98l-2.74,1.64,1.28,1.55Z" fill="#fff"/>
          <path d="M237.63,53.48c.73.86,1.54,2.01,2.23,3.17.91,1.57,1.6,3.19,1.29,4.71-.28,1.42-1.09,2.24-2.37,2.98-1.4.83-3.26.97-4.8-.09l-.04.03c.12,1.19-.47,2.15-1.72,3.23-1.28,1.09-3.05,2.7-3.45,3.3l-2.01-3.44c.28-.39,1.58-1.6,2.98-2.68,1.58-1.21,1.76-1.83,1.33-2.55l-.19-.31-5.49,3.21-1.91-3.27,14.14-8.28ZM233.43,60.32l.25.43c.62,1.07,1.85,1.06,2.89.44,1.04-.61,1.6-1.47,1.04-2.52-.12-.2-.3-.45-.43-.54l-3.75,2.19Z" fill="#fff"/>
          <path d="M245.92,68.86l-15.24,6.68-1.53-3.5,15.23-6.67,1.53,3.49Z" fill="#fff"/>
        </g>
        <g>
          <path d="M222.49,90.61h-7.94c-.28,2.15,1.89,2.95,1.89,2.95h12.09s2.17-.81,1.89-2.95h-7.94Z" fill="#1d1e1c"/>
          <path d="M222.49,94.5h-6.21c-.22,1.68,1.47,2.31,1.47,2.31h9.47s1.7-.63,1.48-2.31h-6.22Z" fill="#1d1e1c"/>
          <path d="M252.61,90.61h-7.94c-.28,2.15,1.89,2.95,1.89,2.95h12.09s2.18-.81,1.89-2.95h-7.94Z" fill="#1d1e1c"/>
          <path d="M252.61,94.5h-6.22c-.22,1.68,1.48,2.31,1.48,2.31h9.46s1.7-.63,1.48-2.31h-6.21Z" fill="#1d1e1c"/>
          <path d="M115.56,90.61h-7.94c-.28,2.15,1.88,2.95,1.88,2.95h12.1s2.16-.81,1.88-2.95h-7.94Z" fill="#1d1e1c"/>
          <path d="M115.56,94.5h-6.22c-.22,1.68,1.48,2.31,1.48,2.31h9.47s1.7-.63,1.48-2.31h-6.21Z" fill="#1d1e1c"/>
          <path d="M145.16,90.61h-7.94c-.28,2.15,1.89,2.95,1.89,2.95h12.1s2.17-.81,1.89-2.95h-7.94Z" fill="#1d1e1c"/>
          <path d="M145.16,94.5h-6.22c-.22,1.68,1.48,2.31,1.48,2.31h9.47s1.7-.63,1.48-2.31h-6.21Z" fill="#1d1e1c"/>
          <path d="M287.27,179.78c-8.61.25-17.21.36-25.8.55l-25.8.32c-17.2.2-34.39.23-51.59.26-17.2-.03-34.4-.06-51.6-.26l-25.79-.33c-8.6-.18-17.2-.29-25.8-.54,8.6-.26,17.2-.37,25.8-.56l5.02-.06v-81.42h7.69v81.33l13.08-.16c2.94-.04,5.89-.07,8.83-.09v-81.08h7.7v81.02c11.69-.08,23.38-.1,35.07-.12,11.52.02,23.04.04,34.56.12v-81.02h7.7v81.07c3.11.02,6.22.05,9.33.09l13.09.16v-81.32h7.69v81.42l5.02.06c8.59.19,17.19.3,25.8.56Z" fill="#1d1e1c"/>
        </g>
        <g>
          <path d="M158.98,158.13l-.55,1.95s-.33,1.22,1.38,1.68l4.23-2.07s.73,1.09,1.23.87l1.82-.73s1.31.69-1.78,3.66c0,0-.3.33-1.37.73,0,0-.72.29-1.06.98,0,0-.79,1.52-2.02,2.15,0,0-4.65,2.2-5.07,3.34,0,0-.94,1.79-.87,2.59l26.76-11.78-15.87-7.04-6.83,3.66Z" fill="url(#uuid-5c4b89f2-66f2-422e-a524-257f48d205e9)"/>
          <path d="M210.22,158.07l.55,1.95s.33,1.22-1.38,1.68l-4.23-2.07s-.73,1.09-1.23.87l-1.82-.73s-1.31.69,1.78,3.66c0,0,.3.33,1.37.73,0,0,.72.29,1.06.98,0,0,.79,1.52,2.02,2.15,0,0,4.65,2.2,5.07,3.34,0,0,.94,1.79.87,2.59l-26.76-11.78,15.87-7.04,6.83,3.66Z" fill="url(#uuid-bc6cdf5e-e4a0-439f-9d43-76912d3d43b6)"/>
          <g>
            <path d="M214.2,173.69l-25.68-11.15-2.49-1.05,23.36-10.51-1.99-18.04-1.22-.64-18.87,10.16c-1.04-.52-1.94-.63-2.71-.59-.77-.04-1.68.07-2.71.59l-18.87-10.16-1.22.64-1.99,18.04,23.47,10.56-2.95,1.33-25.01,10.85s-.49,1.03.94,1.08l28.5-12.03,28.48,12.03c1.45-.06.96-1.1.96-1.1" fill="#bbbbba"/>
            <path d="M163.49,149.27l19.2,8.38c0,1.05.86,1.92,1.92,1.92s1.91-.87,1.91-1.92l19.2-8.38-1.64-17.88-17.71,7.71c0,.98-.78,1.76-1.76,1.76s-1.77-.78-1.77-1.76l-17.7-7.71-1.65,17.88Z" fill="#fff"/>
            <path d="M184.61,160.11c-1.24,0-2.26-.91-2.44-2.09l-18.89-8.26c-.22-.09-.35-.31-.34-.54l1.66-17.88c0-.19.11-.34.26-.44.15-.08.34-.09.5-.02l17.69,7.71c.2.09.34.28.34.5,0,.68.53,1.22,1.21,1.22s1.22-.54,1.22-1.22c0-.22.12-.41.32-.5l17.71-7.71c.17-.07.35-.06.49.02.16.1.27.25.27.44l1.65,17.88c.03.23-.11.46-.32.54l-18.9,8.26c-.18,1.18-1.2,2.09-2.43,2.09M164.09,148.91l18.82,8.22c.2.1.32.29.32.51,0,.74.61,1.36,1.37,1.36s1.36-.62,1.36-1.36c0-.22.13-.42.33-.51l18.84-8.22-1.55-16.71-16.68,7.27c-.2,1.1-1.15,1.95-2.29,1.95s-2.12-.84-2.29-1.95l-16.71-7.27-1.52,16.71Z" fill="#1d1e1c"/>
            <path d="M184.62,158.3s-2.31-4.12-11.05-6.24c-8.75-2.12-8.43-5.07-8.43-5.07l1.7-15.69s-.29,2.2,7.7,3.8c7.97,1.58,10.08,4.66,10.08,4.66" fill="#fff"/>
            <path d="M184.61,158.3c-.9-1.36-2.24-2.37-3.59-3.22-1.39-.85-2.88-1.53-4.41-2.05-.76-.28-1.55-.5-2.32-.72-.8-.2-1.6-.38-2.37-.61-1.56-.47-3.11-1.02-4.52-1.87-.68-.43-1.35-.94-1.86-1.61-.23-.33-.44-.72-.47-1.16.03-.45.09-.82.13-1.22l.53-4.87,1.1-9.7.06.02c0,.39.29.76.6,1.04.29.29.66.51,1.01.73.72.4,1.51.72,2.32.98,1.59.55,3.25.84,4.9,1.2,1.65.39,3.27.9,4.81,1.61,1.52.7,3.04,1.57,4.13,2.87h-.02s-.01.03-.01.01c-.53-.66-1.22-1.16-1.92-1.62-.71-.45-1.45-.84-2.23-1.18-1.54-.67-3.14-1.17-4.79-1.55-1.64-.35-3.3-.66-4.9-1.23-.8-.28-1.59-.6-2.32-1.03-.37-.2-.72-.45-1.03-.74-.28-.29-.58-.65-.6-1.11,0-.01.01-.03.03-.03.02,0,.03.02.03.03l-1.02,9.72-.51,4.85c-.05.4-.11.82-.12,1.21.02.37.21.74.44,1.07.48.64,1.13,1.14,1.82,1.56,1.39.83,2.92,1.39,4.48,1.84,1.55.46,3.15.79,4.69,1.36,1.54.55,3.02,1.24,4.4,2.12,1.35.87,2.68,1.92,3.59,3.29h-.02s-.01,0-.01,0" fill="#1d1e1c"/>
            <path d="M184.62,139.75s2.09-3.08,10.08-4.66c7.98-1.59,7.7-3.8,7.7-3.8l1.68,15.69s.32,2.95-8.42,5.07c-8.74,2.12-11.04,6.24-11.04,6.24" fill="#fff"/>
            <path d="M184.61,139.74c1.07-1.3,2.59-2.18,4.12-2.88,1.54-.7,3.14-1.21,4.79-1.6,1.65-.38,3.31-.67,4.9-1.2.79-.26,1.58-.58,2.32-.99.36-.2.69-.44,1.01-.72.29-.29.59-.64.59-1.04h.1c.33,3.24.69,6.46,1.05,9.7l.56,4.85c.03.41.09.78.13,1.22-.03.44-.24.82-.48,1.15-.49.68-1.16,1.19-1.85,1.62-1.41.85-2.97,1.4-4.53,1.87-1.56.46-3.15.77-4.69,1.32-1.53.54-3.03,1.19-4.4,2.05-1.37.85-2.68,1.87-3.58,3.22t-.03,0h0c.9-1.38,2.2-2.42,3.57-3.3,1.38-.88,2.87-1.57,4.4-2.12.76-.28,1.54-.53,2.33-.73.8-.2,1.58-.38,2.37-.62,1.55-.45,3.09-1.01,4.47-1.84.68-.42,1.34-.91,1.8-1.56.24-.33.43-.69.46-1.07-.03-.39-.08-.81-.13-1.21l-.48-4.85c-.34-3.24-.68-6.47-1.06-9.71h0s.01-.06.05-.06c.02-.01.04.01.05.04-.02.47-.31.82-.6,1.13-.33.29-.68.54-1.03.75-.75.42-1.54.75-2.33,1.03-1.6.54-3.26.87-4.9,1.21-1.64.38-3.27.88-4.8,1.55-1.52.7-3.04,1.52-4.12,2.8t-.03,0h0Z" fill="#1d1e1c"/>
            <path d="M184.62,158.13s-2.24-4.13-10.71-6.24c-8.48-2.12-8.16-5.07-8.16-5.07l1.65-15.69s-.27,2.2,7.43,3.78c7.74,1.59,9.78,4.67,9.78,4.67" fill="#fff"/>
            <path d="M184.61,158.14c-.88-1.36-2.16-2.38-3.49-3.25-1.36-.86-2.83-1.53-4.34-2.07-.76-.26-1.51-.5-2.28-.69-.77-.21-1.57-.39-2.33-.63-1.54-.5-3.06-1.05-4.41-1.96-.67-.45-1.31-.98-1.75-1.68-.21-.34-.39-.75-.33-1.19l.12-1.19.52-4.78,1.05-9.59.06.02c0,.4.28.75.56,1.02.3.3.62.53.98.74.69.41,1.46.72,2.24.99,1.55.54,3.16.84,4.76,1.21,1.6.38,3.19.9,4.68,1.59,1.47.72,2.94,1.57,3.98,2.89h-.02s-.01.01-.01.01c-.51-.66-1.17-1.16-1.86-1.61-.67-.45-1.4-.84-2.15-1.19-1.49-.68-3.06-1.17-4.65-1.55-1.59-.37-3.22-.68-4.78-1.26-.77-.26-1.53-.58-2.25-1.02-.35-.21-.68-.45-.99-.76-.28-.29-.55-.64-.56-1.09,0-.02,0-.03.03-.03.02,0,.03.01.03.03v.02l-.99,9.59-.48,4.78-.12,1.18c-.06.39.1.76.29,1.1.41.66,1.05,1.18,1.7,1.63,1.32.87,2.86,1.44,4.38,1.92,1.53.45,3.1.81,4.62,1.38,1.5.55,2.95,1.25,4.3,2.13,1.34.88,2.6,1.93,3.49,3.29h-.02s-.01.01-.01.01Z" fill="#1d1e1c"/>
            <path d="M184.62,139.58s2.03-3.08,9.75-4.67c7.74-1.57,7.46-3.78,7.46-3.78l1.64,15.69s.3,2.95-8.17,5.08c-8.45,2.11-10.68,6.24-10.68,6.24" fill="#fff"/>
            <path d="M184.61,139.58c1.02-1.3,2.49-2.18,3.96-2.89,1.5-.69,3.07-1.19,4.67-1.59,1.6-.39,3.22-.68,4.78-1.22.78-.27,1.53-.58,2.24-.99.34-.22.68-.46.97-.74.28-.26.55-.64.57-1.02h.09c.31,3.19.67,6.37,1.01,9.57l.52,4.78.12,1.19c.08.45-.11.85-.3,1.19-.44.7-1.09,1.23-1.75,1.68-1.36.9-2.88,1.46-4.42,1.96-1.55.46-3.11.79-4.62,1.35-1.51.53-2.97,1.2-4.32,2.05-1.34.87-2.63,1.88-3.48,3.24h-.03c.87-1.37,2.13-2.42,3.46-3.32,1.35-.88,2.8-1.57,4.32-2.12.76-.29,1.51-.53,2.31-.74.76-.21,1.55-.4,2.31-.63,1.53-.48,3.03-1.05,4.38-1.91.65-.45,1.28-.97,1.68-1.63.21-.34.36-.72.31-1.09l-.14-1.19-.47-4.78c-.32-3.21-.63-6.4-.99-9.59h0s0-.05.03-.05c.03,0,.05,0,.06.03h0c-.01.47-.3.82-.58,1.12-.3.29-.64.54-.99.75-.7.43-1.47.76-2.27,1.02-1.53.56-3.16.87-4.77,1.24-1.59.38-3.15.87-4.65,1.55-1.46.69-2.95,1.53-3.98,2.8h-.03Z" fill="#1d1e1c"/>
          </g>
          <path d="M166.31,146.71s-.29,2.92,7.91,5c8.22,2.1,10.39,6.16,10.39,6.16v-18.29s-1.98-3.04-9.47-4.6c-7.34-1.53-7.23-3.65-7.21-3.73l-1.62,15.46Z" fill="none"/>
          <g>
            <path d="M184.61,157.87c-.87-1.32-2.1-2.35-3.41-3.2-1.31-.84-2.73-1.51-4.21-2.04-1.47-.56-3.01-.84-4.52-1.34-1.5-.47-2.98-1.05-4.3-1.95-.64-.45-1.25-.98-1.65-1.69-.19-.36-.34-.78-.25-1.19l.13-1.17.49-4.68,1.01-9.39h.06c.01.4.27.75.54,1.02.27.29.61.52.94.73.67.4,1.43.72,2.18.98,1.5.54,3.07.82,4.63,1.17,1.56.39,3.09.9,4.54,1.58,1.42.71,2.84,1.56,3.85,2.86h-.02s-.01,0-.01,0c-.5-.63-1.12-1.14-1.8-1.58-.64-.45-1.35-.84-2.06-1.17-1.45-.67-2.98-1.15-4.54-1.52-1.54-.36-3.13-.68-4.65-1.24-.75-.28-1.47-.59-2.17-1.03-.32-.21-.67-.44-.95-.73-.27-.29-.53-.64-.54-1.08,0,0,.02-.02.04-.02,0,0,.03.01.03.01v.02l-.93,9.38-.46,4.69c-.03.78-.35,1.58.11,2.26.36.67.98,1.2,1.6,1.64,1.29.87,2.76,1.44,4.25,1.92,1.48.47,3.03.79,4.51,1.38,1.47.54,2.92,1.23,4.22,2.12,1.3.86,2.54,1.9,3.38,3.24h-.02s-.01.01-.01,0" fill="#1d1e1c"/>
            <path d="M183.05,154.03c-2.27-1.69-4.9-2.81-7.6-3.56-1.35-.36-2.73-.7-4.04-1.25-.65-.28-1.3-.59-1.89-.97-.6-.39-1.19-.81-1.52-1.5-.02,0-.02-.02-.02-.03h0s1.28-12.05,1.28-12.05c0-.04.02-.06.06-.06h.01c1.1.58,2.29,1,3.48,1.34,1.18.36,2.42.56,3.63.87,1.21.32,2.4.71,3.53,1.23,1.13.53,2.23,1.16,3.14,2.05.02.01.03.04.03.06,0,2.3,0,4.61-.01,6.92l-.06,6.94h0s-.02,0-.02,0M183.05,154l-.06-6.91c0-2.31-.03-4.62,0-6.92l.02.03c-.87-.87-1.96-1.51-3.08-2.04-1.12-.52-2.32-.94-3.51-1.25-1.19-.34-2.43-.54-3.63-.89-1.19-.33-2.37-.73-3.5-1.3l.08-.03-1.19,12.04v-.05c.29.6.88,1.05,1.44,1.41.6.38,1.23.68,1.87.94,1.31.56,2.66.92,4.03,1.3,2.69.78,5.31,1.95,7.55,3.67" fill="#1d1e1c"/>
          </g>
          <path d="M194.08,134.98c-7.5,1.56-9.46,4.6-9.46,4.6v18.29s2.15-4.05,10.36-6.16c8.22-2.08,7.92-5,7.92-5l-1.6-15.46c0,.08.15,2.2-7.22,3.73" fill="none"/>
          <g>
            <path d="M184.61,139.58c.99-1.29,2.4-2.15,3.84-2.85,1.45-.67,2.98-1.18,4.52-1.57,1.57-.38,3.13-.67,4.65-1.19.75-.29,1.49-.58,2.17-1,.34-.2.66-.44.94-.72.27-.26.52-.61.53-1h.08c.31,3.13.65,6.25.98,9.38l.52,4.68.13,1.17c.09.41-.06.83-.25,1.19-.4.71-1.01,1.24-1.66,1.69-1.33.9-2.8,1.48-4.3,1.95-1.51.48-3.04.8-4.52,1.35-1.47.54-2.92,1.19-4.22,2.03-1.31.85-2.55,1.88-3.39,3.2t-.03.02v-.02c.84-1.34,2.06-2.38,3.36-3.26,1.32-.86,2.75-1.56,4.22-2.1,1.47-.6,3.02-.9,4.52-1.37,1.49-.47,2.95-1.06,4.25-1.92.62-.44,1.23-.97,1.6-1.64.46-.67.14-1.48.13-2.26l-.47-4.69c-.31-3.12-.61-6.24-.95-9.38,0-.02.01-.05.04-.05.02,0,.04.02.04.04,0,.45-.27.79-.54,1.08-.29.29-.61.54-.96.74-.69.43-1.43.75-2.19,1.02-1.52.55-3.09.87-4.66,1.22-1.54.38-3.06.86-4.51,1.53-1.43.7-2.85,1.51-3.85,2.76h-.03Z" fill="#1d1e1c"/>
            <path d="M186.16,140.14c.87-.88,1.97-1.53,3.09-2.07,1.14-.53,2.33-.93,3.53-1.26,1.21-.34,2.44-.53,3.63-.89,1.19-.33,2.38-.73,3.47-1.31.05-.03.09,0,.11.03v.02c.39,4.03.77,8.05,1.2,12.05v.03c-.32.67-.92,1.09-1.5,1.48-.59.38-1.24.69-1.88.96-1.3.57-2.68.93-4.05,1.3-2.68.77-5.31,1.91-7.53,3.62-.03.04-.11.03-.12-.01-.02-.02-.02-.05-.02-.05-.01-4.63.05-9.25.08-13.88,0,0,0,0,0,0M186.19,140.16c0,4.62.07,9.24.05,13.87l-.14-.08c2.27-1.72,4.92-2.87,7.63-3.64,1.36-.35,2.72-.69,4.02-1.23.65-.26,1.28-.57,1.88-.93.58-.38,1.17-.81,1.48-1.44v.02c-.38-4.01-.84-8.03-1.26-12.03l.09.05c-1.1.58-2.29,1-3.49,1.33-1.21.36-2.44.55-3.64.85-1.19.33-2.38.72-3.5,1.24-1.14.52-2.23,1.13-3.12,2" fill="#1d1e1c"/>
          </g>
        </g>
      </g>
    </g>
  </g>
</svg>