<?xml version="1.0" encoding="UTF-8"?>
<svg id="katman_1" data-name="katman 1" xmlns="http://www.w3.org/2000/svg" xmlns:xlink="http://www.w3.org/1999/xlink" viewBox="0 0 160 40">
  <defs>
    <style>
      .cls-1 {
        fill: none;
      }

      .cls-2 {
        fill: #bbbbba;
      }

      .cls-3 {
        fill: url(#Adsız_degrade_22);
      }

      .cls-4 {
        fill: #1d1e1c;
      }

      .cls-5 {
        fill: url(#Adsız_degrade_22-2);
      }

      .cls-6 {
        fill: #fff;
      }

      .cls-7 {
        fill: #706f6e;
      }

      .cls-8 {
        fill: #e10b17;
      }

      .cls-9 {
        fill: #4d4d4d;
      }
    </style>
    <linearGradient id="Adsız_degrade_22" data-name="Adsız degrade 22" x1="17.63" y1="39.05" x2="20.24" y2="34.53" gradientUnits="userSpaceOnUse">
      <stop offset=".71" stop-color="#bbbbba"/>
      <stop offset=".77" stop-color="#a5a5a4"/>
      <stop offset=".88" stop-color="#6f6f6e"/>
      <stop offset="1" stop-color="#333"/>
    </linearGradient>
    <linearGradient id="Adsız_degrade_22-2" data-name="Adsız degrade 22" x1="-1642.02" y1="39.03" x2="-1639.42" y2="34.52" gradientTransform="translate(-1613.8) rotate(-180) scale(1 -1)" xlink:href="#Adsız_degrade_22"/>
  </defs>
  <g>
    <g>
      <path class="cls-9" d="M22.7,24.07l.11,4.93.12-4.93s-.08,0-.12,0-.08,0-.11,0Z"/>
      <path class="cls-9" d="M24.21,28.9l-.57-4.9c-.08.01-.15.02-.23.03l.8,4.86Z"/>
      <path class="cls-9" d="M25.58,28.61l-1.25-4.77c-.07.02-.15.04-.22.06l1.47,4.71Z"/>
      <path class="cls-9" d="M26.89,28.13l-1.9-4.55c-.07.03-.14.07-.21.1l2.11,4.46Z"/>
      <path class="cls-9" d="M28.13,27.47l-2.51-4.24c-.06.04-.13.08-.19.12l2.71,4.12Z"/>
      <path class="cls-9" d="M29.26,26.65l-3.08-3.85c-.06.05-.12.1-.18.15l3.26,3.7Z"/>
      <path class="cls-9" d="M30.26,25.68l-3.59-3.39c-.05.06-.1.12-.15.17l3.74,3.21Z"/>
      <path class="cls-9" d="M31.12,24.58l-4.03-2.86c-.04.07-.08.13-.13.19l4.15,2.66Z"/>
      <path class="cls-9" d="M31.82,23.37l-4.38-2.27c-.03.07-.07.14-.1.21l4.49,2.06Z"/>
      <path class="cls-9" d="M32.35,22.07l-4.66-1.63c-.02.07-.05.15-.07.22l4.73,1.41Z"/>
      <path class="cls-9" d="M32.68,20.72l-4.84-.97c-.01.08-.03.15-.04.23l4.88.74Z"/>
      <path class="cls-9" d="M32.83,19.32l-4.93-.29c0,.08,0,.16,0,.23l4.94.06Z"/>
      <path class="cls-9" d="M32.78,17.93l-4.93.4c0,.08.02.15.02.23l4.9-.63Z"/>
      <path class="cls-9" d="M32.54,16.55l-4.82,1.08c.02.07.04.15.05.22l4.77-1.31Z"/>
      <path class="cls-9" d="M32.11,15.22l-4.63,1.74c.03.07.06.14.09.21l4.54-1.96Z"/>
      <path class="cls-9" d="M31.49,13.96l-4.34,2.37c.04.07.08.13.12.2l4.22-2.57Z"/>
      <path class="cls-9" d="M30.71,12.81l-3.97,2.95c.05.06.1.12.14.18l3.83-3.14Z"/>
      <path class="cls-9" d="M26.42,15.41l3.36-3.64-3.52,3.48c.06.05.11.11.17.16Z"/>
      <path class="cls-9" d="M28.71,10.87l-3.01,3.94c.06.04.13.09.19.14l2.82-4.07Z"/>
      <path class="cls-9" d="M27.52,10.13l-2.43,4.32c.07.03.14.07.21.11l2.22-4.43Z"/>
      <path class="cls-9" d="M26.24,9.56l-1.8,4.61c.07.03.15.05.22.08l1.59-4.69Z"/>
      <path class="cls-9" d="M24.9,9.17l-1.14,4.82c.08.01.15.03.23.05l.92-4.87Z"/>
      <path class="cls-9" d="M23.51,8.98l-.46,4.93c.08,0,.15.01.23.02l.23-4.95Z"/>
      <path class="cls-9" d="M22.12,8.98l.23,4.95c.08,0,.15-.01.23-.02l-.46-4.93Z"/>
      <path class="cls-9" d="M20.73,9.17l.92,4.87c.08-.02.15-.03.23-.05l-1.14-4.82Z"/>
      <path class="cls-9" d="M19.39,9.56l1.58,4.69c.07-.03.15-.05.22-.08l-1.8-4.61Z"/>
      <path class="cls-9" d="M18.11,10.13l2.22,4.43c.07-.04.13-.07.2-.11l-2.43-4.32Z"/>
      <path class="cls-9" d="M16.92,10.87l2.82,4.07c.06-.05.12-.09.19-.14l-3-3.94Z"/>
      <path class="cls-9" d="M19.38,15.25l-3.52-3.48,3.36,3.64c.05-.06.11-.11.17-.16Z"/>
      <path class="cls-9" d="M14.92,12.81l3.83,3.14c.05-.06.09-.12.14-.18l-3.97-2.95Z"/>
      <path class="cls-9" d="M14.14,13.96l4.23,2.57c.04-.07.08-.14.12-.2l-4.34-2.37Z"/>
      <path class="cls-9" d="M13.52,15.22l4.54,1.96c.03-.07.06-.14.09-.22l-4.63-1.74Z"/>
      <path class="cls-9" d="M13.09,16.55l4.77,1.31c.02-.07.03-.15.05-.22l-4.82-1.08Z"/>
      <path class="cls-9" d="M12.85,17.93l4.9.63c0-.08.01-.15.02-.23l-4.93-.4Z"/>
      <path class="cls-9" d="M12.8,19.32l4.94-.06c0-.08,0-.15,0-.23l-4.94.29Z"/>
      <path class="cls-9" d="M12.95,20.72l4.88-.74c-.01-.08-.03-.15-.04-.23l-4.84.97Z"/>
      <path class="cls-9" d="M13.28,22.07l4.73-1.41c-.03-.07-.05-.15-.07-.22l-4.66,1.63Z"/>
      <path class="cls-9" d="M13.81,23.37l4.49-2.06c-.04-.07-.07-.14-.1-.21l-4.38,2.27Z"/>
      <path class="cls-9" d="M14.51,24.58l4.15-2.66c-.04-.06-.09-.13-.13-.19l-4.03,2.85Z"/>
      <path class="cls-9" d="M15.37,25.68l3.74-3.22c-.05-.06-.1-.11-.15-.17l-3.59,3.39Z"/>
      <path class="cls-9" d="M16.37,26.65l3.26-3.7c-.06-.05-.12-.1-.18-.15l-3.08,3.85Z"/>
      <path class="cls-9" d="M17.5,27.47l2.71-4.12c-.07-.04-.13-.08-.2-.12l-2.51,4.24Z"/>
      <path class="cls-9" d="M18.74,28.13l2.11-4.45c-.07-.03-.14-.06-.21-.1l-1.9,4.55Z"/>
      <path class="cls-9" d="M20.05,28.61l1.47-4.71c-.07-.02-.15-.04-.22-.06l-1.25,4.77Z"/>
      <path class="cls-9" d="M21.42,28.9l.8-4.86c-.08,0-.15-.02-.23-.03l-.57,4.9Z"/>
    </g>
    <g>
      <path class="cls-7" d="M21.21,37.52h0l-.28.15-.05-.21.36-.2h.23v1.64h-.27v-1.38Z"/>
      <path class="cls-7" d="M21.96,38.7c.05,0,.09,0,.14-.01.07-.02.15-.06.21-.11.08-.08.15-.22.17-.39h0c-.05.07-.14.12-.25.12-.21,0-.38-.19-.38-.49s.17-.57.46-.57.44.29.44.67c0,.35-.1.61-.25.78-.1.12-.24.2-.4.23-.05.01-.1.01-.14.01v-.23ZM22.29,37.44c-.09,0-.17.11-.17.35,0,.2.07.32.18.32.07,0,.13-.05.16-.11.01-.03.02-.06.02-.14,0-.28-.08-.41-.19-.41h0Z"/>
      <path class="cls-7" d="M23.41,38.9v-.42h-.56v-.18l.54-1.04h.26v1.01h.17v.22h-.17v.42h-.24ZM23.41,38.27v-.39c0-.1,0-.2.02-.29h0c-.04.11-.08.18-.13.28l-.2.4h0s.32,0,.32,0Z"/>
      <path class="cls-7" d="M24.73,37.49h-.44l-.05.36s.04,0,.06,0c.08,0,.22.04.31.12.09.09.14.21.14.38,0,.32-.21.57-.54.57-.11,0-.23-.03-.3-.07l.05-.22c.06.03.15.06.23.06.16,0,.29-.11.29-.32,0-.24-.16-.33-.36-.33-.05,0-.09,0-.12,0l.1-.8h.64v.23Z"/>
    </g>
    <g>
      <path class="cls-8" d="M20.7,19s-2.31,2.57.81,3.85c.04-1.02.89-2.09,1.68-2,0,0-.56.92-.47,1.7.07.31.27.39,1.1.31.83-.08,1.59-.72,1.86-1.78.26-1.06-.31-2.13-.85-2.53.34,1.09.26,2.54-1.06,2.9.4-.9.8-2.01.11-3.25-.7-1.24-.88-1.69-.57-2.5-.73.44-3.4,2.38-1.62,5.29-.41-.02-1.24-.32-.99-2Z"/>
      <path class="cls-8" d="M22.75,21.22s-.52.08-.82.96c-.1.34-.14.65.22.64.36,0,.39-.22.36-.74-.03-.52.23-.86.23-.86Z"/>
      <polygon class="cls-4" points="22.82 23.45 22.81 23.45 20.12 23.45 20.12 24.46 20.95 24.55 21.44 25.38 21.89 25.38 22.31 30.94 22.81 30.94 22.82 30.94 23.32 30.94 23.74 25.38 24.19 25.38 24.68 24.55 25.51 24.46 25.51 23.45 22.82 23.45"/>
    </g>
    <g>
      <path d="M40.59,17.28c-.05-.51-.37-.92-.81-1.12.34-.34.5-.84.37-1.33-.12-.49-.5-.86-.95-1,.29-.38.38-.9.18-1.37-.19-.47-.61-.78-1.08-.86.23-.42.25-.94,0-1.38-.25-.44-.72-.69-1.19-.7.17-.44.11-.97-.2-1.37-.31-.4-.81-.58-1.28-.53.11-.46-.02-.97-.39-1.33-.37-.35-.88-.47-1.34-.34.04-.47-.16-.96-.57-1.26-.42-.3-.94-.34-1.38-.15-.02-.48-.29-.93-.74-1.17-.45-.24-.97-.21-1.38.04-.09-.47-.41-.88-.9-1.05-.48-.18-.99-.07-1.36.23-.15-.45-.53-.81-1.03-.92-.5-.11-.99.07-1.32.42-.15-.3-.41-.54-.74-.67.12-.32.31-.51.31-.51-.6-.32-1.01,0-1.01,0-.06-.47-.43-.89-.95-.89s-.89.42-.95.89c0,0-.41-.31-1.02,0,0,0,.19.19.31.51-.32.13-.58.37-.74.67-.33-.35-.82-.53-1.32-.42-.5.11-.88.47-1.03.92-.37-.3-.89-.41-1.37-.23-.48.17-.8.59-.89,1.05-.41-.25-.93-.28-1.38-.04-.45.24-.72.69-.74,1.17-.44-.19-.96-.15-1.37.15-.41.3-.61.79-.57,1.26-.46-.12-.97-.01-1.34.34-.37.36-.5.86-.39,1.33-.47-.06-.97.12-1.28.53-.31.4-.37.92-.2,1.37-.48,0-.94.26-1.19.7-.26.44-.24.97-.01,1.38-.47.07-.89.38-1.08.86-.19.47-.1.99.18,1.37-.46.14-.83.5-.95,1-.12.5.04,1,.37,1.33-.43.2-.75.61-.81,1.12-.05.49.16.95.52,1.24v.5c0,.4.32.72.72.72h9.74c.52-3.36,2.59-6.02,5.25-6.78h0c1.43-.35,1.54-1.42,1.54-1.42,0,0,.11,1.08,1.54,1.42h0c2.66.76,4.73,3.42,5.26,6.78h9.74c.4,0,.72-.32.72-.72v-.5c.36-.29.57-.75.52-1.24Z"/>
      <path class="cls-6" d="M39.43,16.93l-.24-1.38c.14-.14.19-.33.15-.52-.05-.19-.19-.33-.37-.39l-.43-1.33c.12-.16.14-.36.07-.53-.07-.18-.23-.31-.42-.34l-.62-1.26c.1-.17.09-.37,0-.54-.1-.17-.27-.27-.47-.27l-.78-1.16c.07-.18.04-.38-.08-.54-.1-.13-.26-.21-.43-.21-.02,0-.05,0-.07,0l-.94-1.04c.04-.19-.01-.38-.15-.52-.1-.1-.24-.15-.38-.15-.05,0-.1,0-.14.02l-1.07-.9c.02-.19-.07-.38-.22-.49-.12-.08-.24-.1-.32-.1-.07,0-.15.02-.22.05l-1.19-.74c-.01-.2-.12-.37-.29-.46-.08-.04-.16-.06-.25-.06-.1,0-.2.03-.29.08l-1.28-.57c-.04-.19-.17-.35-.35-.41-.06-.02-.12-.03-.19-.03-.12,0-.25.05-.35.12l-1.35-.38c-.06-.19-.21-.32-.4-.36-.04,0-.08-.01-.11-.01-.15,0-.3.07-.4.18l-1.39-.2c-.06-.12-.16-.21-.29-.26l-.38-.85-.86-.36c0-.05-.05-.14-.11-.14s-.1.09-.11.14l-.86.36-.38.84c-.12.05-.23.14-.29.26l-1.39.2c-.1-.11-.25-.18-.4-.18-.04,0-.08,0-.11.01-.19.04-.34.18-.4.36l-1.35.38c-.1-.08-.22-.12-.35-.12-.06,0-.13.01-.19.03-.18.07-.31.22-.35.41l-1.28.57c-.09-.05-.19-.08-.29-.08-.09,0-.18.02-.25.06-.17.09-.28.26-.29.46l-1.19.74c-.07-.03-.14-.05-.22-.05-.08,0-.2.02-.32.1-.16.11-.24.3-.22.49l-1.07.9s-.1-.02-.14-.02c-.14,0-.28.05-.38.15-.14.13-.2.33-.15.52l-.94,1.04s-.05,0-.07,0c-.17,0-.33.08-.43.21-.12.15-.15.35-.08.54l-.78,1.16c-.19,0-.37.1-.47.27-.1.17-.1.37,0,.54l-.62,1.26c-.19.03-.35.16-.42.33-.07.18-.05.38.07.54l-.43,1.33c-.19.06-.33.2-.37.39-.05.19,0,.38.15.52l-.24,1.38c-.18.08-.3.25-.32.44-.02.19.06.37.2.48l.32.67v.37h9.02c.85-3.38,2.99-5.99,5.64-6.79h0c1.61-.41,1.73-1.7,1.73-1.7,0,0,.12,1.28,1.73,1.69h0c2.66.8,4.8,3.41,5.65,6.79h9.02v-.37l.32-.67c.15-.12.23-.3.21-.48-.02-.19-.14-.36-.32-.44Z"/>
      <path class="cls-8" d="M39.31,17.19l-.16-.21-.24-1.38.08-.25c.07-.07.09-.16.07-.25-.02-.09-.09-.16-.18-.19l-.19-.18-.43-1.33.04-.26c.06-.08.07-.17.04-.26-.04-.09-.11-.15-.21-.16l-.21-.16-.62-1.26v-.26c.05-.08.05-.18,0-.26-.05-.08-.13-.13-.22-.13l-.23-.12-.78-1.16-.03-.26c.03-.09.02-.18-.04-.26-.05-.06-.12-.1-.21-.1-.01,0-.02,0-.03,0l-.25-.09-.94-1.04-.07-.25c.02-.09,0-.18-.07-.25-.05-.05-.11-.07-.18-.07-.02,0-.05,0-.07,0l-.26-.06-1.07-.9-.1-.24c0-.1-.03-.18-.11-.24-.04-.03-.09-.05-.15-.05-.04,0-.07,0-.11.02l-.26-.02-1.19-.74-.13-.23c0-.1-.06-.18-.14-.22-.04-.02-.08-.03-.12-.03-.05,0-.1.01-.14.04l-.26.02-1.28-.57-.16-.21c-.02-.09-.08-.17-.17-.2-.03,0-.06-.02-.09-.02-.06,0-.12.02-.17.06l-.26.05-1.35-.39-.19-.18c-.03-.09-.1-.16-.19-.17-.02,0-.04,0-.05,0-.07,0-.14.03-.19.08l-.25.09-1.39-.19-.21-.15c-.03-.06-.08-.11-.14-.13l-.16-.15-.34-.74-.75-.31-.75.31-.34.74-.16.15c-.06.02-.11.07-.14.13l-.21.15-1.39.19-.25-.09c-.05-.05-.12-.08-.19-.08-.02,0-.04,0-.05,0-.09.02-.16.08-.19.17l-.19.18-1.35.39-.26-.05s-.11-.06-.17-.06c-.03,0-.06,0-.09.02-.09.03-.15.1-.17.2l-.16.21-1.28.57-.26-.02s-.09-.04-.14-.04c-.04,0-.08.01-.12.03-.08.04-.13.12-.14.22l-.13.23-1.19.74-.26.02s-.07-.02-.11-.02c-.04,0-.1,0-.15.05-.08.05-.11.14-.1.24l-.1.24-1.07.9-.26.06s-.05,0-.07,0c-.07,0-.13.03-.18.07-.07.07-.09.16-.07.25l-.07.25-.94,1.04-.25.09s-.02,0-.03,0c-.08,0-.16.04-.21.1-.06.07-.07.17-.04.26l-.03.26-.78,1.16-.23.12c-.1,0-.18.05-.22.13-.05.08-.05.18,0,.26v.26s-.61,1.26-.61,1.26l-.21.16c-.1.02-.17.07-.21.16-.04.09-.02.18.04.26l.04.26-.43,1.33-.19.18c-.09.03-.16.1-.18.19-.02.09,0,.18.07.25l.08.25-.25,1.38-.16.21c-.09.04-.14.12-.15.21-.01.09.03.18.1.23l.08.1.32.67.03.13v.09h8.51c.93-3.39,3.11-5.98,5.79-6.79h0c1.68-.43,1.8-1.76,1.8-1.76,0,0,.13,1.33,1.8,1.76h0c2.69.81,4.87,3.4,5.8,6.79h8.51v-.09l.03-.12.32-.67.08-.1c.07-.06.11-.14.1-.23,0-.09-.07-.17-.15-.21Z"/>
      <path class="cls-6" d="M9.04,15.42l.35-.76,1.47.67v-.02c-.12-.11-.24-.22-.37-.35l-.85-.83.38-.84,1.14,1.39,2.21.14-.38.84-1.47-.19.19.25,1.03.47-.35.76-3.34-1.53Z"/>
      <path class="cls-6" d="M13.03,12.48l-.43.67.7.45.48-.76.62.4-.94,1.47-3.1-1.98.9-1.41.62.39-.45.7.58.37.43-.67.59.38Z"/>
      <path class="cls-6" d="M13.94,12.46c.17-.06.39-.23.52-.39.21-.24.19-.44.05-.56-.17-.15-.35-.1-.7.02-.66.22-1.02.03-1.23-.15-.46-.4-.6-1.04-.05-1.68.16-.19.37-.33.49-.37l.47.56c-.12.04-.27.12-.41.28-.19.22-.16.41-.03.52.12.1.25.11.7-.05.55-.2.95-.07,1.23.17.53.45.53,1.15.03,1.73-.21.24-.45.42-.59.47l-.48-.56Z"/>
      <path class="cls-6" d="M14.45,8.93l-.49.41-.5-.6,1.63-1.36.5.6-.49.41,1.85,2.22-.65.54-1.85-2.22Z"/>
      <path class="cls-6" d="M17.68,9.24l.24.69-.71.4-1.11-3.59.89-.5,2.38,2.89-.71.4-.46-.58-.52.29ZM17.83,8.42l-.42-.57c-.12-.17-.36-.49-.5-.67h0c.08.22.23.61.3.79l.24.66.39-.22Z"/>
      <path class="cls-6" d="M19.5,9.07l-.91-3.56.74-.19.83,1.15c.15.2.43.61.59.86h.01c-.09-.29-.33-.97-.5-1.64l-.15-.58.71-.18.91,3.57-.74.19-.78-1.08c-.18-.25-.46-.68-.59-.92h-.01c.09.31.28.89.45,1.59l.16.61-.71.18Z"/>
      <path class="cls-6" d="M23.79,6.97l-.8-.02-.02.83.9.02-.02.73-1.74-.04.08-3.68,1.68.04-.02.73-.84-.02v.69s.78.02.78.02v.7Z"/>
      <path class="cls-6" d="M25.08,5.06c.22.01.52.06.79.14.45.12.77.26.97.56.17.26.19.59.11.88-.11.41-.32.67-.58.82-.29.16-.68.16-.96.08-.04,0-.08-.02-.12-.03l-.34,1.27-.81-.22.93-3.5ZM25.47,6.85s.06.02.09.03c.32.09.49-.13.56-.39.08-.28.02-.53-.24-.6-.05-.01-.11-.02-.15-.01l-.26.96Z"/>
      <path class="cls-6" d="M27.2,8.83l-.45.58-.72-.38,2.42-2.88.9.48-1.14,3.56-.72-.38.24-.7-.52-.28ZM27.97,8.5l.25-.66c.07-.2.22-.57.3-.79h0c-.14.18-.38.51-.5.67l-.42.56.39.21Z"/>
      <path class="cls-6" d="M28.58,9.88l2.42-1.13h.01s-.77-.67-.77-.67l.47-.56,1.5,1.26-.41.48-2.28,1.07h-.01s.8.69.8.69l-.47.56-1.57-1.33.32-.38Z"/>
      <path class="cls-6" d="M30.99,11.82l-.64.37-.52-.63,3.33-1.76.65.79-2.4,2.87-.52-.63.48-.56-.38-.46ZM31.83,11.81l.48-.52c.14-.15.42-.45.57-.62h0c-.2.11-.55.33-.72.43l-.61.36.28.34Z"/>
      <path class="cls-6" d="M34.65,11.82c.16.19.34.44.49.7.2.35.35.71.29,1.04-.06.31-.24.49-.52.66-.31.18-.72.21-1.06-.02h0c.03.27-.1.48-.38.72-.28.24-.68.6-.76.73l-.44-.76c.06-.09.35-.35.66-.59.35-.27.39-.4.3-.56l-.04-.07-1.21.71-.42-.72,3.13-1.83ZM33.73,13.34l.05.09c.14.24.41.23.64.1.23-.13.35-.33.23-.56-.03-.05-.07-.1-.1-.12l-.83.48Z"/>
      <path class="cls-6" d="M36.49,15.23l-3.37,1.48-.34-.77,3.37-1.47.34.77Z"/>
    </g>
    <g>
      <path class="cls-4" d="M31.31,20.03h-1.76c-.06.48.42.65.42.65h2.67s.48-.18.42-.65h-1.76Z"/>
      <path class="cls-4" d="M31.31,20.89h-1.37c-.05.37.33.51.33.51h2.09s.38-.14.33-.51h-1.38Z"/>
      <path class="cls-4" d="M37.97,20.03h-1.76c-.06.48.42.65.42.65h2.67s.48-.18.42-.65h-1.76Z"/>
      <path class="cls-4" d="M37.97,20.89h-1.37c-.05.37.33.51.33.51h2.09s.38-.14.33-.51h-1.37Z"/>
      <path class="cls-4" d="M7.66,20.03h-1.76c-.06.48.42.65.42.65h2.68s.48-.18.42-.65h-1.75Z"/>
      <path class="cls-4" d="M7.66,20.89h-1.37c-.05.37.33.51.33.51h2.09s.38-.14.33-.51h-1.37Z"/>
      <path class="cls-4" d="M14.21,20.03h-1.76c-.06.48.42.65.42.65h2.67s.48-.18.42-.65h-1.76Z"/>
      <path class="cls-4" d="M14.21,20.89h-1.37c-.05.37.33.51.33.51h2.09s.38-.14.33-.51h-1.37Z"/>
      <path class="cls-4" d="M160,39.75c-1.9.06-118.17.08-120.07.12l-5.7.07c-3.8.04-7.6.05-11.41.06-3.8,0-7.61-.01-11.41-.06l-5.7-.07c-1.9-.04-3.8-.06-5.7-.12,1.9-.06,3.8-.08,5.7-.12h1.11v-18.02h1.7v17.98l2.89-.04c.65,0,1.3-.02,1.95-.02v-17.93h1.7v17.91c2.58-.02,5.17-.02,7.75-.03,2.55,0,5.09,0,7.64.03v-17.91h1.7v17.92c.69,0,1.38.01,2.06.02l2.89.04v-17.98h1.7v18h1.11c1.9.06,118.17.08,120.07.14Z"/>
    </g>
    <g>
      <path class="cls-3" d="M17.26,34.96l-.12.43s-.07.27.31.37l.94-.46s.16.24.27.19l.4-.16s.29.15-.39.81c0,0-.07.07-.3.16,0,0-.16.06-.23.22,0,0-.18.34-.45.48,0,0-1.03.49-1.12.74,0,0-.21.4-.19.57l5.92-2.6-3.51-1.56-1.51.81Z"/>
      <path class="cls-5" d="M28.6,34.95l.12.43s.07.27-.31.37l-.94-.46s-.16.24-.27.19l-.4-.16s-.29.15.39.81c0,0,.07.07.3.16,0,0,.16.06.23.22,0,0,.18.34.45.48,0,0,1.03.49,1.12.74,0,0,.21.4.19.57l-5.92-2.6,3.51-1.56,1.51.81Z"/>
      <g>
        <path class="cls-2" d="M29.47,38.4l-5.68-2.47-.55-.23,5.17-2.32-.44-3.99-.27-.14-4.17,2.25c-.23-.12-.43-.14-.6-.13-.17,0-.37.02-.6.13l-4.17-2.25-.27.14-.44,3.99,5.19,2.34-.65.29-5.53,2.4s-.11.23.21.24l6.3-2.66,6.3,2.66c.32-.01.21-.24.21-.24"/>
        <path class="cls-6" d="M18.26,33l4.24,1.85c0,.23.19.42.42.42s.42-.19.42-.42l4.25-1.85-.36-3.95-3.92,1.7c0,.22-.17.39-.39.39s-.39-.17-.39-.39l-3.91-1.7-.37,3.95Z"/>
        <path class="cls-4" d="M22.93,35.4c-.28,0-.5-.2-.54-.46l-4.18-1.83s-.08-.07-.08-.12l.37-3.95s.02-.07.06-.1c.03-.02.07-.02.11,0l3.91,1.71s.08.06.08.11c0,.15.12.27.27.27s.27-.12.27-.27c0-.05.03-.09.07-.11l3.92-1.71s.08-.01.11,0c.04.02.06.05.06.1l.36,3.95c0,.05-.02.1-.07.12l-4.18,1.83c-.04.26-.27.46-.54.46M18.39,32.92l4.16,1.82s.07.06.07.11c0,.16.14.3.3.3s.3-.14.3-.3c0-.05.03-.09.07-.11l4.17-1.82-.34-3.7-3.69,1.61c-.04.24-.25.43-.51.43s-.47-.19-.51-.43l-3.7-1.61-.34,3.7Z"/>
        <path class="cls-6" d="M22.93,35s-.51-.91-2.44-1.38c-1.93-.47-1.86-1.12-1.86-1.12l.38-3.47s-.06.49,1.7.84c1.76.35,2.23,1.03,2.23,1.03"/>
        <path class="cls-4" d="M22.93,35c-.2-.3-.49-.52-.79-.71-.31-.19-.64-.34-.98-.45-.17-.06-.34-.11-.51-.16-.18-.04-.35-.08-.53-.13-.34-.1-.69-.23-1-.41-.15-.1-.3-.21-.41-.36-.05-.07-.1-.16-.1-.26,0-.1.02-.18.03-.27l.12-1.08.24-2.14h.01c0,.09.07.17.13.23.07.06.15.11.22.16.16.09.33.16.51.22.35.12.72.18,1.08.27.36.09.72.2,1.06.36.34.15.67.35.91.64h0s0,0,0,0c-.12-.15-.27-.26-.42-.36-.16-.1-.32-.19-.49-.26-.34-.15-.7-.26-1.06-.34-.36-.08-.73-.15-1.08-.27-.18-.06-.35-.13-.51-.23-.08-.05-.16-.1-.23-.16-.06-.06-.13-.14-.13-.25,0,0,0,0,0,0,0,0,0,0,0,0l-.23,2.15-.11,1.07c-.01.09-.02.18-.03.27,0,.08.05.16.1.24.11.14.25.25.4.34.31.18.65.31.99.41.34.1.7.17,1.04.3.34.12.67.27.97.47.3.19.59.42.79.73h0s0,0,0,0"/>
        <path class="cls-6" d="M22.93,30.9s.46-.68,2.23-1.03c1.76-.35,1.7-.84,1.7-.84l.37,3.47s.07.65-1.86,1.12c-1.93.47-2.44,1.38-2.44,1.38"/>
        <path class="cls-4" d="M22.93,30.9c.24-.29.57-.48.91-.64.34-.16.69-.27,1.06-.35.36-.08.73-.15,1.08-.27.17-.06.35-.13.51-.22.08-.05.15-.1.22-.16.06-.06.13-.14.13-.23h.02c.07.72.15,1.43.23,2.14l.12,1.07c0,.09.02.17.03.27,0,.1-.05.18-.11.25-.11.15-.26.26-.41.36-.31.19-.66.31-1,.41-.34.1-.7.17-1.04.29-.34.12-.67.26-.97.45-.3.19-.59.41-.79.71t0,0h0c.2-.31.49-.54.79-.73.31-.19.64-.35.97-.47.17-.06.34-.12.52-.16.18-.04.35-.08.52-.14.34-.1.68-.22.99-.41.15-.09.3-.2.4-.34.05-.07.1-.15.1-.24,0-.09-.02-.18-.03-.27l-.11-1.07c-.08-.72-.15-1.43-.23-2.15h0s0-.01.01-.01c0,0,0,0,.01,0,0,.1-.07.18-.13.25-.07.06-.15.12-.23.17-.17.09-.34.17-.52.23-.35.12-.72.19-1.08.27-.36.08-.72.19-1.06.34-.34.16-.67.34-.91.62t0,0h0Z"/>
        <path class="cls-6" d="M22.93,34.96s-.5-.91-2.37-1.38c-1.88-.47-1.8-1.12-1.8-1.12l.36-3.47s-.06.49,1.64.84c1.71.35,2.16,1.03,2.16,1.03"/>
        <path class="cls-4" d="M22.93,34.97c-.19-.3-.48-.53-.77-.72-.3-.19-.63-.34-.96-.46-.17-.06-.33-.11-.5-.15-.17-.05-.35-.09-.51-.14-.34-.11-.68-.23-.98-.43-.15-.1-.29-.22-.39-.37-.05-.08-.09-.17-.07-.26l.03-.26.12-1.06.23-2.12h.01c0,.09.06.17.12.23.07.07.14.12.22.16.15.09.32.16.5.22.34.12.7.18,1.05.27.35.08.7.2,1.04.35.33.16.65.35.88.64h0s0,0,0,0c-.11-.15-.26-.26-.41-.36-.15-.1-.31-.19-.48-.26-.33-.15-.68-.26-1.03-.34-.35-.08-.71-.15-1.06-.28-.17-.06-.34-.13-.5-.23-.08-.05-.15-.1-.22-.17-.06-.06-.12-.14-.12-.24,0,0,0,0,0,0,0,0,0,0,0,0h0s-.22,2.12-.22,2.12l-.11,1.06-.03.26c-.01.09.02.17.07.24.09.15.23.26.38.36.29.19.63.32.97.42.34.1.69.18,1.02.31.33.12.65.28.95.47.3.19.58.43.77.73h0s0,0,0,0Z"/>
        <path class="cls-6" d="M22.93,30.86s.45-.68,2.16-1.03c1.71-.35,1.65-.84,1.65-.84l.36,3.47s.07.65-1.81,1.12c-1.87.47-2.36,1.38-2.36,1.38"/>
        <path class="cls-4" d="M22.93,30.86c.23-.29.55-.48.88-.64.33-.15.68-.26,1.03-.35.35-.09.71-.15,1.06-.27.17-.06.34-.13.49-.22.08-.05.15-.1.21-.16.06-.06.12-.14.13-.22h.02c.07.71.15,1.41.22,2.12l.12,1.06.03.26c.02.1-.02.19-.07.26-.1.16-.24.27-.39.37-.3.2-.64.32-.98.43-.34.1-.69.18-1.02.3-.33.12-.66.27-.96.45-.3.19-.58.42-.77.72h0c.19-.3.47-.54.77-.73.3-.19.62-.35.96-.47.17-.06.33-.12.51-.16.17-.05.34-.09.51-.14.34-.11.67-.23.97-.42.14-.1.28-.21.37-.36.05-.08.08-.16.07-.24l-.03-.26-.1-1.06c-.07-.71-.14-1.42-.22-2.12h0s0-.01,0-.01c0,0,.01,0,.01,0h0c0,.1-.07.18-.13.25-.07.07-.14.12-.22.17-.16.1-.33.17-.5.23-.34.12-.7.19-1.05.27-.35.08-.7.19-1.03.34-.32.15-.65.34-.88.62h0Z"/>
      </g>
      <path class="cls-1" d="M18.89,32.44s-.06.64,1.75,1.11c1.82.47,2.3,1.36,2.3,1.36v-4.04s-.44-.67-2.09-1.02c-1.62-.34-1.6-.81-1.6-.83l-.36,3.42ZM19.24,29.02h0M19.24,29.02h0Z"/>
      <g>
        <path class="cls-4" d="M22.93,34.91c-.19-.29-.46-.52-.76-.71-.29-.19-.6-.33-.93-.45-.33-.12-.66-.19-1-.3-.33-.1-.66-.23-.95-.43-.14-.1-.28-.22-.37-.37-.04-.08-.07-.17-.05-.26l.03-.26.11-1.03.22-2.08h.01c0,.09.06.17.12.23.06.06.13.12.21.16.15.09.32.16.48.22.33.12.68.18,1.02.26.35.09.68.2,1,.35.31.16.63.34.85.63h0s0,0,0,0c-.11-.14-.25-.25-.4-.35-.14-.1-.3-.18-.46-.26-.32-.15-.66-.25-1-.34-.34-.08-.69-.15-1.03-.27-.16-.06-.33-.13-.48-.23-.07-.05-.15-.1-.21-.16-.06-.06-.12-.14-.12-.24,0,0,0,0,0,0,0,0,0,0,0,0h0s-.21,2.08-.21,2.08l-.1,1.04c0,.17-.08.35.02.5.08.15.22.27.35.36.28.19.61.32.94.42.33.1.67.18,1,.3.33.12.65.27.93.47.29.19.56.42.75.72h0s0,0,0,0"/>
        <path class="cls-4" d="M22.59,34.06c-.5-.37-1.08-.62-1.68-.79-.3-.08-.6-.16-.89-.28-.14-.06-.29-.13-.42-.21-.13-.09-.26-.18-.34-.33,0,0,0,0,0,0h0s.28-2.66.28-2.66c0,0,0-.01.01-.01h0c.24.13.51.22.77.3.26.08.53.12.8.19.27.07.53.16.78.27.25.12.49.26.69.45,0,0,0,0,0,.01,0,.51,0,1.02,0,1.53v1.53s-.01,0-.01,0h0M22.59,34.05v-1.53c-.01-.51-.02-1.02-.01-1.53h0c-.19-.19-.43-.33-.68-.44-.25-.11-.51-.21-.78-.28-.26-.07-.54-.12-.8-.2-.26-.07-.53-.16-.77-.29h.02s-.26,2.66-.26,2.66h0c.06.12.19.22.32.3.13.08.27.15.41.21.29.12.59.2.89.29.59.17,1.17.43,1.67.81"/>
      </g>
      <path class="cls-1" d="M25.03,29.85c-1.66.34-2.09,1.02-2.09,1.02v4.04s.47-.9,2.29-1.36c1.82-.46,1.75-1.11,1.75-1.11l-.35-3.42s.03.49-1.6.83M26.62,29.02h0Z"/>
      <g>
        <path class="cls-4" d="M22.93,30.86c.22-.28.53-.47.85-.63.32-.15.66-.26,1-.35.35-.08.69-.15,1.03-.26.16-.06.33-.13.48-.22.07-.04.15-.1.21-.16.06-.06.12-.14.12-.22h.02c.07.69.14,1.38.22,2.07l.11,1.03.03.26c.02.09-.01.18-.05.26-.09.16-.22.27-.37.37-.29.2-.62.33-.95.43-.33.11-.67.18-1,.3-.33.12-.64.26-.93.45-.29.19-.56.42-.75.71t0,0h0c.18-.3.46-.53.74-.72.29-.19.61-.34.93-.47.33-.13.67-.2,1-.3.33-.1.65-.23.94-.42.14-.1.27-.21.35-.36.1-.15.03-.33.03-.5l-.1-1.04c-.07-.69-.14-1.38-.21-2.07,0,0,0-.01,0-.01,0,0,0,0,0,0,0,.1-.06.17-.12.24-.06.06-.13.12-.21.16-.15.09-.32.17-.48.23-.33.12-.68.19-1.03.27-.34.08-.68.19-1,.34-.32.16-.63.33-.85.61h0Z"/>
        <path class="cls-4" d="M23.28,30.99c.19-.19.43-.34.68-.46.25-.12.51-.21.78-.28.27-.07.54-.12.8-.2.26-.07.53-.16.77-.29.01,0,.02,0,.02,0h0c.09.9.17,1.78.27,2.67h0c-.07.15-.2.25-.33.33-.13.08-.27.15-.42.21-.29.13-.59.21-.9.29-.59.17-1.17.42-1.67.8,0,0-.02,0-.03,0,0,0,0-.01,0-.01,0-1.02.01-2.05.02-3.07,0,0,0,0,0,0M23.28,30.99c0,1.02.02,2.04.01,3.07l-.03-.02c.5-.38,1.09-.63,1.69-.81.3-.08.6-.15.89-.27.14-.06.28-.13.42-.21.13-.08.26-.18.33-.32h0c-.08-.88-.19-1.77-.28-2.66h.02c-.24.14-.51.23-.77.31-.27.08-.54.12-.81.19-.26.07-.53.16-.77.28-.25.12-.49.25-.69.44"/>
      </g>
    </g>
  </g>
  <g>
    <g>
      <path class="cls-4" d="M44.82,3.39h3.06v5.89h.06c.18-.58.36-1.17.58-1.79l1.47-4.1h3.38l-2.89,5.89,2.91,7.53h-3.37l-1.61-5.16-.54,1.01v4.15h-3.06V3.39Z"/>
      <path class="cls-4" d="M60.42,11.12h-2.93v3.02h3.29v2.67h-6.37V3.39h6.15v2.67h-3.07v2.51h2.93v2.55Z"/>
      <path class="cls-4" d="M62.31,13.74c.58.32,1.55.52,2.33.52,1.15,0,1.67-.52,1.67-1.19,0-.84-.56-1.22-1.73-1.91-2.17-1.29-2.53-2.77-2.53-3.76,0-2.21,1.43-4.12,4.54-4.12.92,0,1.79.24,2.21.48l-.44,2.65c-.4-.24-.98-.46-1.75-.46-1.03,0-1.53.54-1.53,1.15,0,.58.28.96,1.79,1.81,1.85,1.04,2.47,2.45,2.47,3.82,0,2.53-1.89,4.2-4.72,4.2-1.15,0-2.23-.26-2.71-.52l.4-2.67Z"/>
      <path class="cls-4" d="M72.15,6.26h-2.33v-2.87h7.76v2.87h-2.35v10.55h-3.09V6.26Z"/>
      <path class="cls-4" d="M80.67,14.16l-.46,2.65h-2.99l2.85-13.42h3.74l2.45,13.42h-2.99l-.44-2.65h-2.17ZM82.6,11.79l-.34-2.55c-.1-.76-.28-2.21-.4-3.04h-.04c-.14.83-.34,2.33-.46,3.04l-.4,2.55h1.63Z"/>
      <path class="cls-4" d="M87.64,16.81V3.39h2.81l1.89,4.82c.34.85.98,2.55,1.31,3.58h.04c-.08-1.1-.3-3.71-.3-6.23v-2.17h2.69v13.42h-2.81l-1.81-4.52c-.42-1.04-1.04-2.81-1.27-3.8h-.04c.06,1.16.18,3.39.18,6.01v2.31h-2.69Z"/>
      <path class="cls-4" d="M104.36,11.12h-2.93v3.02h3.29v2.67h-6.37V3.39h6.15v2.67h-3.07v2.51h2.93v2.55Z"/>
      <path class="cls-4" d="M106.55,3.59c.8-.16,1.89-.26,2.95-.26,1.69,0,2.99.2,3.94,1.05.86.74,1.21,1.89,1.21,3.01,0,1.55-.5,2.67-1.27,3.44-.88.84-2.27,1.19-3.31,1.19h-.46v4.78h-3.07V3.59ZM109.62,9.54c.12.02.24.02.36.02,1.24,0,1.63-.92,1.63-1.89,0-1.08-.44-1.87-1.43-1.87-.2,0-.42.04-.56.1v3.64Z"/>
      <path class="cls-4" d="M117.8,14.16l-.46,2.65h-2.99l2.85-13.42h3.74l2.45,13.42h-2.99l-.44-2.65h-2.17ZM119.73,11.79l-.34-2.55c-.1-.76-.28-2.21-.4-3.04h-.04c-.14.83-.34,2.33-.46,3.04l-.4,2.55h1.63Z"/>
      <path class="cls-4" d="M124.37,15.02l4.1-8.88v-.06h-3.7v-2.69h7.17v2.31l-3.86,8.36v.06h3.84v2.69h-7.54v-1.79Z"/>
      <path class="cls-4" d="M135.88,14.16l-.46,2.65h-2.99l2.85-13.42h3.74l2.45,13.42h-2.99l-.44-2.65h-2.17ZM137.81,11.79l-.34-2.55c-.1-.76-.28-2.21-.4-3.04h-.04c-.14.83-.34,2.33-.46,3.04l-.4,2.55h1.63Z"/>
      <path class="cls-4" d="M142.85,3.59c.9-.16,2.03-.26,3.12-.26,1.47,0,2.89.18,3.82,1.02.87.78,1.12,1.67,1.12,2.87,0,1.31-.66,2.67-2.03,3.3v.04c.88.4,1.31,1.2,1.55,2.51.24,1.33.64,3.22.9,3.74h-3.23c-.16-.36-.48-1.75-.65-3.17-.2-1.59-.56-1.97-1.23-1.97h-.3v5.14h-3.07V3.59ZM145.91,9.3h.4c1,0,1.49-.86,1.49-1.83s-.38-1.71-1.34-1.75c-.2,0-.44.02-.56.08v3.5Z"/>
      <path class="cls-4" d="M155.83,3.39v13.42h-3.08V3.39h3.08Z"/>
      <path class="cls-4" d="M159.82,4.48c0,.82-.65,1.48-1.48,1.48s-1.47-.66-1.47-1.48.65-1.47,1.48-1.47,1.47.65,1.47,1.47ZM157.22,4.48c0,.65.48,1.17,1.13,1.17.63,0,1.11-.52,1.11-1.16s-.48-1.18-1.13-1.18-1.11.53-1.11,1.17ZM158.1,5.24h-.31v-1.47c.12-.02.3-.05.53-.05.26,0,.38.05.49.12.08.05.15.17.15.31,0,.17-.15.29-.31.35v.02c.15.04.22.16.26.36.05.21.07.31.11.36h-.34c-.05-.06-.07-.18-.11-.36-.03-.15-.12-.23-.31-.23h-.16v.58ZM158.11,4.41h.16c.19,0,.34-.06.34-.21,0-.14-.09-.22-.31-.22-.09,0-.15,0-.19.02v.41Z"/>
    </g>
    <g>
      <path class="cls-8" d="M48.05,36.82v-5.31l-3.05-8.56h2.88l.95,3.31c.25.89.51,1.91.72,2.94h.04c.16-1.01.39-2.02.64-3.01l.82-3.25h2.8l-3.11,8.46v5.41h-2.7Z"/>
      <path class="cls-8" d="M62.8,29.64c0,5.23-1.85,7.35-4.49,7.35-3.15,0-4.38-3.33-4.38-7.14s1.5-7.06,4.57-7.06c3.36,0,4.3,3.69,4.3,6.86ZM55.23,20.81c0-.74.58-1.32,1.22-1.32.68,0,1.21.58,1.21,1.32s-.53,1.32-1.21,1.32c-.64,0-1.22-.58-1.22-1.32ZM56.73,29.89c0,3.15.6,4.76,1.69,4.76s1.56-2.06,1.56-4.88c0-2.43-.37-4.63-1.58-4.63-1.07,0-1.67,1.77-1.67,4.76ZM59.01,20.81c0-.74.58-1.32,1.24-1.32s1.22.58,1.22,1.32-.56,1.32-1.22,1.32-1.24-.58-1.24-1.32Z"/>
      <path class="cls-8" d="M64.51,36.82v-13.87h2.47l2.14,5.44c.41,1.07,1.09,2.86,1.48,4.05h.04c-.08-1.46-.27-3.87-.27-6.42v-3.07h2.37v13.87h-2.47l-2.12-5.27c-.45-1.17-1.09-2.92-1.4-4.18h-.04c.06,1.4.16,3.54.16,6.32v3.13h-2.37Z"/>
      <path class="cls-8" d="M80.99,30.73h-3.17v3.75h3.58v2.35h-6.28v-13.87h6.03v2.35h-3.34v3.19h3.17v2.24Z"/>
      <path class="cls-8" d="M84.73,25.44h-2.45v-2.49h7.62v2.49h-2.47v11.38h-2.7v-11.38Z"/>
      <path class="cls-8" d="M94.01,22.95v13.87h-2.7v-13.87h2.7ZM91.4,20.79c0-.72.6-1.32,1.28-1.32.72,0,1.3.6,1.3,1.32s-.58,1.32-1.3,1.32-1.28-.6-1.28-1.32Z"/>
      <path class="cls-8" d="M104.9,31.97c-.06-1.32-.16-3.11-.12-4.59h-.06c-.25,1.48-.62,3.19-.88,4.26l-1.19,4.96h-1.91l-1.15-4.88c-.27-1.11-.64-2.84-.84-4.34h-.06c-.04,1.5-.12,3.25-.21,4.63l-.23,4.82h-2.33l1.01-13.87h2.84l1.11,5.02c.39,1.75.74,3.29.99,4.86h.04c.21-1.54.51-3.11.88-4.86l1.09-5.02h2.84l.84,13.87h-2.41l-.25-4.86Z"/>
      <path class="cls-8" d="M112.8,23.16c.76-.16,1.79-.27,2.82-.27,1.61,0,2.86.23,3.77,1.07.82.72,1.19,1.87,1.19,3.05,0,1.5-.45,2.55-1.17,3.34-.86.9-2.26,1.32-3.38,1.32h-.54v5.17h-2.7v-13.67ZM115.49,29.45c.12.04.27.04.43.04,1.36,0,1.98-.97,1.98-2.26,0-1.22-.49-2.16-1.75-2.16-.25,0-.49.04-.66.1v4.28Z"/>
      <path class="cls-8" d="M123.54,33.65l-.62,3.17h-2.61l3.01-13.87h3.23l2.7,13.87h-2.61l-.6-3.17h-2.49ZM125.78,31.55l-.45-2.9c-.14-.84-.33-2.22-.45-3.15h-.06c-.14.93-.35,2.37-.49,3.17l-.51,2.88h1.98Z"/>
      <path class="cls-8" d="M130.76,36.82v-13.87h2.47l2.14,5.44c.41,1.07,1.09,2.86,1.48,4.05h.04c-.08-1.46-.27-3.87-.27-6.42v-3.07h2.37v13.87h-2.47l-2.12-5.27c-.45-1.17-1.09-2.92-1.4-4.18h-.04c.06,1.4.16,3.54.16,6.32v3.13h-2.37Z"/>
      <path class="cls-8" d="M147.25,30.73h-3.17v3.75h3.58v2.35h-6.28v-13.87h6.03v2.35h-3.34v3.19h3.17v2.24Z"/>
      <path class="cls-8" d="M149.49,22.95h2.7v11.59h3.56v2.28h-6.26v-13.87Z"/>
      <path class="cls-8" d="M160,22.95v13.87h-2.7v-13.87h2.7ZM157.39,20.79c0-.72.6-1.32,1.28-1.32.72,0,1.3.6,1.3,1.32s-.58,1.32-1.3,1.32-1.28-.6-1.28-1.32Z"/>
    </g>
  </g>
</svg>