<?xml version="1.0" encoding="UTF-8"?>
<svg id="katman_2" data-name="katman 2" xmlns="http://www.w3.org/2000/svg" viewBox="0 0 41.24 13.02">
  <defs>
    <style>
      .cls-1 {
        fill: #004b93;
      }

      .cls-1, .cls-2 {
        fill-rule: evenodd;
      }

      .cls-2 {
        fill: #e42313;
      }
    </style>
  </defs>
  <g id="katman_1" data-name="katman 1">
    <g>
      <path class="cls-1" d="M26.72.67c2.42.14,4.13,2.21,3.8,4.62-.29,2.13-2.08,3.83-4.17,4.1v3.63h-2.79V.67l2.63-.02c.17-.01.35,0,.53.02h0ZM26.38,2.76c.78-.18,1.41.64,1.41,1.83s-.63,2.31-1.41,2.49c0,0-.02,0-.03,0V2.76s.02,0,.03,0h0Z"/>
      <path class="cls-1" d="M31.73,1.53v3.2h-.73v2.07h.73v2.8q0-.33,0,0h0c0,1.88,1.53,3.41,3.41,3.41.26,0,.54-.04.8-.1v-1.81c-.15.07-.31.11-.47.11-1.26,0-1.21-1.96-1.23-1.96v-2.45h1.7v-2.07h-1.7V1.53h-2.51Z"/>
      <path class="cls-1" d="M37.03,1.53v3.2h-.73v2.07h.73v2.8q0-.33,0,0h0c0,1.88,1.53,3.41,3.41,3.41.26,0,.54-.04.8-.1v-1.81c-.15.07-.31.11-.47.11-1.26,0-1.21-1.96-1.23-1.96v-2.45h1.7v-2.07h-1.7V1.53h-2.51Z"/>
      <g>
        <path class="cls-1" d="M21.08,8.34c-.3.79-.81,1.5-1.42,2.12-1.51,1.52-3.79,2.36-6.36,1.99-3.72-.54-6.97-2.87-7.96-5.76,0,0-2.66,1.53-2.94,1.7,2.23,2.12,5.12,3.87,8.17,4.63-3.64-.39-8.19-2.06-10.56-4.91l1.34-.78s0,0,0,0c1.79-1.04,3.58-2.08,5.37-3.13.03.58.12,1.18.26,1.79.44,1.86,1.6,3.43,3.15,4.46,1.6,1.06,3.61,1.55,5.53,1.26,2.14-.32,3.51-1.87,4.06-3.83.13-.46.22-.95.26-1.44l1.11,1.91h0Z"/>
        <path class="cls-2" d="M11.01,3.21C7.93,1.45,7.71.91,7.3,0c-.01,0,.36.37.96.49,1.2.24,3.31.52,5.24,1.17,1.71.58,3.3,1.42,4.14,2.16,1.52,1.34,1.43,3.49-.2,5.12.35-1.86-.13-3.84-1.71-4.91-.68-.46-1.43-.82-2.17-1.15-.7-.31-1.41-.57-2.11-.84-.89-.33-1.77-.48-2.65-.83.53.56,1.17.91,1.83,1.22.75.35,1.44.68,1.84,1.34-.21-.07-.62.02-.85.02-.57,0-1.14-.05-1.6-.15.73.71,1.57,1.31,2.45,1.81-.55.14-1.4.1-1.83.02-.43-.08-.41-.09-.6-.16.19.16.39.32.61.47.98.66,2.06,1.03,2.95,1.06-.89.09-2.03-.15-3.09-.7-.87-.45-1.53-1.03-1.91-1.6.29.11.6.2.94.27t0,0c.11.02.22.04.34.06.42.06.81.09,1.21.08-.25-.12-.48-.25-.72-.39-.74-.44-1.51-1.07-1.96-1.82.29.13.63.24,1.02.32,0,0,0,0,0,0,0,0,0,0,0,0,.01,0,.02,0,.03,0,0,0,0,0,0,0,0,0,.02,0,.03,0,0,0,.01,0,.02,0,.53.1.98.14,1.52.12h0Z"/>
      </g>
    </g>
  </g>
</svg>