<?xml version="1.0" encoding="UTF-8"?>
<svg id="katman_2" data-name="katman 2" xmlns="http://www.w3.org/2000/svg" viewBox="0 0 61.45 14.17">
  <defs>
    <style>
      .cls-1 {
        fill: #de007e;
      }

      .cls-2 {
        fill: #004388;
      }
    </style>
  </defs>
  <g id="katman_1" data-name="katman 1">
    <g>
      <path class="cls-2" d="M18.05,12.46c0,.17-.02.32-.06.46-.04.14-.1.26-.17.35-.08.1-.17.17-.28.23-.11.05-.24.08-.38.08-.16,0-.29-.03-.41-.08-.12-.06-.21-.14-.29-.23-.08-.1-.14-.22-.17-.36-.04-.14-.06-.29-.06-.45,0-.18.02-.34.07-.48.04-.14.11-.26.19-.35.08-.1.18-.17.29-.22.11-.05.24-.07.37-.07.15,0,.29.03.4.09.11.06.21.14.29.24.08.1.13.22.17.36.04.14.06.29.06.44M17.64,12.49c0-.13,0-.25-.02-.36-.02-.11-.04-.2-.08-.27-.04-.08-.09-.13-.15-.17-.07-.04-.15-.06-.24-.06-.18,0-.31.07-.39.21-.08.14-.12.34-.12.6,0,.14,0,.26.03.37.02.11.05.2.09.27.04.07.09.13.16.17.06.04.14.06.24.06.08,0,.15-.02.21-.05.06-.03.11-.08.15-.15.04-.07.07-.15.09-.25.02-.1.03-.23.03-.38"/>
      <path class="cls-2" d="M19.38,12.26s-.03-.01-.05-.02c-.01,0-.03,0-.05,0-.07,0-.14.02-.19.07-.05.05-.09.1-.11.17v1.08h-.34v-1.12c0-.1,0-.19-.02-.25-.01-.07-.02-.13-.04-.18l.32-.08c.04.08.06.16.06.25.06-.09.13-.15.19-.19.07-.04.14-.06.21-.06.05,0,.09,0,.12.02l-.11.32Z"/>
      <path class="cls-2" d="M20.55,13.59c-.08,0-.14-.01-.2-.03-.05-.02-.1-.05-.13-.09s-.06-.08-.07-.13c-.01-.05-.02-.1-.02-.16v-.99h-.18v-.24h.18c0-.07,0-.13,0-.2s0-.13.01-.19l.36-.09c0,.07-.02.14-.02.23,0,.09,0,.17,0,.25h.38l-.09.24h-.29v.89c0,.1.01.17.04.2.03.04.08.05.15.05.04,0,.09-.01.15-.03l.04.21c-.1.05-.21.07-.31.07"/>
      <path class="cls-2" d="M22.51,13.62s-.09-.05-.13-.08c-.04-.04-.07-.08-.09-.13-.07.07-.13.12-.2.15-.07.03-.15.04-.23.04-.18,0-.32-.05-.4-.14-.08-.09-.13-.2-.13-.34,0-.18.07-.32.2-.42.13-.09.33-.14.59-.14h.11v-.09c0-.09-.01-.16-.04-.21-.03-.05-.09-.07-.18-.07-.05,0-.1,0-.15.02-.05.02-.1.03-.14.05-.04.02-.08.04-.11.06-.03.02-.05.04-.07.04l-.15-.25c.12-.08.23-.13.34-.17.11-.03.22-.05.34-.05.25,0,.41.09.49.26,0,.02.01.04.02.06,0,.02,0,.05,0,.08,0,.03,0,.07,0,.11v.61c0,.05,0,.1,0,.14,0,.04,0,.07.02.1.01.03.02.05.04.07.02.02.04.04.07.06l-.18.22ZM22.21,12.8s-.01,0-.03,0c-.01,0-.03,0-.04,0-.09,0-.16,0-.22.02-.06.01-.1.03-.14.06-.03.03-.06.06-.07.09-.01.04-.02.08-.02.13,0,.08.02.14.06.18.04.04.09.07.16.07.05,0,.11-.01.16-.05.05-.03.09-.07.13-.12v-.38Z"/>
      <path class="cls-2" d="M23.33,13.55v-1.86c0-.08,0-.15,0-.2,0-.06-.01-.12-.03-.18l.35-.08c.01.05.02.11.02.19,0,.07,0,.15,0,.24v1.9h-.34ZM24.3,13.55l-.6-.9.47-.69h.42l-.54.67.67.92h-.42Z"/>
      <path class="cls-2" d="M27.55,12.11s-.09.06-.13.08c-.04.02-.09.02-.15.02-.03,0-.06,0-.08,0-.02,0-.04,0-.04,0,0,0,0,.01.02.02.01.01.02.03.04.06.01.02.02.05.03.09,0,.03.01.07.01.11,0,.07-.01.13-.04.19-.03.06-.07.11-.12.15-.05.04-.12.08-.19.1-.07.02-.16.04-.25.04-.06.02-.11.05-.15.07-.04.03-.06.05-.06.08,0,.01,0,.03,0,.03,0,0,.02.02.05.02.03,0,.07,0,.12,0,.05,0,.13,0,.22,0,.06,0,.13,0,.19.03.06.02.12.04.17.08.05.04.09.08.12.14.03.06.05.13.05.21,0,.09-.02.16-.05.23-.03.06-.08.12-.14.16-.06.04-.14.08-.22.1-.09.02-.18.03-.29.03s-.2,0-.28-.02c-.09-.02-.16-.04-.23-.08-.06-.04-.11-.08-.15-.13-.04-.05-.05-.12-.05-.19,0-.03,0-.07.01-.1,0-.03.02-.06.02-.07h.33s0,.02-.02.04c0,.02-.01.05-.01.07,0,.07.03.13.09.17.06.04.15.06.26.06.12,0,.22-.02.28-.07.06-.05.1-.11.1-.18,0-.09-.04-.15-.11-.18-.07-.03-.18-.04-.33-.04-.11,0-.19,0-.26-.02-.07-.01-.12-.03-.16-.05-.04-.02-.06-.05-.08-.08s-.02-.07-.02-.11c0-.08.03-.14.09-.17.06-.04.13-.07.22-.1-.24-.07-.36-.22-.36-.45,0-.08.01-.16.05-.22.03-.07.07-.12.13-.17.06-.05.12-.08.2-.11.08-.03.17-.04.26-.04.06,0,.11,0,.15.01.04,0,.09.02.13.03.04.01.07.02.11.03.03,0,.07.01.1.01.1,0,.2-.04.29-.11l.16.22ZM26.88,12.45c0-.18-.09-.28-.27-.28-.09,0-.16.02-.2.07-.05.05-.07.12-.07.21s.02.16.07.2c.05.04.12.06.2.06.18,0,.27-.09.27-.27"/>
      <path class="cls-2" d="M28.35,12.85v.03c0,.05,0,.11.02.16.01.06.03.1.06.15.03.04.07.08.12.1.05.03.11.04.19.04.14,0,.27-.05.4-.16l.14.21c-.17.14-.36.21-.57.21-.11,0-.22-.02-.31-.06-.09-.04-.17-.09-.23-.17-.06-.07-.11-.16-.15-.26-.03-.1-.05-.22-.05-.35,0-.14.02-.26.05-.36.03-.1.08-.19.15-.27.07-.07.14-.13.22-.16.08-.03.17-.05.27-.05.08,0,.16.01.23.04.07.02.14.07.21.13.07.06.12.15.16.26.04.11.05.25.05.44v.07h-.95ZM28.94,12.59c0-.13-.03-.23-.08-.3-.05-.07-.12-.11-.21-.11-.1,0-.17.04-.22.11-.05.07-.08.17-.08.3h.59Z"/>
      <path class="cls-2" d="M30.85,13.53c-.08.03-.17.05-.26.05l-.03.09c.08.01.14.04.17.08.03.05.05.1.05.15,0,.07-.03.13-.08.19-.05.05-.14.08-.24.08-.05,0-.09,0-.14-.02-.05-.02-.09-.03-.12-.05l.08-.17s.06.02.08.03c.03,0,.06.01.08.01.03,0,.05,0,.07-.02.02-.02.03-.03.03-.06,0-.05-.03-.08-.1-.08-.02,0-.04,0-.05,0-.02,0-.02,0-.03,0l-.03-.05.06-.23c-.14-.03-.25-.11-.33-.22-.1-.15-.16-.34-.16-.58,0-.18.03-.33.08-.45.06-.11.13-.2.21-.27.06-.05.12-.08.19-.1.07-.02.14-.03.22-.03.09,0,.17.01.24.04.07.03.14.07.2.13l-.17.23c-.09-.08-.18-.12-.27-.12-.12,0-.2.05-.25.15-.05.1-.07.25-.07.46,0,.11,0,.2.03.27.02.07.04.12.08.16.02.02.05.05.09.07.04.02.08.03.13.03.05,0,.11-.01.17-.04.06-.03.11-.07.16-.12l.16.21c-.07.07-.15.13-.23.16"/>
      <path class="cls-2" d="M33.38,13.55v-1.1c0-.09-.01-.16-.04-.19-.02-.03-.07-.05-.13-.05s-.12.02-.17.05c-.06.03-.11.08-.17.13v1.16h-.33v-1.09c0-.1-.01-.16-.04-.19-.02-.03-.07-.05-.14-.05-.05,0-.1.01-.16.04-.06.03-.11.07-.17.12v1.18h-.34v-1.14c0-.1,0-.18-.01-.25,0-.06-.02-.12-.04-.16l.32-.09c.03.05.05.12.06.2.06-.06.13-.11.2-.15.07-.03.15-.05.22-.05s.14.02.2.05c.06.03.12.09.18.19.08-.08.16-.14.23-.18.08-.04.16-.06.24-.06.13,0,.23.04.31.11.07.07.11.19.11.36v1.17h-.34Z"/>
      <path class="cls-2" d="M34.84,11.49c0,.06-.02.12-.07.16-.05.05-.1.07-.17.07s-.12-.02-.16-.07c-.04-.04-.06-.1-.06-.16s.02-.12.07-.17c.04-.05.1-.07.16-.07.06,0,.11.02.16.07.04.04.07.1.07.17M34.43,13.55v-1.57l.35-.06v1.63h-.35Z"/>
      <path class="cls-2" d="M36.36,13.9c0,.07-.03.13-.08.19-.05.05-.14.08-.24.08-.05,0-.09,0-.14-.03-.05-.02-.09-.03-.12-.05l.08-.17s.06.03.08.03c.03,0,.06.01.09.01.03,0,.05,0,.07-.02.02-.01.03-.03.03-.06s0-.04-.03-.06c-.02-.02-.04-.02-.07-.02-.02,0-.04,0-.05,0-.02,0-.03,0-.04.01l-.02-.07.04-.17c-.17-.02-.35-.07-.53-.17l.12-.25c.07.04.15.08.24.11.09.03.18.05.27.05.08,0,.14-.02.19-.06.05-.04.07-.1.07-.16,0-.06-.02-.11-.06-.14-.04-.03-.11-.06-.2-.08l-.19-.04c-.12-.03-.21-.08-.28-.15-.07-.08-.1-.17-.1-.29,0-.07.01-.14.04-.21.03-.06.07-.12.12-.16.05-.04.12-.08.19-.1.07-.03.15-.04.24-.04.11,0,.21.01.29.04.09.03.16.06.23.1l-.11.24c-.07-.04-.14-.07-.2-.09-.06-.02-.12-.03-.19-.03-.07,0-.13.02-.18.06-.04.04-.07.09-.07.15,0,.05.02.09.05.12.03.03.09.05.17.07l.2.05c.08.02.15.05.2.08.05.03.09.07.12.11.03.04.05.08.06.12.01.04.02.09.02.14,0,.15-.05.27-.14.36-.1.09-.22.15-.38.17l-.02.08c.08.01.14.04.17.08.03.04.05.1.05.16"/>
      <path class="cls-2" d="M37.63,13.44c0,.13-.04.25-.12.35-.08.1-.18.17-.3.21l-.13-.16c.06-.02.12-.05.16-.09.04-.04.06-.09.06-.13,0-.01,0-.02-.02-.03-.01-.01-.03-.02-.05-.03-.04-.02-.07-.04-.1-.08-.02-.04-.04-.08-.04-.13,0-.07.02-.13.07-.18.05-.05.11-.07.18-.07.08,0,.15.03.2.1.05.06.08.15.08.25"/>
      <path class="cls-2" d="M40.43,12.76c0,.13-.02.24-.05.35-.03.1-.08.19-.14.26-.06.07-.14.13-.22.17-.09.04-.18.06-.29.06s-.2-.02-.29-.06c-.09-.04-.16-.09-.22-.17-.06-.07-.11-.16-.14-.26-.03-.1-.05-.22-.05-.35s.02-.24.05-.35c.03-.1.08-.19.14-.26.06-.07.13-.13.22-.17.09-.04.18-.06.29-.06.11,0,.21.02.3.06.09.04.16.1.22.17.06.07.11.16.14.27.03.1.05.22.05.34M40.05,12.76c0-.11,0-.21-.02-.28-.02-.07-.04-.13-.07-.18-.03-.05-.06-.08-.1-.1-.04-.02-.08-.03-.14-.03-.11,0-.19.04-.24.13-.05.09-.07.23-.07.42,0,.12,0,.21.02.29.02.08.04.14.06.18.03.05.06.08.1.1.04.02.09.03.14.03.1,0,.18-.04.24-.13s.08-.23.08-.44"/>
      <path class="cls-2" d="M41.85,12.26s-.03-.01-.05-.02c-.01,0-.03,0-.05,0-.07,0-.14.02-.19.07-.05.05-.09.1-.11.17v1.08h-.34v-1.12c0-.1,0-.19-.02-.25-.01-.07-.02-.13-.04-.18l.32-.08c.04.08.06.16.06.25.06-.09.13-.15.19-.19.07-.04.14-.06.21-.06.05,0,.09,0,.12.02l-.11.32Z"/>
      <path class="cls-2" d="M43.02,13.59c-.08,0-.14-.01-.2-.03-.05-.02-.1-.05-.13-.09-.03-.04-.06-.08-.07-.13-.01-.05-.02-.1-.02-.16v-.99h-.18v-.24h.18c0-.07,0-.13,0-.2,0-.07,0-.13.01-.19l.36-.09c0,.07-.02.14-.02.23,0,.09,0,.17,0,.25h.38l-.09.24h-.29v.89c0,.1.01.17.04.2.03.04.08.05.15.05.04,0,.09-.01.15-.03l.04.21c-.1.05-.2.07-.31.07"/>
      <path class="cls-2" d="M45.04,13.62s-.09-.05-.13-.08c-.04-.04-.07-.08-.09-.13-.07.07-.13.12-.2.15-.07.03-.15.04-.23.04-.18,0-.32-.05-.4-.14-.08-.09-.13-.2-.13-.34,0-.18.07-.32.2-.42.13-.09.33-.14.59-.14h.11v-.09c0-.09-.01-.16-.04-.21-.03-.05-.09-.07-.18-.07-.05,0-.1,0-.15.02-.05.02-.1.03-.14.05-.04.02-.08.04-.11.06-.03.02-.05.04-.07.04l-.15-.25c.12-.08.23-.13.34-.17.11-.03.22-.05.34-.05.25,0,.41.09.48.26,0,.02.01.04.02.06,0,.02,0,.05,0,.08,0,.03,0,.07,0,.11v.61c0,.05,0,.1,0,.14,0,.04,0,.07.02.1.01.03.02.05.04.07s.04.04.07.06l-.18.22ZM44.74,12.8s-.01,0-.03,0c-.01,0-.03,0-.04,0-.09,0-.16,0-.22.02-.06.01-.1.03-.14.06-.03.03-.06.06-.07.09-.01.04-.02.08-.02.13,0,.08.02.14.06.18.04.04.09.07.16.07.05,0,.11-.01.16-.05.05-.03.09-.07.13-.12v-.38Z"/>
      <path class="cls-2" d="M45.86,13.55v-1.86c0-.08,0-.15,0-.2,0-.06-.01-.12-.03-.18l.35-.08c.01.05.02.11.02.19,0,.07,0,.15,0,.24v1.9h-.34ZM46.83,13.55l-.6-.9.47-.69h.42l-.54.67.67.92h-.42Z"/>
      <path class="cls-2" d="M50.14,12.11s-.09.06-.13.08c-.04.02-.09.02-.15.02-.03,0-.06,0-.08,0-.02,0-.04,0-.04,0,0,0,0,.01.02.02.01.01.02.03.04.06.01.02.02.05.03.09,0,.03.01.07.01.11,0,.07-.01.13-.04.19-.03.06-.07.11-.12.15-.05.04-.11.08-.19.1-.07.02-.16.04-.25.04-.06.02-.11.05-.15.07-.04.03-.06.05-.06.08,0,.01,0,.03,0,.03,0,0,.02.02.05.02.03,0,.07,0,.12,0,.05,0,.13,0,.22,0,.06,0,.13,0,.19.03.06.02.12.04.17.08.05.04.09.08.12.14.03.06.05.13.05.21,0,.09-.02.16-.05.23-.03.06-.08.12-.14.16-.06.04-.14.08-.22.1-.09.02-.18.03-.29.03s-.2,0-.28-.02c-.09-.02-.16-.04-.23-.08-.06-.04-.11-.08-.15-.13-.04-.05-.05-.12-.05-.19,0-.03,0-.07.01-.1,0-.03.02-.06.02-.07h.33s0,.02-.02.04c0,.02,0,.05,0,.07,0,.07.03.13.09.17.06.04.15.06.26.06.12,0,.22-.02.28-.07.06-.05.1-.11.1-.18,0-.09-.04-.15-.11-.18-.07-.03-.18-.04-.33-.04-.11,0-.19,0-.26-.02-.07-.01-.12-.03-.16-.05-.04-.02-.06-.05-.08-.08-.01-.03-.02-.07-.02-.11,0-.08.03-.14.09-.17.06-.04.13-.07.22-.1-.24-.07-.36-.22-.36-.45,0-.08.02-.16.05-.22.03-.07.07-.12.13-.17.06-.05.12-.08.2-.11.08-.03.17-.04.26-.04.06,0,.11,0,.15.01.04,0,.09.02.13.03.04.01.07.02.11.03.03,0,.07.01.1.01.1,0,.2-.04.29-.11l.16.22ZM49.47,12.45c0-.18-.09-.28-.27-.28-.09,0-.16.02-.2.07-.05.05-.07.12-.07.21s.02.16.07.2c.05.04.12.06.2.06.18,0,.27-.09.27-.27"/>
      <path class="cls-2" d="M50.94,12.85v.03c0,.05,0,.11.02.16.01.06.03.1.06.15.03.04.07.08.12.1.05.03.11.04.19.04.14,0,.28-.05.4-.16l.14.21c-.17.14-.36.21-.57.21-.11,0-.22-.02-.31-.06-.09-.04-.17-.09-.23-.17-.06-.07-.11-.16-.15-.26-.03-.1-.05-.22-.05-.35,0-.14.02-.26.05-.36.03-.1.08-.19.15-.27.06-.07.14-.13.22-.16.08-.03.17-.05.27-.05.08,0,.16.01.23.04.07.02.14.07.21.13.07.06.12.15.16.26.03.11.05.25.05.44v.07h-.95ZM51.54,12.59c0-.13-.03-.23-.08-.3-.05-.07-.12-.11-.21-.11-.1,0-.17.04-.22.11-.05.07-.08.17-.08.3h.59Z"/>
      <path class="cls-2" d="M52.91,13.58c-.09,0-.16-.02-.2-.05-.05-.03-.08-.08-.1-.12-.02-.05-.04-.1-.04-.15,0-.05,0-.09,0-.13v-1.36c0-.05,0-.1,0-.15,0-.04,0-.08,0-.12,0-.04,0-.07-.01-.1,0-.03,0-.07-.01-.1l.36-.08s.02.11.02.18c0,.07,0,.16,0,.26v1.35c0,.05,0,.1,0,.13,0,.03,0,.06,0,.08,0,.02,0,.04.01.05,0,.01,0,.02.02.03.01.01.03.03.05.03.02,0,.04,0,.06,0l.06.21c-.06.02-.13.04-.21.04"/>
      <path class="cls-2" d="M54,12.85v.03c0,.05,0,.11.02.16.01.06.03.1.06.15.03.04.07.08.12.1.05.03.11.04.19.04.14,0,.28-.05.4-.16l.14.21c-.17.14-.36.21-.57.21-.11,0-.21-.02-.31-.06-.09-.04-.17-.09-.23-.17-.06-.07-.11-.16-.15-.26-.03-.1-.05-.22-.05-.35,0-.14.02-.26.05-.36.03-.1.08-.19.15-.27.06-.07.14-.13.22-.16.08-.03.17-.05.27-.05.08,0,.16.01.23.04.07.02.14.07.21.13.07.06.12.15.16.26.03.11.05.25.05.44v.07h-.95ZM54.59,12.59c0-.13-.03-.23-.08-.3-.05-.07-.12-.11-.21-.11-.1,0-.17.04-.22.11-.05.07-.08.17-.08.3h.59Z"/>
      <path class="cls-2" d="M56.5,13.54c-.08.03-.17.05-.28.05-.22,0-.39-.07-.5-.22-.12-.14-.17-.34-.17-.6,0-.15.02-.27.06-.38.04-.11.09-.2.16-.27.06-.07.14-.12.23-.16.08-.04.17-.05.26-.05s.17.01.23.04c.07.02.14.07.21.14l-.17.23c-.09-.08-.18-.12-.27-.12-.12,0-.2.05-.25.16-.02.05-.04.11-.05.18-.01.07-.02.16-.02.26,0,.21.04.36.11.43.05.06.12.09.21.09.11,0,.22-.05.32-.16l.16.21c-.07.07-.15.13-.23.16"/>
      <path class="cls-2" d="M57.61,12.85v.03c0,.05,0,.11.02.16.01.06.03.1.06.15.03.04.07.08.12.1.05.03.11.04.19.04.14,0,.27-.05.4-.16l.14.21c-.17.14-.36.21-.57.21-.11,0-.22-.02-.31-.06-.09-.04-.17-.09-.23-.17-.06-.07-.11-.16-.15-.26-.03-.1-.05-.22-.05-.35,0-.14.02-.26.05-.36.03-.1.08-.19.15-.27.07-.07.14-.13.22-.16.08-.03.17-.05.27-.05.08,0,.16.01.23.04.07.02.14.07.21.13.07.06.12.15.16.26.04.11.05.25.05.44v.07h-.95ZM58.21,12.59c0-.13-.03-.23-.08-.3-.05-.07-.12-.11-.21-.11-.1,0-.17.04-.22.11-.05.07-.08.17-.08.3h.59Z"/>
      <path class="cls-2" d="M59.24,13.55v-1.86c0-.08,0-.15,0-.2,0-.06-.01-.12-.03-.18l.35-.08c.01.05.02.11.02.19,0,.07,0,.15,0,.24v1.9h-.34ZM60.21,13.55l-.6-.9.47-.69h.42l-.54.67.67.92h-.42Z"/>
      <path class="cls-2" d="M61.45,13.34c0,.07-.02.13-.07.18-.05.05-.11.08-.17.08s-.13-.03-.18-.08c-.05-.05-.07-.11-.07-.18s.02-.13.07-.18c.05-.05.1-.07.17-.07s.13.02.18.07c.05.05.07.11.07.18"/>
      <path class="cls-2" d="M42.7,8.51c-.03-.09-.11-.16-.21-.16h-1.15c-.1,0-.18.06-.21.14l-.25.84c-.02.08-.09.13-.16.15h-.84c-.11,0-.2-.1-.2-.21,0-.02,0-.05.01-.07l1.59-4.96c.03-.09.11-.15.21-.15h.83c.1,0,.18.06.21.15l1.59,4.95s.01.05.01.07c0,.12-.1.22-.22.22h-.77c-.1,0-.19-.07-.21-.16l-.24-.82ZM41.47,7.34h.89l-.44-1.52-.45,1.52ZM16.61,9.34l-1.59-4.92s-.01-.04-.01-.07c0-.12.1-.22.22-.22h.76c.11,0,.19.07.22.16l1.01,3.48,1.04-3.48c.03-.09.11-.16.21-.16h.76c.12,0,.22.1.22.22,0,.02,0,.05-.01.07l-1.59,4.93c-.03.09-.11.15-.21.15h-.83c-.1,0-.18-.06-.21-.15M29.32,4.1c.1,0,.18.1.18.24v4.92c0,.13-.08.24-.18.24h-.77c-.1,0-.18-.1-.18-.24v-4.92c0-.13.08-.24.18-.24h.77ZM26.08,6.94l1.84,2.29c.05.06.07.13.05.19-.02.04-.06.07-.12.07h-.93c-.14,0-.22-.09-.31-.2l-1.45-1.77-.35.45v1.29c0,.13-.08.24-.18.24h-.77c-.1,0-.18-.1-.18-.24v-4.92c0-.13.08-.24.18-.24h.77c.1,0,.18.1.18.24v1.78s0,.07.04.07c.02,0,.06-.01.16-.13l1.47-1.76c.09-.11.17-.2.31-.2h.93c.06,0,.12.04.15.09.01.03.03.09-.03.17l-1.78,2.09c-.19.2,0,.46.02.49M31.58,7.33c-.1,0-.18.1-.18.24v1.69c0,.13-.08.24-.18.24h-.73c-.1,0-.18-.1-.18-.24v-4.92c0-.13.08-.24.18-.24h2.98c.13,0,.24.08.24.18v.67c0,.1-.1.18-.24.18h-1.89c-.1,0-.18.11-.18.24v.76c0,.09.08.16.2.17h1.48c.13,0,.24.08.24.18v.68c0,.1-.1.18-.24.18h-1.5ZM49.51,4.1c.1,0,.18.1.18.24v4.92c0,.13-.08.24-.18.24h-.77c-.1,0-.18-.1-.18-.24v-4.92c0-.13.08-.24.18-.24h.77ZM55.41,4.1c.1,0,.18.1.18.24v4.92c0,.13-.08.24-.18.24h-.77c-.1,0-.18-.1-.18-.24v-4.92c0-.13.08-.24.18-.24h.77ZM37.75,6.94l1.85,2.29c.05.06.07.13.04.19-.02.04-.06.07-.11.07h-.93c-.14,0-.22-.09-.31-.2l-1.45-1.77-.35.45v1.29c0,.13-.08.24-.18.24h-.77c-.1,0-.18-.1-.18-.24v-4.92c0-.13.08-.24.18-.24h.77c.1,0,.18.1.18.24v1.78s0,.07.04.07c.02,0,.06-.01.16-.13l1.47-1.76c.09-.11.17-.2.31-.2h.93c.06,0,.12.04.15.09.01.03.03.09-.03.17l-1.78,2.09c-.19.2,0,.46.02.49M53.67,8.47c.13,0,.24.08.24.18v.67c0,.1-.1.18-.24.18h-2.98c-.1,0-.18-.1-.18-.23v-4.92c0-.13.08-.24.18-.24h.73c.1,0,.18.1.18.24v3.9c0,.13.08.24.18.24h1.89ZM61.2,4.1c.1,0,.18.1.18.24v4.92c0,.13-.08.24-.18.24h-.77c-.1,0-.18-.1-.18-.24v-2.8l-1.19,1.95c-.05.09-.24.09-.31,0l-1.2-1.96v2.8c0,.13-.08.24-.18.24h-.77c-.1,0-.18-.1-.18-.24v-4.92c0-.13.08-.24.18-.24h.55c.08,0,.19.07.24.19l1.48,2.64,1.48-2.61c.04-.14.16-.22.26-.22h.56ZM47.76,4.1c.13,0,.24.08.24.18v.77c0,.1-.1.18-.24.18h-1.24c-.12,0-.21.1-.21.22v3.82c0,.13-.08.24-.18.24h-.77c-.1,0-.18-.1-.18-.24v-3.82c0-.12-.1-.21-.21-.22h-1.24c-.13,0-.24-.08-.24-.18v-.77c0-.1.1-.18.24-.18h4.02ZM20.64,7.34h.89l-.44-1.52-.45,1.52ZM21.87,8.51c-.03-.09-.11-.16-.21-.16h-1.15c-.09,0-.18.06-.21.14l-.25.84c-.02.08-.09.13-.16.15h-.84c-.11,0-.2-.1-.2-.21,0-.02,0-.05.01-.07l1.59-4.96c.03-.09.11-.15.21-.15h.83c.1,0,.18.06.21.15l1.59,4.95s.01.05.01.07c0,.12-.1.22-.22.22h-.77c-.1,0-.19-.07-.21-.16l-.24-.82Z"/>
      <path class="cls-1" d="M6.41.16l-2.26,2.26c-.21.21-.21.56,0,.77l2.26,2.26c.21.21.56.21.77,0l2.26-2.26c.21-.21.21-.56,0-.77L7.18.16c-.21-.21-.56-.21-.77,0M7.75,2.66c.08.08.08.21,0,.28l-.81.81c-.08.08-.21.08-.28,0l-.81-.81c-.08-.08-.08-.21,0-.28l.81-.81c.08-.08.21-.08.28,0l.81.81Z"/>
      <path class="cls-2" d="M10.41,4.15l-2.26,2.26c-.21.21-.21.56,0,.77l1.29,1.29h0c.21.21.21.56,0,.77l-2.26,2.26c-.21.21-.56.21-.77,0l-2.26-2.26c-.21-.21-.21-.56,0-.77l1.29-1.29c.21-.21.21-.56,0-.77l-2.26-2.26c-.21-.21-.56-.21-.77,0L.16,6.41h0c-.21.21-.21.56,0,.77l6.25,6.25c.21.21.56.21.77,0l6.25-6.25c.21-.21.21-.56,0-.77h0s-2.26-2.26-2.26-2.26c-.21-.21-.56-.21-.77,0M1.85,6.94c-.08-.08-.08-.21,0-.28l.81-.81c.08-.08.21-.08.28,0l.81.81c.08.08.08.21,0,.28l-.81.81c-.08.08-.21.08-.28,0l-.81-.81ZM11.74,6.65c.08.08.08.21,0,.28l-.81.81c-.08.08-.21.08-.28,0l-.81-.81c-.08-.08-.08-.21,0-.28l.81-.81c.08-.08.21-.08.28,0l.81.81Z"/>
      <path class="cls-2" d="M7.74,9.01l-.8.8c-.08.08-.22.08-.3,0l-.8-.8c-.08-.08-.08-.22,0-.3l.8-.8c.08-.08.22-.08.3,0l.8.8c.08.08.08.22,0,.3"/>
    </g>
  </g>
</svg>